<svg width="40" height="40" viewBox="0 0 40 40" fill="none" xmlns="http://www.w3.org/2000/svg">
<g clip-path="url(#clip0_407_10388)">
<path d="M20 40C31.0457 40 40 31.0457 40 20C40 8.9543 31.0457 0 20 0C8.9543 0 0 8.9543 0 20C0 31.0457 8.9543 40 20 40Z" fill="#767DFF"/>
<path fill-rule="evenodd" clip-rule="evenodd" d="M17.212 8.125H22.787C22.9802 8.1249 23.1699 8.17627 23.3367 8.27381C23.5034 8.37136 23.6412 8.51156 23.7358 8.68L32.3683 24.0788C32.4592 24.2411 32.5069 24.424 32.5069 24.61C32.5069 24.796 32.4592 24.9789 32.3683 25.1413L29.6058 30.0688C29.5114 30.2372 29.374 30.3776 29.2074 30.4753C29.0409 30.5731 28.8514 30.6248 28.6583 30.625H11.3408C11.1475 30.625 10.9577 30.5734 10.7909 30.4756C10.6241 30.3779 10.4865 30.2374 10.392 30.0688L7.63078 25.1413C7.5399 24.9789 7.49219 24.796 7.49219 24.61C7.49219 24.424 7.5399 24.2411 7.63078 24.0788L16.2633 8.68C16.3579 8.51156 16.4956 8.37136 16.6624 8.27381C16.8291 8.17627 17.0188 8.1249 17.212 8.125ZM19.9995 14.2513L14.1833 24.61H25.8158L19.9995 14.2513Z" fill="white"/>
</g>
<defs>
<clipPath id="clip0_407_10388">
<rect width="40" height="40" fill="white"/>
</clipPath>
</defs>
</svg>
