<svg width="225" height="50" viewBox="0 0 225 50" fill="none" xmlns="http://www.w3.org/2000/svg">
<circle cx="200" cy="25" r="24" fill="#00DCFA" stroke="#0E0637" stroke-width="2"/>
<path fill-rule="evenodd" clip-rule="evenodd" d="M193.873 18.8725C194.497 13.0912 199.457 8.6001 205.297 8.6001C211.649 8.60426 216.796 13.7525 216.8 20.1039C216.8 25.9426 212.309 30.903 206.526 31.5277C205.922 37.309 200.942 41.8001 195.102 41.8001C188.75 41.7959 183.603 36.6477 183.6 30.2963C183.6 24.4576 188.089 19.4972 193.873 18.8725ZM206.604 28.8913C210.476 28.3019 213.515 25.2631 214.104 21.3912H206.604V28.8913ZM186.295 29.009L186.298 28.9894H193.795V21.4892C189.924 22.08 186.887 25.1192 186.298 28.9894H186.295V29.009ZM203.91 31.6062L203.91 31.6047V31.6062H203.91ZM203.91 31.6062C203.266 35.973 199.516 39.2067 195.102 39.203C190.688 39.2068 186.939 35.9729 186.295 31.6062H203.91ZM204.009 21.3912V28.9894H196.391V21.3912H204.009ZM196.489 18.7955H214.104V18.794C213.46 14.4273 209.711 11.1934 205.297 11.1972C200.883 11.1934 197.133 14.4279 196.489 18.7955Z" fill="white"/>
<g clip-path="url(#clip0_407_11208)">
<path d="M179 25C179 37.7025 168.703 48 156 48C143.297 48 133 37.7025 133 25C133 12.2975 143.297 2 156 2C168.703 2 179 12.2975 179 25Z" fill="#767DFF" stroke="#0E0637" stroke-width="2"/>
<path fill-rule="evenodd" clip-rule="evenodd" d="M152.655 10.75H159.345C159.577 10.7499 159.805 10.8115 160.005 10.9286C160.205 11.0456 160.37 11.2139 160.484 11.416L170.843 29.8945C170.952 30.0893 171.009 30.3088 171.009 30.532C171.009 30.7552 170.952 30.9747 170.843 31.1695L167.528 37.0825C167.414 37.2847 167.249 37.4531 167.05 37.5704C166.85 37.6877 166.622 37.7497 166.391 37.75H145.61C145.378 37.75 145.15 37.6881 144.95 37.5708C144.75 37.4535 144.584 37.2849 144.471 37.0825L141.158 31.1695C141.048 30.9747 140.991 30.7552 140.991 30.532C140.991 30.3088 141.048 30.0893 141.158 29.8945L151.517 11.416C151.63 11.2139 151.795 11.0456 151.995 10.9286C152.196 10.8115 152.423 10.7499 152.655 10.75ZM156 18.1015L149.021 30.532H162.98L156 18.1015Z" fill="white"/>
</g>
<g clip-path="url(#clip1_407_11208)">
<path d="M112 2C124.703 2 135 12.2974 135 25C135 37.7026 124.703 48 112 48C99.2974 48 89 37.7026 89 25C89 12.2974 99.2974 2 112 2Z" fill="#1A82FF" stroke="#0E0637" stroke-width="2"/>
<path d="M120.774 34.8824C118.696 37.4277 115.774 38.7004 112.008 38.7004C108.241 38.7004 105.319 37.4277 103.24 34.8824C101.161 32.3356 100.122 29.0437 100.123 25.0067C100.124 20.9697 101.163 17.6782 103.239 15.1324C105.317 12.5857 108.239 11.3125 112.006 11.313C115.774 11.3134 118.696 12.5866 120.773 15.1324C122.85 17.6778 123.889 20.9692 123.89 25.0067C123.89 29.0442 122.852 32.3361 120.774 34.8824Z" fill="white"/>
<path d="M111.965 33.3782C112.956 33.3782 113.799 33.108 114.493 32.5677C115.188 32.0273 115.691 31.2945 116.002 30.3693C116.313 29.4436 116.532 28.5562 116.66 27.7073C116.788 26.8584 116.852 25.9583 116.851 25.007C116.851 23.8358 116.78 22.7876 116.638 21.8623L108.096 30.7642C108.886 32.506 110.175 33.3773 111.965 33.3782Z" fill="#1A82FF"/>
<path d="M112.049 16.6357C111.058 16.6357 110.215 16.9059 109.521 17.4462C108.826 17.9866 108.323 18.7194 108.012 19.6446C107.699 20.5703 107.48 21.4576 107.354 22.3065C107.226 23.1554 107.162 24.0555 107.163 25.0067C107.163 25.6335 107.183 26.225 107.223 26.7813L115.371 18.2924C114.58 17.1884 113.473 16.6362 112.049 16.6357Z" fill="#1A82FF"/>
<path d="M100.787 33.4934L99.7383 32.4868L107.694 24.1938L108.743 25.2004L100.787 33.4934ZM115.777 24.8397L114.728 23.8331L122.684 15.54L123.733 16.5467L115.777 24.8397Z" fill="#1A82FF"/>
</g>
<path opacity="0.2" d="M68 49C81.2548 49 92 38.2548 92 25C92 11.7452 81.2548 1 68 1C54.7452 1 44 11.7452 44 25C44 38.2548 54.7452 49 68 49Z" fill="#E2BD23"/>
<path d="M68 49C81.2548 49 92 38.2548 92 25C92 11.7452 81.2548 1 68 1C54.7452 1 44 11.7452 44 25C44 38.2548 54.7452 49 68 49Z" fill="#F0C30B" stroke="#0E0637" stroke-width="2"/>
<mask id="mask0_407_11208" style="mask-type:alpha" maskUnits="userSpaceOnUse" x="44" y="1" width="48" height="48">
<path d="M68 49C81.2548 49 92 38.2548 92 25C92 11.7452 81.2548 1 68 1C54.7452 1 44 11.7452 44 25C44 38.2548 54.7452 49 68 49Z" fill="white"/>
</mask>
<g mask="url(#mask0_407_11208)">
<path fill-rule="evenodd" clip-rule="evenodd" d="M68.3966 15.3735H61.8436V24.0768H57.8457V26.9779H61.8436V35.6812H68.3966C71.8554 35.6812 72.6007 35.319 74.0913 34.5945C74.207 34.5383 74.3272 34.4799 74.4536 34.4193C76.207 33.5779 77.5697 32.3933 78.5417 30.8654C79.5136 29.3375 79.9995 27.5582 79.9995 25.5274C79.9995 23.4966 79.5136 21.7173 78.5417 20.1894C77.5697 18.6614 76.207 17.4768 74.4536 16.6355C72.7001 15.7942 70.6811 15.3735 68.3966 15.3735ZM66.7132 26.9779V31.8228H68.1561C70.2603 31.8228 71.9386 31.2571 73.1911 30.1256C74.4435 28.9942 75.0698 27.4615 75.0698 25.5274C75.0698 23.5933 74.4435 22.0606 73.1911 20.9291C71.9386 19.7977 70.2603 19.232 68.1561 19.232H66.7132V24.0768H71.3725V26.9779H66.7132Z" fill="white"/>
</g>
<g clip-path="url(#clip2_407_11208)">
<path d="M18.4387 47.3107L18.4383 47.3106C6.11007 44.2376 -1.38377 31.7479 1.68926 19.4383L1.68935 19.438C4.76237 7.10992 17.234 -0.383898 29.5625 2.68935L29.5635 2.6896C41.872 5.74417 49.385 18.2333 46.3117 30.562L47.282 30.8039L46.3117 30.562C43.2387 42.8899 30.7485 50.3837 18.4387 47.3107Z" fill="url(#paint0_linear_407_11208)" stroke="#0E0637" stroke-width="2"/>
<path d="M35.4271 22.0095C35.8959 18.822 33.4771 17.097 30.1396 15.9532L31.2271 11.622L28.6021 10.9657L27.5521 15.1845C26.8584 15.0157 26.1459 14.847 25.4334 14.697L26.4834 10.4595L23.8584 9.80322L22.7896 14.1157C22.2084 13.9845 21.6459 13.8532 21.1021 13.722V13.7032L17.4646 12.8032L16.7709 15.6157C16.7709 15.6157 18.7209 16.0657 18.6834 16.0845C19.7521 16.347 19.9396 17.0595 19.9021 17.622L18.6646 22.5532C18.7396 22.572 18.8334 22.5907 18.9459 22.647C18.8521 22.6282 18.7584 22.6095 18.6646 22.572L16.9396 29.472C16.8084 29.7907 16.4709 30.2782 15.7396 30.0907C15.7584 30.1282 13.8271 29.622 13.8271 29.622L12.5146 32.6407L15.9459 33.5032C16.5834 33.672 17.2021 33.822 17.8209 33.9907L16.7334 38.3595L19.3584 39.0157L20.4459 34.6845C21.1584 34.872 21.8709 35.0595 22.5459 35.2282L21.4771 39.5407L24.1021 40.197L25.1896 35.8282C29.6896 36.672 33.0646 36.3345 34.4709 32.2657C35.6146 29.0032 34.4146 27.1095 32.0521 25.872C33.7959 25.4782 35.0896 24.3345 35.4271 22.0095ZM29.4084 30.447C28.6021 33.7095 23.0896 31.947 21.3084 31.497L22.7521 25.7032C24.5334 26.1532 30.2709 27.0345 29.4084 30.447ZM30.2334 21.9532C29.4834 24.9345 24.9084 23.4157 23.4271 23.0407L24.7396 17.7907C26.2209 18.1657 31.0021 18.8595 30.2334 21.9532Z" fill="white"/>
</g>
<defs>
<linearGradient id="paint0_linear_407_11208" x1="23.987" y1="0.98848" x2="23.987" y2="48.9952" gradientUnits="userSpaceOnUse">
<stop stop-color="#F9AA4B"/>
<stop offset="1" stop-color="#F7931A"/>
</linearGradient>
<clipPath id="clip0_407_11208">
<rect width="48" height="48" fill="white" transform="translate(132 1)"/>
</clipPath>
<clipPath id="clip1_407_11208">
<rect width="48" height="48" fill="white" transform="translate(88 1)"/>
</clipPath>
<clipPath id="clip2_407_11208">
<rect width="48" height="48" fill="white" transform="translate(0 1)"/>
</clipPath>
</defs>
</svg>
