<svg width="140" height="140" viewBox="0 0 140 140" fill="none" xmlns="http://www.w3.org/2000/svg">
<rect width="140" height="140" rx="24" fill="url(#paint0_linear_751_7758)"/>
<rect x="8.51758" y="8.51709" width="122.966" height="122.966" rx="16" fill="white"/>
<g clip-path="url(#clip0_751_7758)">
<path d="M27.6807 27.6812L27.6807 55.9606H55.9601L55.9601 27.6812H27.6807ZM49.3061 49.3066H34.3347L34.3347 34.3351H49.3061L49.3061 49.3066Z" fill="#131316"/>
<path d="M45.1472 38.4941H38.4932L38.4932 45.1481H45.1472L45.1472 38.4941Z" fill="#131316"/>
<path d="M84.5723 27.6812L84.5723 55.9606H112.852L112.852 27.6812H84.5723ZM106.198 49.3066H91.2263L91.2263 34.3351H106.198L106.198 49.3066Z" fill="#131316"/>
<path d="M102.039 38.4941H95.3848L95.3848 45.1481H102.039L102.039 38.4941Z" fill="#131316"/>
<path d="M27.6807 84.5728L27.6807 112.852H55.9601L55.9601 84.5728H27.6807ZM49.3061 106.198H34.3347L34.3347 91.2267H49.3061L49.3061 106.198Z" fill="#131316"/>
<path d="M45.1472 95.3857H38.4932L38.4932 102.04H45.1472L45.1472 95.3857Z" fill="#131316"/>
<path d="M40.989 60.4521H34.335L34.335 67.1061H40.989L40.989 60.4521Z" fill="#131316"/>
<path d="M47.6423 73.76L47.6423 67.106H40.9883L40.9883 73.76H47.4759L47.4759 80.4139H54.1299L54.1299 73.76H47.6423Z" fill="#131316"/>
<path d="M80.9128 40.4902H74.2588L74.2588 47.1442H80.9128L80.9128 40.4902Z" fill="#131316"/>
<path d="M67.6042 34.335H60.9502L60.9502 47.1439H67.6042L67.6042 34.335Z" fill="#131316"/>
<path d="M74.2585 27.6812H67.6045L67.6045 34.3351H74.2585L74.2585 27.6812Z" fill="#131316"/>
<path d="M67.6042 47.144L67.6042 53.798H60.9502L60.9502 60.452H74.2582L74.2582 47.144H67.6042Z" fill="#131316"/>
<path d="M74.2582 86.7352L74.2582 80.2476H67.6042L67.6042 67.106H60.9502L60.9502 80.4139H67.6042L67.6042 86.9016H74.2582L74.2582 93.3892H87.5662L87.5662 86.7352H74.2582Z" fill="#131316"/>
<path d="M80.9128 60.4521H74.2588L74.2588 73.7601H80.9128L80.9128 60.4521Z" fill="#131316"/>
<path d="M106.198 66.9398L106.198 60.4521H94.054L94.054 67.1061H87.5664L87.5664 73.7601H94.2204L94.2204 80.2478H112.852L112.852 66.9398H106.198ZM106.198 73.5938H94.2204L94.2204 67.1061H106.198L106.198 73.5938Z" fill="#131316"/>
<path d="M112.852 86.7354H106.198L106.198 100.043H112.852L112.852 86.7354Z" fill="#131316"/>
<path d="M87.5661 73.7603H80.9121L80.9121 80.4142H87.5661L87.5661 73.7603Z" fill="#131316"/>
<path d="M94.2204 93.3892H87.5664L87.5664 100.043H94.2204L94.2204 93.3892Z" fill="#131316"/>
<path d="M100.875 86.7354H94.2207L94.2207 93.3893H100.875L100.875 86.7354Z" fill="#131316"/>
<path d="M94.2207 100.043L94.2207 112.852H100.875L100.875 106.697H106.198L106.198 100.043H94.2207Z" fill="#131316"/>
<path d="M67.6042 86.9019H60.9502L60.9502 99.5444H67.6042L67.6042 86.9019Z" fill="#131316"/>
<path d="M80.9125 106.198L80.9125 99.5444H67.6045L67.6045 112.852H74.2585L74.2585 106.198H80.7461L80.7461 112.852H87.4001L87.4001 106.198H80.9125Z" fill="#131316"/>
<path d="M60.9506 60.4521H47.6426L47.6426 67.1061H60.9506L60.9506 60.4521Z" fill="#131316"/>
<path d="M34.3347 67.106H27.6807L27.6807 80.4139H34.3347L34.3347 67.106Z" fill="#131316"/>
</g>
<defs>
<linearGradient id="paint0_linear_751_7758" x1="34.6008" y1="34.6008" x2="140" y2="140" gradientUnits="userSpaceOnUse">
<stop stop-color="#DAF727"/>
<stop offset="1" stop-color="#725AEC"/>
</linearGradient>
<clipPath id="clip0_751_7758">
<rect width="85.1711" height="85.1711" fill="white" transform="translate(27.6807 27.6812)"/>
</clipPath>
</defs>
</svg>
