<svg width="320" height="336" viewBox="0 0 320 336" fill="none" xmlns="http://www.w3.org/2000/svg">
<g clip-path="url(#clip0_751_7603)">
<rect width="320" height="692.907" rx="40" fill="white"/>
<rect x="-459" y="27" width="904" height="382" rx="8" fill="white"/>
<path d="M51.208 67.096C50.416 66.784 49.48 66.52 48.4 66.328C47.32 66.136 46.504 65.968 45.928 65.8C45.352 65.656 44.872 65.416 44.536 65.08C44.2 64.768 44.032 64.336 44.032 63.784C44.032 63.016 44.32 62.44 44.896 62.008C45.472 61.576 46.264 61.36 47.248 61.36C48.256 61.36 49.072 61.624 49.744 62.152C50.392 62.68 50.776 63.376 50.872 64.24H53.584C53.512 62.944 53.032 61.816 52.144 60.904C51.256 59.992 50.08 59.392 48.64 59.152V56.608H46.312V59.08C44.776 59.272 43.552 59.8 42.64 60.688C41.728 61.576 41.272 62.68 41.272 63.976C41.272 65.032 41.512 65.872 41.992 66.496C42.472 67.144 43.12 67.624 43.888 67.936C44.656 68.248 45.592 68.488 46.696 68.68C47.752 68.872 48.592 69.064 49.192 69.232C49.768 69.424 50.248 69.664 50.584 70C50.92 70.336 51.112 70.768 51.112 71.32C51.112 72.112 50.776 72.736 50.152 73.168C49.528 73.6 48.688 73.816 47.68 73.816C46.504 73.816 45.544 73.528 44.824 72.928C44.104 72.328 43.696 71.536 43.624 70.528L40.912 70.48C40.936 71.968 41.44 73.192 42.4 74.2C43.36 75.208 44.68 75.832 46.312 76.048V78.568H48.64V76.096C49.648 76 50.56 75.712 51.352 75.232C52.144 74.752 52.768 74.152 53.2 73.432C53.632 72.712 53.872 71.896 53.872 70.984C53.872 69.976 53.608 69.136 53.128 68.512C52.624 67.888 51.976 67.432 51.208 67.096ZM55.8936 70.864C56.1336 71.848 56.4696 72.712 56.9496 73.432C57.5016 74.296 58.2216 74.968 59.1096 75.448C59.9736 75.928 60.9816 76.144 62.1336 76.144C63.2856 76.144 64.3416 75.904 65.2536 75.424C66.1656 74.944 66.8856 74.272 67.3896 73.408C67.8936 72.544 68.1576 71.584 68.1576 70.48C68.1576 69.376 67.9176 68.392 67.4376 67.528C66.9576 66.664 66.3096 66.016 65.4456 65.536C64.5816 65.056 63.5976 64.816 62.4936 64.816C61.4856 64.816 60.6216 65.032 59.8536 65.464C59.0856 65.896 58.5336 66.496 58.1496 67.24C58.0776 67.336 58.0296 67.432 58.0056 67.504C57.9816 67.576 57.9576 67.624 57.9576 67.648V67C57.9576 65.248 58.2936 63.856 59.0136 62.824C59.7096 61.792 60.6936 61.264 61.9656 61.264C62.8296 61.264 63.5496 61.504 64.1256 61.936C64.7016 62.392 65.0616 63.016 65.2536 63.808H67.8936C67.6776 62.344 67.0536 61.192 66.0216 60.328C64.9896 59.488 63.6936 59.056 62.1576 59.056C60.7656 59.056 59.5896 59.416 58.6056 60.088C57.5976 60.784 56.8536 61.768 56.3256 63.064C55.7976 64.36 55.5336 65.92 55.5336 67.72C55.5336 68.848 55.6536 69.904 55.8936 70.864ZM64.6056 67.984C65.2056 68.632 65.5176 69.472 65.5176 70.48C65.5176 71.512 65.2056 72.352 64.5816 73C63.9576 73.648 63.1176 73.96 62.1096 73.96C61.1016 73.96 60.2856 73.648 59.6616 73C59.0376 72.376 58.7256 71.536 58.7256 70.504C58.7256 69.472 59.0376 68.632 59.6856 67.984C60.3096 67.336 61.1496 67 62.1816 67C63.1896 67 63.9816 67.336 64.6056 67.984ZM76.2301 68.368L69.7741 73.864V76H81.6781V73.672H73.5661L78.0301 69.952C79.2061 68.968 80.0941 68.056 80.6941 67.192C81.2701 66.328 81.5821 65.344 81.5821 64.192C81.5821 62.632 81.0541 61.384 80.0221 60.448C78.9661 59.512 77.5261 59.032 75.6541 59.032C74.4781 59.032 73.4461 59.272 72.5821 59.752C71.6941 60.232 70.9981 60.904 70.5181 61.72C70.0381 62.56 69.7981 63.496 69.7981 64.552V65.008H72.4621V64.696C72.4621 63.688 72.7501 62.872 73.3261 62.248C73.9021 61.624 74.6941 61.312 75.6541 61.312C76.6381 61.312 77.4301 61.576 78.0061 62.104C78.5821 62.632 78.8701 63.376 78.8701 64.312C78.8701 65.056 78.6301 65.728 78.1981 66.352C77.7661 66.976 77.0941 67.648 76.2301 68.368ZM82.4821 59.2V61.528H91.6261L83.8021 76H86.6821L94.5541 60.976V59.2H82.4821ZM107.019 68.656C106.323 67.936 105.435 67.48 104.379 67.264C105.291 67.072 106.035 66.64 106.659 65.944C107.259 65.272 107.571 64.456 107.571 63.496C107.571 62.632 107.331 61.84 106.875 61.168C106.395 60.496 105.723 59.992 104.859 59.608C103.995 59.224 102.963 59.032 101.811 59.032C100.635 59.032 99.6034 59.224 98.7394 59.608C97.8754 59.992 97.2034 60.496 96.7474 61.168C96.2674 61.84 96.0514 62.632 96.0514 63.496C96.0514 64.48 96.3394 65.296 96.9394 65.968C97.5154 66.64 98.2594 67.072 99.1714 67.264C98.1154 67.504 97.2514 67.96 96.5794 68.68C95.9074 69.4 95.5714 70.336 95.5714 71.464C95.5714 72.376 95.8114 73.192 96.3154 73.912C96.7954 74.632 97.5154 75.184 98.4514 75.568C99.3874 75.952 100.515 76.144 101.811 76.144C103.107 76.144 104.211 75.952 105.147 75.568C106.083 75.184 106.803 74.632 107.307 73.912C107.787 73.192 108.051 72.376 108.051 71.464C108.051 70.312 107.691 69.376 107.019 68.656ZM99.5314 61.768C100.107 61.288 100.875 61.048 101.811 61.048C102.723 61.048 103.491 61.288 104.067 61.768C104.643 62.248 104.955 62.848 104.955 63.568C104.955 64.312 104.643 64.912 104.067 65.392C103.491 65.872 102.723 66.088 101.811 66.088C100.875 66.088 100.107 65.872 99.5314 65.392C98.9314 64.936 98.6434 64.336 98.6434 63.568C98.6434 62.848 98.9314 62.248 99.5314 61.768ZM104.379 73.36C103.707 73.888 102.843 74.152 101.811 74.152C100.755 74.152 99.8914 73.888 99.2194 73.36C98.5474 72.832 98.2114 72.16 98.2114 71.32C98.2114 70.504 98.5474 69.832 99.2194 69.28C99.8914 68.728 100.755 68.44 101.811 68.44C102.819 68.44 103.683 68.728 104.355 69.28C105.027 69.832 105.387 70.504 105.387 71.32C105.387 72.16 105.051 72.832 104.379 73.36ZM109.851 73.336C109.539 73.648 109.395 74.032 109.395 74.512C109.395 74.992 109.539 75.4 109.851 75.688C110.163 76 110.571 76.144 111.051 76.144C111.531 76.144 111.915 76 112.251 75.688C112.563 75.4 112.731 74.992 112.731 74.512C112.731 74.032 112.563 73.648 112.251 73.336C111.915 73.048 111.531 72.88 111.051 72.88C110.571 72.88 110.163 73.048 109.851 73.336ZM118.496 59.2H115.904V61.048C115.904 61.528 115.784 61.888 115.592 62.176C115.376 62.464 115.064 62.608 114.68 62.608H112.04V64.864H114.8C115.256 64.864 115.616 64.792 115.856 64.648V76H118.496V59.2ZM132.362 68.656C131.666 67.984 130.802 67.528 129.77 67.312C130.754 67.096 131.546 66.664 132.122 66.016C132.698 65.368 133.01 64.528 133.01 63.52C133.01 62.656 132.77 61.864 132.29 61.192C131.81 60.52 131.138 59.992 130.25 59.608C129.362 59.248 128.306 59.056 127.106 59.056C125.33 59.056 123.938 59.512 122.882 60.4C121.826 61.312 121.274 62.536 121.274 64.072H123.89C123.89 63.208 124.202 62.536 124.826 62.032C125.45 61.528 126.242 61.264 127.202 61.264C128.114 61.264 128.858 61.504 129.434 61.936C130.01 62.368 130.298 62.968 130.298 63.712C130.298 64.528 129.986 65.152 129.41 65.632C128.834 66.112 127.994 66.352 126.89 66.352H125.522V68.56H127.058C128.21 68.56 129.122 68.8 129.746 69.256C130.37 69.712 130.706 70.336 130.706 71.128C130.706 71.992 130.37 72.664 129.722 73.168C129.074 73.696 128.258 73.936 127.274 73.936C126.146 73.936 125.234 73.648 124.562 73.048C123.866 72.472 123.506 71.656 123.506 70.624H120.842C120.842 72.352 121.394 73.696 122.522 74.68C123.65 75.664 125.186 76.144 127.106 76.144C128.354 76.144 129.458 75.952 130.418 75.544C131.378 75.16 132.098 74.584 132.626 73.864C133.154 73.144 133.418 72.28 133.418 71.32C133.418 70.216 133.058 69.328 132.362 68.656Z" fill="#131316"/>
<path d="M41.088 103H47.584V101.72H42.48V91.8H41.088V103ZM56.4205 101.8H56.0205C55.6525 101.8 55.4765 101.608 55.4765 101.208V97.688C55.4765 96.744 55.1885 96.024 54.6125 95.512C54.0365 95 53.2365 94.744 52.1965 94.744C51.2045 94.744 50.4045 94.968 49.7965 95.416C49.1885 95.864 48.8365 96.488 48.7405 97.288H50.0525C50.1325 96.872 50.3565 96.552 50.7245 96.296C51.0925 96.04 51.5565 95.912 52.1325 95.912C52.7725 95.912 53.2685 96.072 53.6205 96.36C53.9725 96.664 54.1645 97.08 54.1645 97.608V98.168H51.7645C50.6925 98.168 49.8765 98.392 49.3165 98.824C48.7565 99.272 48.4845 99.896 48.4845 100.712C48.4845 101.448 48.7565 102.04 49.3005 102.456C49.8445 102.888 50.5805 103.096 51.4925 103.096C52.6765 103.096 53.5885 102.648 54.2285 101.736C54.2285 102.152 54.3565 102.472 54.5805 102.68C54.8045 102.904 55.1725 103 55.7005 103H56.4205V101.8ZM54.1645 99.272V99.672C54.1645 100.376 53.9245 100.936 53.4765 101.352C53.0125 101.768 52.3885 101.976 51.5885 101.976C51.0445 101.976 50.6125 101.864 50.2925 101.608C49.9725 101.368 49.8125 101.048 49.8125 100.632C49.8125 99.736 50.4205 99.272 51.6365 99.272H54.1645ZM58.5331 100.312H57.2211C57.2211 101.192 57.5571 101.88 58.1971 102.36C58.8371 102.856 59.7011 103.096 60.7731 103.096C61.3651 103.096 61.9091 103 62.4051 102.792C62.8851 102.6 63.2851 102.312 63.5731 101.928C63.8611 101.56 64.0051 101.128 64.0051 100.632C64.0051 100.072 63.8611 99.624 63.5731 99.288C63.2851 98.968 62.9171 98.728 62.4531 98.568C61.9891 98.424 61.3971 98.312 60.6931 98.216C60.1811 98.152 59.7971 98.104 59.5411 98.04C59.2851 97.992 59.0931 97.896 58.9331 97.736C58.7731 97.592 58.6931 97.384 58.6931 97.096C58.6931 96.728 58.8531 96.424 59.2051 96.2C59.5411 95.976 59.9891 95.848 60.5491 95.848C61.0931 95.848 61.5411 95.992 61.9091 96.264C62.2611 96.552 62.4691 96.904 62.5331 97.32H63.8451C63.7811 96.488 63.4451 95.848 62.8371 95.4C62.2291 94.952 61.4611 94.728 60.5011 94.728C59.9091 94.728 59.3811 94.84 58.9171 95.048C58.4371 95.256 58.0691 95.544 57.7971 95.912C57.5251 96.296 57.3971 96.712 57.3971 97.192C57.3971 97.736 57.5251 98.152 57.8131 98.456C58.0851 98.76 58.4531 98.984 58.9011 99.112C59.3491 99.256 59.9251 99.368 60.6291 99.448C61.1251 99.512 61.5091 99.576 61.7811 99.64C62.0531 99.704 62.2771 99.832 62.4531 99.992C62.6131 100.168 62.7091 100.408 62.7091 100.728C62.7091 101.112 62.5171 101.416 62.1651 101.64C61.8131 101.864 61.3491 101.976 60.7731 101.976C60.1171 101.976 59.5891 101.832 59.1731 101.512C58.7571 101.208 58.5491 100.808 58.5331 100.312ZM66.1175 96.04V100.872C66.1175 101.608 66.2775 102.152 66.5975 102.488C66.9175 102.84 67.4775 103 68.2455 103H69.7495V101.8H68.3255C67.9895 101.8 67.7495 101.736 67.6215 101.592C67.4935 101.448 67.4295 101.208 67.4295 100.856V96.04H69.4935V94.84H67.4295V92.552H66.1175V94.84H64.6455V96.04H66.1175ZM81.1584 95.24C80.5664 94.92 79.8944 94.744 79.1424 94.744C77.9584 94.744 77.0144 95.224 76.3424 96.152L76.1664 94.84H75.0304V106.2H76.3424V101.752C76.5984 102.168 76.9664 102.504 77.4464 102.744C77.9104 102.984 78.4704 103.096 79.1424 103.096C79.8784 103.096 80.5504 102.92 81.1584 102.568C81.7504 102.216 82.2144 101.736 82.5504 101.096C82.8864 100.472 83.0624 99.752 83.0624 98.92C83.0624 98.056 82.8864 97.32 82.5504 96.68C82.2144 96.056 81.7504 95.576 81.1584 95.24ZM80.9664 101.096C80.4704 101.656 79.8144 101.928 79.0144 101.928C78.4864 101.928 78.0224 101.8 77.6064 101.544C77.1904 101.288 76.8864 100.936 76.6624 100.472C76.4384 100.008 76.3264 99.48 76.3264 98.888C76.3264 98.312 76.4384 97.8 76.6624 97.352C76.8864 96.904 77.1904 96.552 77.6064 96.296C78.0224 96.04 78.4864 95.912 79.0144 95.912C79.8144 95.912 80.4704 96.2 80.9664 96.76C81.4624 97.32 81.7184 98.04 81.7184 98.92C81.7184 99.816 81.4624 100.536 80.9664 101.096ZM88.7856 94.84H88.4176C87.7456 94.84 87.2336 94.952 86.8656 95.176C86.4816 95.4 86.1776 95.704 85.9536 96.072L85.7776 94.84H84.6416V103H85.9536V98.84C85.9536 98.072 86.1136 97.432 86.4496 96.904C86.7856 96.392 87.3456 96.12 88.1296 96.12H88.7856V94.84ZM91.3294 91.928C91.1694 91.768 90.9614 91.688 90.7214 91.688C90.4654 91.688 90.2734 91.768 90.1134 91.928C89.9534 92.088 89.8734 92.296 89.8734 92.536C89.8734 92.792 89.9534 92.984 90.1134 93.144C90.2734 93.304 90.4654 93.384 90.7214 93.384C90.9614 93.384 91.1694 93.304 91.3294 93.144C91.4894 92.984 91.5694 92.792 91.5694 92.536C91.5694 92.296 91.4894 92.088 91.3294 91.928ZM90.0654 94.84V103H91.3774V94.84H90.0654ZM99.3347 102.328C99.9587 101.816 100.359 101.096 100.535 100.184H99.2227C99.0947 100.728 98.8387 101.16 98.4387 101.464C98.0227 101.784 97.5267 101.928 96.9347 101.928C96.1507 101.928 95.5107 101.656 95.0307 101.096C94.5507 100.536 94.3107 99.8 94.3107 98.904C94.3107 98.024 94.5507 97.304 95.0307 96.744C95.5107 96.2 96.1507 95.912 96.9347 95.912C97.5107 95.912 97.9907 96.072 98.4067 96.376C98.8067 96.696 99.0787 97.112 99.2067 97.624H100.535C100.375 96.728 99.9747 96.024 99.3507 95.512C98.7267 95 97.9427 94.744 96.9827 94.744C96.1827 94.744 95.4947 94.92 94.8867 95.272C94.2787 95.624 93.7987 96.104 93.4627 96.728C93.1267 97.368 92.9667 98.088 92.9667 98.904C92.9667 99.736 93.1267 100.456 93.4627 101.096C93.7827 101.736 94.2467 102.216 94.8547 102.568C95.4467 102.92 96.1347 103.096 96.9347 103.096C97.8947 103.096 98.6947 102.84 99.3347 102.328ZM102.152 96.728C101.832 97.368 101.672 98.088 101.672 98.92C101.672 99.752 101.832 100.472 102.168 101.112C102.504 101.752 102.984 102.232 103.592 102.584C104.2 102.936 104.904 103.096 105.72 103.096C106.648 103.096 107.432 102.84 108.072 102.312C108.712 101.784 109.112 101.096 109.272 100.264H107.944C107.8 100.792 107.528 101.208 107.112 101.496C106.696 101.784 106.2 101.928 105.624 101.928C104.856 101.928 104.248 101.688 103.784 101.208C103.304 100.728 103.064 100.088 103.048 99.288V99.176H109.384C109.4 98.92 109.416 98.744 109.416 98.616C109.384 97.832 109.208 97.144 108.888 96.552C108.552 95.976 108.104 95.528 107.528 95.208C106.952 94.904 106.28 94.744 105.544 94.744C104.776 94.744 104.104 94.92 103.528 95.272C102.936 95.624 102.472 96.104 102.152 96.728ZM108.056 98.088H103.128C103.192 97.448 103.448 96.92 103.928 96.504C104.392 96.104 104.936 95.896 105.56 95.896C106.248 95.896 106.824 96.088 107.272 96.472C107.72 96.856 107.992 97.4 108.056 98.088Z" fill="#717184"/>
<path d="M182.456 68.656C181.76 67.984 180.896 67.528 179.864 67.312C180.848 67.096 181.64 66.664 182.216 66.016C182.792 65.368 183.104 64.528 183.104 63.52C183.104 62.656 182.864 61.864 182.384 61.192C181.904 60.52 181.232 59.992 180.344 59.608C179.456 59.248 178.4 59.056 177.2 59.056C175.424 59.056 174.032 59.512 172.976 60.4C171.92 61.312 171.368 62.536 171.368 64.072H173.984C173.984 63.208 174.296 62.536 174.92 62.032C175.544 61.528 176.336 61.264 177.296 61.264C178.208 61.264 178.952 61.504 179.528 61.936C180.104 62.368 180.392 62.968 180.392 63.712C180.392 64.528 180.08 65.152 179.504 65.632C178.928 66.112 178.088 66.352 176.984 66.352H175.616V68.56H177.152C178.304 68.56 179.216 68.8 179.84 69.256C180.464 69.712 180.8 70.336 180.8 71.128C180.8 71.992 180.464 72.664 179.816 73.168C179.168 73.696 178.352 73.936 177.368 73.936C176.24 73.936 175.328 73.648 174.656 73.048C173.96 72.472 173.6 71.656 173.6 70.624H170.936C170.936 72.352 171.488 73.696 172.616 74.68C173.744 75.664 175.28 76.144 177.2 76.144C178.448 76.144 179.552 75.952 180.512 75.544C181.472 75.16 182.192 74.584 182.72 73.864C183.248 73.144 183.512 72.28 183.512 71.32C183.512 70.216 183.152 69.328 182.456 68.656ZM196.747 68.656C196.051 67.936 195.163 67.48 194.107 67.264C195.019 67.072 195.763 66.64 196.387 65.944C196.987 65.272 197.299 64.456 197.299 63.496C197.299 62.632 197.059 61.84 196.603 61.168C196.123 60.496 195.451 59.992 194.587 59.608C193.723 59.224 192.691 59.032 191.539 59.032C190.363 59.032 189.331 59.224 188.467 59.608C187.603 59.992 186.931 60.496 186.475 61.168C185.995 61.84 185.779 62.632 185.779 63.496C185.779 64.48 186.067 65.296 186.667 65.968C187.243 66.64 187.987 67.072 188.899 67.264C187.843 67.504 186.979 67.96 186.307 68.68C185.635 69.4 185.299 70.336 185.299 71.464C185.299 72.376 185.539 73.192 186.043 73.912C186.523 74.632 187.243 75.184 188.179 75.568C189.115 75.952 190.243 76.144 191.539 76.144C192.835 76.144 193.939 75.952 194.875 75.568C195.811 75.184 196.531 74.632 197.035 73.912C197.515 73.192 197.779 72.376 197.779 71.464C197.779 70.312 197.419 69.376 196.747 68.656ZM189.259 61.768C189.835 61.288 190.603 61.048 191.539 61.048C192.451 61.048 193.219 61.288 193.795 61.768C194.371 62.248 194.683 62.848 194.683 63.568C194.683 64.312 194.371 64.912 193.795 65.392C193.219 65.872 192.451 66.088 191.539 66.088C190.603 66.088 189.835 65.872 189.259 65.392C188.659 64.936 188.371 64.336 188.371 63.568C188.371 62.848 188.659 62.248 189.259 61.768ZM194.107 73.36C193.435 73.888 192.571 74.152 191.539 74.152C190.483 74.152 189.619 73.888 188.947 73.36C188.275 72.832 187.939 72.16 187.939 71.32C187.939 70.504 188.275 69.832 188.947 69.28C189.619 68.728 190.483 68.44 191.539 68.44C192.547 68.44 193.411 68.728 194.083 69.28C194.755 69.832 195.115 70.504 195.115 71.32C195.115 72.16 194.779 72.832 194.107 73.36ZM199.578 73.336C199.266 73.648 199.122 74.032 199.122 74.512C199.122 74.992 199.266 75.4 199.578 75.688C199.89 76 200.298 76.144 200.778 76.144C201.258 76.144 201.642 76 201.978 75.688C202.29 75.4 202.458 74.992 202.458 74.512C202.458 74.032 202.29 73.648 201.978 73.336C201.642 73.048 201.258 72.88 200.778 72.88C200.298 72.88 199.89 73.048 199.578 73.336ZM210.513 68.368L204.057 73.864V76H215.961V73.672H207.849L212.313 69.952C213.489 68.968 214.377 68.056 214.977 67.192C215.553 66.328 215.865 65.344 215.865 64.192C215.865 62.632 215.337 61.384 214.305 60.448C213.249 59.512 211.809 59.032 209.937 59.032C208.761 59.032 207.729 59.272 206.865 59.752C205.977 60.232 205.281 60.904 204.801 61.72C204.321 62.56 204.081 63.496 204.081 64.552V65.008H206.745V64.696C206.745 63.688 207.033 62.872 207.609 62.248C208.185 61.624 208.977 61.312 209.937 61.312C210.921 61.312 211.713 61.576 212.289 62.104C212.865 62.632 213.153 63.376 213.153 64.312C213.153 65.056 212.913 65.728 212.481 66.352C212.049 66.976 211.377 67.648 210.513 68.368ZM227.345 65.392C226.505 64.912 225.569 64.672 224.513 64.672C223.769 64.672 223.073 64.816 222.401 65.056C221.729 65.296 221.153 65.68 220.673 66.208L220.985 61.528H229.001V59.2H218.537L218.033 68.872L220.601 68.92C220.865 68.152 221.321 67.624 221.993 67.312C222.641 67.024 223.313 66.856 223.985 66.856C224.993 66.856 225.809 67.192 226.433 67.84C227.057 68.512 227.369 69.352 227.369 70.36C227.369 71.128 227.201 71.752 226.889 72.28C226.553 72.808 226.145 73.216 225.617 73.48C225.089 73.768 224.537 73.888 223.961 73.888C222.953 73.888 222.137 73.6 221.489 72.976C220.817 72.376 220.457 71.608 220.361 70.696H217.721C217.769 71.704 218.057 72.64 218.585 73.456C219.089 74.272 219.809 74.92 220.721 75.4C221.633 75.88 222.713 76.12 223.961 76.12C225.065 76.12 226.097 75.904 227.033 75.448C227.945 75.016 228.689 74.344 229.241 73.48C229.769 72.616 230.057 71.584 230.057 70.36C230.057 69.256 229.817 68.272 229.337 67.408C228.857 66.544 228.185 65.872 227.345 65.392ZM244.233 59.2H238.065V76H244.449C246.441 76 247.977 75.592 249.057 74.752C250.137 73.936 250.689 72.784 250.689 71.32C250.689 69.112 249.417 67.792 246.921 67.36C247.929 67.144 248.697 66.712 249.225 66.064C249.753 65.416 250.041 64.576 250.041 63.568C250.041 62.2 249.513 61.12 248.505 60.352C247.497 59.584 246.057 59.2 244.233 59.2ZM240.825 66.328V61.504H244.305C245.241 61.504 245.961 61.72 246.489 62.152C247.017 62.584 247.281 63.16 247.281 63.904C247.281 64.672 247.017 65.248 246.489 65.68C245.961 66.112 245.241 66.328 244.305 66.328H240.825ZM240.825 73.672V68.608H244.473C245.529 68.608 246.369 68.848 246.969 69.28C247.545 69.736 247.857 70.36 247.857 71.176C247.857 71.968 247.545 72.592 246.969 73.024C246.393 73.456 245.553 73.672 244.473 73.672H240.825ZM250.787 59.2V61.648H255.971V76H258.731V61.648H263.915V59.2H250.787ZM264.874 63.136C264.202 64.432 263.89 65.92 263.89 67.6C263.89 69.328 264.202 70.816 264.874 72.112C265.546 73.408 266.482 74.392 267.706 75.088C268.93 75.808 270.37 76.144 272.002 76.144C273.274 76.144 274.426 75.904 275.434 75.424C276.442 74.944 277.258 74.272 277.882 73.384C278.506 72.52 278.914 71.488 279.106 70.288H276.346C276.058 71.368 275.53 72.208 274.762 72.808C273.994 73.432 273.034 73.72 271.882 73.72C270.826 73.72 269.914 73.48 269.146 72.952C268.354 72.424 267.754 71.704 267.346 70.768C266.914 69.856 266.722 68.8 266.722 67.6C266.722 66.4 266.914 65.344 267.346 64.432C267.754 63.52 268.354 62.8 269.146 62.272C269.914 61.744 270.826 61.48 271.882 61.48C273.034 61.48 273.994 61.792 274.786 62.392C275.554 63.016 276.082 63.856 276.37 64.912H279.13C278.938 63.76 278.53 62.728 277.906 61.84C277.258 60.952 276.418 60.256 275.41 59.776C274.402 59.296 273.25 59.056 272.002 59.056C270.37 59.056 268.93 59.416 267.706 60.136C266.482 60.856 265.546 61.84 264.874 63.136Z" fill="#131316"/>
<path d="M170.144 91.8L174.176 103H175.856L179.888 91.8H178.448L175.04 101.352L171.616 91.8H170.144ZM181.78 102.568C182.388 102.92 183.092 103.096 183.892 103.096C184.676 103.096 185.38 102.92 185.988 102.568C186.596 102.216 187.076 101.736 187.428 101.096C187.764 100.472 187.94 99.752 187.94 98.92C187.94 98.104 187.764 97.384 187.428 96.744C187.076 96.12 186.596 95.624 185.988 95.272C185.38 94.92 184.676 94.744 183.892 94.744C183.092 94.744 182.388 94.92 181.78 95.272C181.172 95.624 180.692 96.12 180.356 96.744C180.004 97.384 179.844 98.104 179.844 98.92C179.844 99.752 180.004 100.472 180.356 101.096C180.692 101.736 181.172 102.216 181.78 102.568ZM185.3 101.544C184.884 101.8 184.42 101.928 183.892 101.928C183.348 101.928 182.884 101.8 182.468 101.544C182.052 101.288 181.748 100.936 181.524 100.472C181.3 100.024 181.188 99.496 181.188 98.92C181.188 98.344 181.3 97.832 181.524 97.368C181.748 96.92 182.052 96.552 182.468 96.296C182.884 96.04 183.348 95.912 183.892 95.912C184.42 95.912 184.884 96.04 185.3 96.296C185.716 96.552 186.036 96.92 186.26 97.368C186.484 97.832 186.596 98.344 186.596 98.92C186.596 99.496 186.484 100.024 186.26 100.472C186.036 100.936 185.716 101.288 185.3 101.544ZM189.525 91.8V103H190.837V91.8H189.525ZM199.738 94.84H198.426V98.92C198.426 99.848 198.202 100.568 197.786 101.096C197.37 101.64 196.778 101.896 196.042 101.896C195.354 101.896 194.826 101.688 194.458 101.24C194.09 100.792 193.914 100.152 193.914 99.304V94.84H192.602V99.384C192.602 100.664 192.89 101.608 193.482 102.2C194.058 102.808 194.842 103.096 195.818 103.096C196.938 103.096 197.802 102.712 198.426 101.912L198.602 103H199.738V94.84ZM212.935 95.608C212.359 95.032 211.623 94.744 210.711 94.744C209.399 94.744 208.455 95.272 207.879 96.296C207.655 95.784 207.303 95.4 206.855 95.144C206.407 94.888 205.879 94.744 205.303 94.744C204.295 94.744 203.495 95.16 202.919 95.96L202.743 94.84H201.607V103H202.919V98.696C202.919 97.88 203.111 97.224 203.495 96.712C203.879 96.2 204.407 95.944 205.079 95.944C205.703 95.944 206.183 96.152 206.535 96.568C206.871 96.984 207.047 97.592 207.047 98.376V103H208.359V98.632C208.359 97.8 208.551 97.144 208.935 96.664C209.319 96.184 209.863 95.944 210.551 95.944C211.159 95.944 211.639 96.152 211.975 96.568C212.311 96.984 212.487 97.592 212.487 98.376V103H213.799V98.296C213.799 97.08 213.511 96.184 212.935 95.608ZM215.754 96.728C215.434 97.368 215.274 98.088 215.274 98.92C215.274 99.752 215.434 100.472 215.77 101.112C216.106 101.752 216.586 102.232 217.194 102.584C217.802 102.936 218.506 103.096 219.322 103.096C220.25 103.096 221.034 102.84 221.674 102.312C222.314 101.784 222.714 101.096 222.874 100.264H221.546C221.402 100.792 221.13 101.208 220.714 101.496C220.298 101.784 219.802 101.928 219.226 101.928C218.458 101.928 217.85 101.688 217.386 101.208C216.906 100.728 216.666 100.088 216.65 99.288V99.176H222.986C223.002 98.92 223.018 98.744 223.018 98.616C222.986 97.832 222.81 97.144 222.49 96.552C222.154 95.976 221.706 95.528 221.13 95.208C220.554 94.904 219.882 94.744 219.146 94.744C218.378 94.744 217.706 94.92 217.13 95.272C216.538 95.624 216.074 96.104 215.754 96.728ZM221.658 98.088H216.73C216.794 97.448 217.05 96.92 217.53 96.504C217.994 96.104 218.538 95.896 219.162 95.896C219.85 95.896 220.426 96.088 220.874 96.472C221.322 96.856 221.594 97.4 221.658 98.088ZM232.766 91.8H231.39C230.494 93.032 229.838 94.2 229.438 95.32C229.038 96.44 228.846 97.656 228.846 99C228.846 100.344 229.038 101.576 229.438 102.696C229.838 103.816 230.494 104.984 231.39 106.2H232.766C231.806 104.872 231.118 103.672 230.734 102.616C230.334 101.56 230.142 100.344 230.142 99C230.142 97.656 230.334 96.44 230.734 95.384C231.118 94.328 231.806 93.128 232.766 91.8ZM237.819 98.088L233.467 101.864V103H241.179V101.768H235.323L238.683 98.92C239.211 98.472 239.643 98.056 239.979 97.704C240.299 97.352 240.571 96.952 240.779 96.504C240.987 96.072 241.099 95.592 241.099 95.048C241.099 94.024 240.747 93.208 240.075 92.6C239.403 91.992 238.459 91.688 237.275 91.688C236.539 91.688 235.883 91.848 235.307 92.152C234.731 92.472 234.299 92.888 233.995 93.432C233.675 93.976 233.531 94.6 233.531 95.304V95.592H234.875V95.384C234.875 94.616 235.083 94.008 235.531 93.56C235.963 93.112 236.539 92.888 237.275 92.888C238.011 92.888 238.603 93.096 239.051 93.48C239.499 93.88 239.723 94.424 239.723 95.112C239.723 95.672 239.563 96.168 239.243 96.616C238.923 97.064 238.443 97.544 237.819 98.088ZM242.088 99.064V100.264H247.96V103H249.304V100.264H251.112V99.032H249.304V91.8H247.704L242.088 99.064ZM243.528 99.032L247.96 93.304V99.032H243.528ZM258.862 95.64C258.254 95.048 257.454 94.744 256.462 94.744C255.822 94.744 255.278 94.888 254.83 95.144C254.382 95.416 254.03 95.768 253.774 96.184V91.8H252.462V103H253.774V98.92C253.774 98.008 253.982 97.288 254.43 96.744C254.878 96.216 255.47 95.944 256.238 95.944C256.942 95.944 257.502 96.168 257.886 96.616C258.27 97.064 258.462 97.704 258.462 98.536V103H259.774V98.456C259.774 97.176 259.47 96.248 258.862 95.64ZM264.022 95.32C263.622 94.2 262.982 93.032 262.086 91.8H260.71C261.67 93.128 262.342 94.328 262.742 95.384C263.126 96.44 263.334 97.656 263.334 99C263.334 100.344 263.126 101.56 262.742 102.616C262.342 103.672 261.67 104.872 260.71 106.2H262.086C262.982 104.984 263.622 103.816 264.022 102.696C264.422 101.576 264.63 100.344 264.63 99C264.63 97.656 264.422 96.44 264.022 95.32Z" fill="#717184"/>
<rect x="80.5" y="115" width="1.5" height="240" fill="#F9F9FA"/>
<rect x="182" y="115" width="1.5" height="240" fill="#F9F9FA"/>
<rect x="283.5" y="115" width="1.5" height="240" fill="#F9F9FA"/>
<rect x="417.962" y="115" width="1.5" height="843" transform="rotate(90 417.962 115)" fill="#F9F9FA"/>
<rect x="417.962" y="162.5" width="1.5" height="843" transform="rotate(90 417.962 162.5)" fill="#F9F9FA"/>
<rect x="417.962" y="210" width="1.5" height="843" transform="rotate(90 417.962 210)" fill="#F9F9FA"/>
<rect x="417.962" y="257.5" width="1.5" height="843" transform="rotate(90 417.962 257.5)" fill="#F9F9FA"/>
<rect x="417.962" y="305" width="1.5" height="843" transform="rotate(90 417.962 305)" fill="#F9F9FA"/>
<rect x="167" y="200" width="8" height="54" rx="4" fill="#FB3766"/>
<rect x="170" y="192" width="2" height="80" rx="1" fill="#FB3766"/>
<rect x="119" y="181" width="8" height="54" rx="4" fill="#11CF8B"/>
<rect x="122" y="173" width="2" height="80" rx="1" fill="#11CF8B"/>
<rect x="143" y="166" width="8" height="54" rx="4" fill="#11CF8B"/>
<rect x="146" y="158" width="2" height="124" rx="1" fill="#11CF8B"/>
<rect x="47" y="202" width="8" height="54" rx="4" fill="#FB3766"/>
<rect x="50" y="194" width="2" height="103" rx="1" fill="#FB3766"/>
<rect x="311" y="221" width="8" height="54" rx="4" fill="#11CF8B"/>
<rect x="314" y="213" width="2" height="80" rx="1" fill="#11CF8B"/>
<rect x="287" y="229" width="8" height="27" rx="4" fill="#11CF8B"/>
<rect x="290" y="225" width="2" height="55" rx="1" fill="#11CF8B"/>
<rect x="95" y="229" width="8" height="27" rx="4" fill="#FB3766"/>
<rect x="98" y="208" width="2" height="55" rx="1" fill="#FB3766"/>
<rect x="191" y="213" width="8" height="20" rx="4" fill="#11CF8B"/>
<rect x="194" y="206" width="2" height="46" rx="1" fill="#11CF8B"/>
<rect x="263" y="241" width="8" height="16" rx="4" fill="#FB3766"/>
<rect x="266" y="235" width="2" height="55" rx="1" fill="#FB3766"/>
<rect x="239" y="252" width="8" height="16" rx="4" fill="#FB3766"/>
<rect x="242" y="243" width="2" height="70" rx="1" fill="#FB3766"/>
<rect x="23" y="241" width="8" height="16" rx="4" fill="#11CF8B"/>
<rect x="26" y="219" width="2" height="98" rx="1" fill="#11CF8B"/>
<rect x="71" y="207" width="8" height="16" rx="4" fill="#11CF8B"/>
<rect x="74" y="201" width="2" height="40" rx="1" fill="#11CF8B"/>
<rect x="215" y="258" width="8" height="16" rx="4" fill="#11CF8B"/>
<rect x="218" y="252" width="2" height="40" rx="1" fill="#11CF8B"/>
</g>
<rect x="4" y="4" width="312" height="684.907" rx="36" stroke="#0E0637" stroke-width="8"/>
<defs>
<clipPath id="clip0_751_7603">
<rect width="320" height="692.907" rx="40" fill="white"/>
</clipPath>
</defs>
</svg>
