<svg width="16" height="16" viewBox="0 0 16 16" fill="none" xmlns="http://www.w3.org/2000/svg">
<circle cx="8" cy="8" r="8" fill="#DAF727"/>
<g clip-path="url(#clip0_751_12499)">
<path d="M10.112 9.14627C10.112 7.95352 9.2714 7.61153 8.36202 7.41903L7.88002 7.3214C7.16727 7.18127 7.11227 6.97453 7.11227 6.69778C7.11227 6.33865 7.4359 6.12403 7.97802 6.12403C8.62002 6.12403 8.78452 6.44653 8.85277 6.68878L8.85927 6.7089C8.94002 6.92015 9.12765 7.04615 9.36177 7.04615C9.4224 7.04615 9.4769 7.0369 9.51765 7.02865C9.7689 6.97865 9.9439 6.77865 9.9439 6.54177C9.9439 6.48303 9.93327 6.42478 9.9119 6.36815C9.78315 5.95415 9.4214 5.30253 8.41902 5.15378V4.44378C8.41902 3.8524 7.49277 3.8524 7.49277 4.44378V5.15803C6.41602 5.32653 6.01952 6.05903 6.01952 6.69753C6.01952 7.85928 6.82852 8.18315 7.61877 8.34615L8.14015 8.4569C8.88265 8.6079 9.01352 8.80152 9.01352 9.15227C9.01352 9.5809 8.65115 9.8364 8.04365 9.8364C7.25502 9.8364 7.09427 9.48128 6.98677 9.08265C6.9239 8.86202 6.72452 8.7199 6.47865 8.7199C6.42502 8.7199 6.38202 8.72703 6.33015 8.7359L6.31452 8.7389C6.06027 8.79927 5.88965 8.99953 5.88965 9.2369C5.88965 9.28202 5.89765 9.3204 5.90415 9.3514L5.91215 9.3869C6.02652 9.77353 6.27902 10.6179 7.5384 10.8063V11.5494C7.5384 11.8453 7.77115 12.0001 8.0014 12.0001C8.23165 12.0001 8.46465 11.8453 8.46465 11.5494V10.8193C9.46465 10.689 10.113 10.0501 10.113 9.1464" fill="#5235E8"/>
</g>
<defs>
<clipPath id="clip0_751_12499">
<rect width="8" height="8" fill="white" transform="translate(4 4)"/>
</clipPath>
</defs>
</svg>
