<svg width="24" height="24" viewBox="0 0 24 24" fill="none" xmlns="http://www.w3.org/2000/svg">
<rect x="6" y="3" width="12" height="18" rx="2" fill="#5235E8"/>
<path d="M3 17H21C21 19.2091 19.2091 21 17 21H7C4.79086 21 3 19.2091 3 17Z" fill="#DAF727"/>
<path d="M3 7C3 4.79086 4.79086 3 7 3H17C19.2091 3 21 4.79086 21 7H3Z" fill="#D6D1FA"/>
<path d="M9.94157 10.3395C9.94054 10.3637 9.94448 10.3879 9.95314 10.4105C9.9618 10.4332 9.975 10.4538 9.99193 10.4712C10.0089 10.4885 10.0292 10.5022 10.0516 10.5114C10.074 10.5206 10.0981 10.5252 10.1223 10.5248H10.7411C10.8446 10.5248 10.9271 10.44 10.9406 10.3373C11.0081 9.84525 11.3456 9.48675 11.9471 9.48675C12.4616 9.48675 12.9326 9.744 12.9326 10.3628C12.9326 10.839 12.6521 11.058 12.2088 11.391C11.7041 11.7578 11.3043 12.186 11.3328 12.8813L11.3351 13.044C11.3359 13.0932 11.356 13.1401 11.391 13.1746C11.4261 13.2092 11.4734 13.2285 11.5226 13.2285H12.1308C12.1805 13.2285 12.2282 13.2087 12.2634 13.1736C12.2986 13.1384 12.3183 13.0907 12.3183 13.041V12.9623C12.3183 12.4238 12.5231 12.267 13.0758 11.8478C13.5326 11.5005 14.0088 11.115 14.0088 10.3058C14.0088 9.1725 13.0518 8.625 12.0041 8.625C11.0538 8.625 10.0128 9.0675 9.94157 10.3395ZM11.1093 14.6618C11.1093 15.0615 11.4281 15.357 11.8668 15.357C12.3236 15.357 12.6378 15.0615 12.6378 14.6618C12.6378 14.2478 12.3228 13.9568 11.8661 13.9568C11.4281 13.9568 11.1093 14.2478 11.1093 14.6618Z" fill="white"/>
</svg>
