<svg width="24" height="24" viewBox="0 0 24 24" fill="none" xmlns="http://www.w3.org/2000/svg">
<path d="M3.5 14.2L6.3 14.2L6.3 19.2V20.2H3.5L3.5 14.2Z" fill="#5235E8" stroke="white"/>
<path d="M10 14.3C8.88197 14.3 6.5 15.1 6.5 15.1V19.5C6.5 19.5 8.02176 19.7069 9.5 20C11.5168 20.4 14.2351 20.8825 15 20.5C17 19.5 20 17 20 17C20 17 21.0527 16.4054 20.6 15.5C20.1473 14.5946 19 15 19 15L14.9612 16.2036C14.6805 15.7092 13.5653 15.3241 12.5 15C11.4008 14.6656 10.505 14.3 10 14.3Z" fill="#5235E8"/>
<path d="M10 16.6C10 16.6 10.8397 16.7799 11.8339 16.985C14.6797 17.5722 14.716 17.3952 15 16.6C15.0499 16.4604 15.0322 16.3285 14.9612 16.2036M14.9612 16.2036C14.6805 15.7092 13.5653 15.3241 12.5 15C11.4008 14.6656 10.505 14.3 10 14.3C8.88197 14.3 6.5 15.1 6.5 15.1V19.5C6.5 19.5 8.02176 19.7069 9.5 20C11.5168 20.3999 14.2351 20.8825 15 20.5C17 19.5 20 17 20 17C20 17 21.0527 16.4054 20.6 15.5C20.1473 14.5946 19 15 19 15L14.9612 16.2036Z" stroke="white"/>
<path d="M15.4611 13.0608C18.2259 13.0608 20.4915 10.8144 20.4915 8.0304C20.4915 5.26557 18.2451 3 15.4611 3C12.6962 3 10.4307 5.2464 10.4307 8.0304C10.4305 10.8144 12.6769 13.0608 15.4611 13.0608ZM15.4611 3.9984C17.6883 3.9984 19.5123 5.80323 19.5123 8.0496C19.5123 10.2768 17.6883 12.1008 15.4611 12.1008C13.2338 12.1008 11.4099 10.296 11.4099 8.0496C11.4099 5.8032 13.2338 3.9984 15.4611 3.9984Z" fill="black"/>
<circle cx="15.0003" cy="8" r="5.83333" fill="#DAF727"/>
<circle cx="15" cy="8" r="4.75" fill="#5235E8" stroke="white" stroke-width="0.5"/>
<path d="M15.3507 9.60483H14.6403C14.3331 9.60483 14.0836 9.35518 14.0836 9.04809H13.2196C13.2196 9.81603 13.8148 10.4305 14.5636 10.4689L14.5635 11.1984H15.4274V10.4688C16.1762 10.4304 16.7714 9.79672 16.7714 9.04796C16.7714 8.26072 16.1186 7.60796 15.3314 7.60796H14.621C14.3138 7.60796 14.0643 7.35832 14.0643 7.05123C14.0643 6.74399 14.3139 6.49449 14.621 6.49449H15.3314C15.6386 6.49449 15.8881 6.74414 15.8881 7.05123H16.7521C16.7521 6.28329 16.1569 5.66883 15.4081 5.63039V4.90076H14.5442V5.63039C13.7954 5.66883 13.2002 6.30246 13.2002 7.05123C13.2002 7.83846 13.853 8.49123 14.6402 8.49123H15.3506C15.6578 8.49123 15.9073 8.74087 15.9073 9.04796C15.9076 9.35519 15.6579 9.60483 15.3507 9.60483H15.3507Z" fill="white"/>
</svg>
