<svg width="24" height="24" viewBox="0 0 24 24" fill="none" xmlns="http://www.w3.org/2000/svg">
<path d="M21 12C21 17.4 17.049 21 12.1746 21C8.2128 21 5.016 18.8985 3.9 15.6M3 12C3 6.6 6.951 3 11.8254 3C15.7881 3 18.984 5.1015 20.1 8.4" stroke="#DAF727" stroke-width="2" stroke-linecap="round" stroke-linejoin="round"/>
<path d="M7.5 16.5L3.9 15.6L3 19.2M16.5 7.5L20.1 8.4L21 4.8" stroke="#DAF727" stroke-width="2" stroke-linecap="round" stroke-linejoin="round"/>
<path d="M21.0004 12C21.0004 17.4 17.0494 21 12.175 21C8.21319 21 5.01639 18.8985 3.90039 15.6" stroke="#D6D1FA" stroke-width="2" stroke-linecap="round" stroke-linejoin="round"/>
<path d="M7.5 16.5L3.9 15.6L3 19.2" stroke="#D6D1FA" stroke-width="2" stroke-linecap="round" stroke-linejoin="round"/>
<circle cx="12.0003" cy="12" r="5.83333" fill="#DAF727"/>
<circle cx="12" cy="12" r="4.75" fill="#5235E8" stroke="white" stroke-width="0.5"/>
<path d="M12.3507 13.6048H11.6403C11.3331 13.6048 11.0836 13.3552 11.0836 13.0481H10.2196C10.2196 13.816 10.8148 14.4305 11.5636 14.4689L11.5635 15.1984H12.4274V14.4688C13.1762 14.4304 13.7714 13.7967 13.7714 13.048C13.7714 12.2607 13.1186 11.608 12.3314 11.608H11.621C11.3138 11.608 11.0643 11.3583 11.0643 11.0512C11.0643 10.744 11.3139 10.4945 11.621 10.4945H12.3314C12.6386 10.4945 12.8881 10.7441 12.8881 11.0512H13.7521C13.7521 10.2833 13.1569 9.66883 12.4081 9.63039V8.90076H11.5442V9.63039C10.7954 9.66883 10.2002 10.3025 10.2002 11.0512C10.2002 11.8385 10.853 12.4912 11.6402 12.4912H12.3506C12.6578 12.4912 12.9073 12.7409 12.9073 13.048C12.9076 13.3552 12.6579 13.6048 12.3507 13.6048H12.3507Z" fill="white"/>
</svg>
