<svg width="42" height="40" viewBox="0 0 42 40" fill="none" xmlns="http://www.w3.org/2000/svg">
<path d="M21.0001 4C26.7054 4 31.8368 5.34505 35.5175 7.48363C39.2218 9.63584 41.3157 12.4942 41.3157 15.4841C41.3157 18.474 39.2218 21.3324 35.5175 23.4847C31.8368 25.6231 26.7054 26.9682 21.0001 26.9682C15.2949 26.9682 10.1635 25.6231 6.48274 23.4847C2.77844 21.3324 0.68457 18.474 0.68457 15.4841C0.68457 12.4942 2.77844 9.63584 6.48274 7.48363C10.1635 5.34505 15.2949 4 21.0001 4Z" fill="url(#paint0_linear_751_7839)" stroke="url(#paint1_linear_751_7839)"/>
<path fill-rule="evenodd" clip-rule="evenodd" d="M0.00411565 19.5513H0V23.5386C2.28265e-06 25.1753 0.543178 26.7955 1.59854 28.3075C2.65387 29.8192 4.20071 31.1928 6.15075 32.3501C8.10077 33.5071 10.4158 34.425 12.9636 35.0513C15.5114 35.6776 18.2422 35.9998 21 35.9998C23.7578 35.9998 26.4885 35.6776 29.0364 35.0513C31.5841 34.425 33.8991 33.5071 35.8492 32.3501C37.7992 31.1928 39.346 29.8192 40.4015 28.3075C41.4567 26.7955 42 25.1753 42 23.5386V19.5513H41.9959C41.7722 26.3181 32.4576 31.2265 21 31.2265C9.54233 31.2265 0.227842 26.3181 0.00411565 19.5513Z" fill="#DAF727"/>
<g opacity="0.8" filter="url(#filter0_f_751_7839)">
<path d="M19.5389 21.5266L20.0933 22.7404C20.1545 22.8746 20.3173 22.9612 20.4566 22.9342L21.4667 22.738C21.5336 22.7251 21.5861 22.687 21.6128 22.6322C21.6393 22.5774 21.6377 22.5104 21.6082 22.4461L21.0538 21.2324L21.5589 21.1343L22.1131 22.348C22.1745 22.482 22.3373 22.5688 22.4765 22.5418L23.4866 22.3456C23.5535 22.3327 23.6062 22.2946 23.6327 22.2399C23.6592 22.1851 23.6576 22.1181 23.6281 22.0537L23.0739 20.84L23.1586 20.8235C25.1705 20.4325 26.1507 19.15 25.3581 17.4147C24.6918 15.9561 23.3108 15.3564 22.0682 15.4741L22.0291 15.3886C22.9013 14.9633 23.2969 14.1125 22.7575 12.9317C22.0782 11.4439 20.5042 10.7665 18.7316 11.1108L18.6387 11.1288L18.0843 9.91495C18.0549 9.85055 18.0001 9.79396 17.932 9.75765C17.8638 9.7213 17.7879 9.70822 17.721 9.72121L16.711 9.91742C16.644 9.93043 16.5915 9.96847 16.5649 10.0232C16.5383 10.0779 16.5399 10.1449 16.5694 10.2092L17.1237 11.4231L16.545 11.5356L15.9906 10.3217C15.9612 10.2573 15.9064 10.2007 15.8383 10.1644C15.7701 10.128 15.6942 10.1149 15.6272 10.1279L14.691 10.3098C14.624 10.3228 14.5715 10.3609 14.5449 10.4156C14.5184 10.4703 14.52 10.5372 14.5494 10.6017L15.1038 11.8155L13.0907 12.2182C13.0237 12.2312 12.9712 12.2693 12.9446 12.324C12.918 12.3787 12.9197 12.4457 12.9491 12.51L13.3877 13.4705C13.4485 13.6035 13.6097 13.6917 13.749 13.6646L14.5094 13.5116C14.71 13.474 14.9366 13.5141 15.1399 13.6232C15.3432 13.7323 15.5066 13.9014 15.5944 14.0938L18.036 19.4397C18.1242 19.633 18.129 19.8337 18.0493 19.9978C17.9696 20.1619 17.812 20.2761 17.6111 20.3151L16.8605 20.4727C16.7936 20.4857 16.741 20.5237 16.7144 20.5785C16.6879 20.633 16.6895 20.7 16.7189 20.7644L17.1624 21.7355C17.2236 21.8695 17.3864 21.9563 17.5258 21.9293L19.5389 21.5266ZM17.2045 12.9796L18.9407 12.6423C19.8557 12.4646 20.6139 12.8438 20.9749 13.6343C21.3612 14.4801 20.9983 15.0697 19.6833 15.3252L18.3905 15.5763L17.2045 12.9796ZM19.0012 16.9135L20.8596 16.5525C22.0079 16.3294 22.8904 16.7712 23.309 17.688C23.7318 18.6134 23.3197 19.2189 21.7726 19.5195L20.3202 19.8016L19.0016 16.9145L19.0012 16.9135Z" fill="#5235E8" fill-opacity="0.64"/>
</g>
<path d="M14.9394 12.3372L14.9402 12.337L15.6997 12.1842C15.8704 12.1524 16.0633 12.1866 16.2362 12.2794C16.4093 12.3723 16.5485 12.5164 16.6233 12.6802L19.0649 18.0262C19.14 18.1907 19.1441 18.3617 19.0762 18.5016C19.0084 18.6415 18.8741 18.7387 18.7029 18.7719L18.7013 18.7723L17.9524 18.9294C17.9521 18.9295 17.9518 18.9295 17.9515 18.9296C17.8552 18.9485 17.7796 19.0034 17.7414 19.0822C17.703 19.1612 17.7053 19.2579 17.7478 19.3509L18.1913 20.322C18.2797 20.5157 18.5148 20.6409 18.7162 20.6019L18.7168 20.6016L20.6173 20.2215L21.1223 21.3271C21.2106 21.5206 21.4457 21.646 21.647 21.6067L22.6571 21.4106C22.7537 21.3919 22.8297 21.3369 22.868 21.2577C22.9064 21.1787 22.9041 21.0821 22.8616 20.989L22.3565 19.8832L22.637 19.8286L23.1422 20.9344C23.2305 21.1282 23.4656 21.2536 23.667 21.2144L24.677 21.0182C24.7738 20.9993 24.8496 20.9445 24.8879 20.8653C24.9263 20.7863 24.924 20.6897 24.8815 20.5966L24.3764 19.4906C25.3869 19.2894 26.1498 18.8636 26.5595 18.2587C26.9752 17.6457 27.0222 16.8569 26.6113 15.9575C26.2667 15.2026 25.7323 14.662 25.1162 14.3269C24.6022 14.0474 24.0383 13.9146 23.4907 13.9143C23.8192 13.7006 24.0614 13.4141 24.1819 13.0597C24.3307 12.6213 24.2906 12.087 24.0109 11.4745C23.6578 10.7014 23.0675 10.1313 22.3298 9.80212C21.6005 9.47671 20.7409 9.39293 19.8428 9.56385L19.3377 8.45781C19.2952 8.36481 19.216 8.28308 19.1176 8.23062C19.0192 8.17812 18.9095 8.1592 18.8128 8.17798L17.8028 8.37419C17.7061 8.39297 17.6302 8.44795 17.5918 8.527C17.5535 8.60605 17.5558 8.70271 17.5982 8.79573L18.1034 9.90169L17.7491 9.97053L17.244 8.86454C17.2015 8.77154 17.1223 8.68981 17.0239 8.63732C16.9255 8.58485 16.8158 8.56593 16.7191 8.58471L15.7828 8.76659C15.6861 8.78539 15.6102 8.84035 15.5718 8.9194C15.5335 8.99845 15.5358 9.09513 15.5783 9.18813L16.0836 10.2947L14.1825 10.675L14.2318 10.7829L14.1819 10.6751L14.1822 10.6751C14.0856 10.6939 14.0099 10.7488 13.9715 10.8278C13.9332 10.9069 13.9355 11.0035 13.978 11.0965L14.4166 12.0569C14.5039 12.2482 14.7366 12.3766 14.9394 12.3372ZM19.5945 14.0113L18.5071 11.6304L20.1311 11.3149C20.5687 11.2299 20.9546 11.2806 21.267 11.4341C21.5779 11.5867 21.8344 11.8499 22.0038 12.2207C22.1851 12.6177 22.1853 12.9391 22.0013 13.1928C21.8132 13.4521 21.4217 13.6563 20.7751 13.782L19.5945 14.0113ZM20.3038 15.5643L22.0499 15.2251C22.6062 15.1171 23.0821 15.1731 23.4615 15.3527C23.8384 15.5311 24.1399 15.8407 24.3378 16.2744C24.5371 16.7107 24.5339 17.054 24.3159 17.3268C24.092 17.6069 23.63 17.8275 22.8644 17.9762L21.5242 18.2366L20.3038 15.5643Z" fill="white" stroke="#8D79F1" stroke-width="0.25"/>
<defs>
<filter id="filter0_f_751_7839" x="8.92578" y="5.71631" width="20.707" height="21.2227" filterUnits="userSpaceOnUse" color-interpolation-filters="sRGB">
<feFlood flood-opacity="0" result="BackgroundImageFix"/>
<feBlend mode="normal" in="SourceGraphic" in2="BackgroundImageFix" result="shape"/>
<feGaussianBlur stdDeviation="2" result="effect1_foregroundBlur_751_7839"/>
</filter>
<linearGradient id="paint0_linear_751_7839" x1="42.6113" y1="4.86848" x2="-0.621053" y2="19.9243" gradientUnits="userSpaceOnUse">
<stop stop-color="#5235E8"/>
<stop offset="1" stop-color="#816CEF"/>
</linearGradient>
<linearGradient id="paint1_linear_751_7839" x1="9.39266" y1="3.28224" x2="36.4407" y2="22.3823" gradientUnits="userSpaceOnUse">
<stop stop-color="#B0A3F5"/>
<stop offset="1" stop-color="#917FF1"/>
</linearGradient>
</defs>
</svg>
