<svg width="30" height="22" viewBox="0 0 30 22" fill="none" xmlns="http://www.w3.org/2000/svg">
<path d="M2.80031 19.32C4.08031 21.08 5.84031 21.96 8.00031 21.96C9.76031 21.96 11.2803 21.48 12.4003 20.44C13.5203 19.4 14.0803 18.12 14.0803 16.52C14.0803 14.92 13.6003 13.64 12.7203 12.76C11.8403 11.88 10.7203 11.4 9.36031 11.4C8.24031 11.4 7.36031 11.72 6.72031 12.2C6.64031 12.04 6.64031 11.64 6.64031 11.16C6.64031 9.56 7.20031 8.2 8.40031 7C9.52031 5.88 11.2803 5.24 13.6803 5.16V0.519998C9.68031 0.599997 6.48031 1.72 4.24031 3.8C1.92031 5.96 0.800313 8.92 0.800313 12.76C0.800313 15.4 1.44031 17.56 2.80031 19.32ZM18.1603 19.32C19.4403 21.08 21.2003 21.96 23.3603 21.96C25.1203 21.96 26.6403 21.48 27.7603 20.44C28.8803 19.4 29.4403 18.12 29.4403 16.52C29.4403 14.92 28.9603 13.64 28.0803 12.76C27.2003 11.88 26.0803 11.4 24.7203 11.4C23.6003 11.4 22.7203 11.72 22.0803 12.2C22.0003 12.04 22.0003 11.64 22.0003 11.16C22.0003 9.56 22.5603 8.2 23.7603 7C24.8803 5.88 26.6403 5.24 29.0403 5.16V0.519998C25.0403 0.599997 21.8403 1.72 19.6003 3.8C17.2803 5.96 16.1603 8.92 16.1603 12.76C16.1603 15.4 16.8003 17.56 18.1603 19.32Z" fill="#5235E8"/>
</svg>
