<svg width="24" height="24" viewBox="0 0 24 24" fill="none" xmlns="http://www.w3.org/2000/svg">
<path d="M12.4993 4C14.8086 4 16.8856 4.53592 18.3754 5.38801C19.8748 6.24554 20.7223 7.3844 20.7223 8.5757C20.7223 9.767 19.8748 10.9059 18.3754 11.7634C16.8856 12.6155 14.8086 13.1514 12.4993 13.1514C10.1901 13.1514 8.11308 12.6155 6.62325 11.7634C5.12389 10.9059 4.27637 9.767 4.27637 8.5757C4.27637 7.3844 5.12389 6.24554 6.62325 5.38801C8.11308 4.53592 10.1901 4 12.4993 4Z" fill="#5235E8" stroke="#DAF727"/>
<path fill-rule="evenodd" clip-rule="evenodd" d="M4.00167 10.5H4V12.0887C4 12.7408 4.21986 13.3864 4.64703 13.9888C5.07419 14.5911 5.70029 15.1384 6.48959 15.5995C7.27888 16.0605 8.21591 16.4263 9.24718 16.6758C10.2784 16.9254 11.3837 17.0537 12.5 17.0537C13.6162 17.0537 14.7215 16.9254 15.7528 16.6758C16.784 16.4263 17.7211 16.0605 18.5104 15.5995C19.2997 15.1384 19.9258 14.5911 20.353 13.9888C20.7801 13.3864 21 12.7408 21 12.0887V10.5H20.9983C20.9078 13.1962 17.1376 15.1519 12.5 15.1519C7.86237 15.1519 4.09222 13.1962 4.00167 10.5Z" fill="#D6D1FA"/>
<path fill-rule="evenodd" clip-rule="evenodd" d="M4.00167 14.01H4V15.5987C4 16.2508 4.21986 16.8964 4.64703 17.4988C5.07419 18.1011 5.70029 18.6484 6.48959 19.1095C7.27888 19.5705 8.21591 19.9363 9.24718 20.1858C10.2784 20.4354 11.3837 20.5637 12.5 20.5637C13.6162 20.5637 14.7215 20.4354 15.7528 20.1858C16.784 19.9363 17.7211 19.5705 18.5104 19.1095C19.2997 18.6484 19.9258 18.1011 20.353 17.4988C20.7801 16.8964 21 16.2508 21 15.5987V14.01H20.9983C20.9078 16.7062 17.1376 18.6619 12.5 18.6619C7.86237 18.6619 4.09222 16.7062 4.00167 14.01Z" fill="#5235E8"/>
<g opacity="0.8" filter="url(#filter0_f_631_10180)">
<path d="M11.9082 10.9833L12.1326 11.4669C12.1573 11.5204 12.2232 11.5549 12.2796 11.5441L12.6885 11.4659C12.7155 11.4608 12.7368 11.4456 12.7476 11.4238C12.7583 11.402 12.7577 11.3753 12.7458 11.3496L12.5213 10.866L12.7258 10.827L12.9501 11.3105C12.975 11.3639 13.0409 11.3985 13.0972 11.3878L13.5061 11.3096C13.5331 11.3044 13.5545 11.2893 13.5652 11.2675C13.5759 11.2456 13.5753 11.2189 13.5633 11.1933L13.339 10.7097L13.3733 10.7031C14.1876 10.5474 14.5844 10.0364 14.2636 9.34492C13.9939 8.76376 13.4349 8.52481 12.9319 8.57171L12.9161 8.53766C13.2692 8.3682 13.4293 8.02923 13.211 7.55873C12.936 6.96596 12.2989 6.69602 11.5814 6.83322L11.5438 6.8404L11.3194 6.35675C11.3075 6.33109 11.2853 6.30854 11.2578 6.29407C11.2302 6.27959 11.1995 6.27438 11.1723 6.27955L10.7635 6.35773C10.7364 6.36292 10.7152 6.37808 10.7044 6.39989C10.6937 6.42169 10.6943 6.44835 10.7062 6.474L10.9306 6.95766L10.6964 7.00246L10.472 6.5188C10.4601 6.49314 10.4379 6.4706 10.4103 6.45613C10.3827 6.44165 10.352 6.43643 10.3249 6.44161L9.94593 6.51408C9.91883 6.51926 9.89756 6.53443 9.88681 6.55623C9.87606 6.57803 9.8767 6.6047 9.88861 6.63036L10.113 7.11401L9.29819 7.27447C9.27108 7.27964 9.24981 7.29481 9.23906 7.31661C9.22831 7.33842 9.22897 7.36508 9.24087 7.39074L9.41841 7.77341C9.443 7.82641 9.50825 7.86154 9.56467 7.85075L9.87242 7.78979C9.95362 7.77482 10.0454 7.7908 10.1277 7.83426C10.2099 7.87772 10.2761 7.94512 10.3116 8.02174L11.2999 10.1518C11.3356 10.2288 11.3375 10.3088 11.3053 10.3742C11.273 10.4395 11.2092 10.485 11.1279 10.5006L10.8241 10.5634C10.797 10.5685 10.7757 10.5837 10.765 10.6055C10.7542 10.6272 10.7549 10.6539 10.7668 10.6796L10.9463 11.0665C10.971 11.1199 11.0369 11.1545 11.0934 11.1437L11.9082 10.9833ZM10.9633 7.57782L11.666 7.44343C12.0364 7.37261 12.3433 7.52371 12.4894 7.83867C12.6458 8.17568 12.4989 8.41061 11.9666 8.51239L11.4433 8.61246L10.9633 7.57782ZM11.6905 9.14525L12.4427 9.00141C12.9075 8.91253 13.2647 9.08856 13.4342 9.45382C13.6053 9.82255 13.4385 10.0638 12.8123 10.1836L12.2244 10.296L11.6907 9.14564L11.6905 9.14525Z" fill="#5235E8" fill-opacity="0.64"/>
</g>
<path d="M10.0463 7.32176L10.0466 7.3217L10.3541 7.2608C10.4232 7.24814 10.5012 7.26178 10.5712 7.29874C10.6413 7.33576 10.6976 7.39318 10.7279 7.45845L11.7161 9.58847C11.7466 9.65404 11.7482 9.72218 11.7208 9.77791C11.6933 9.83363 11.6389 9.87238 11.5697 9.88562L11.569 9.88576L11.2659 9.94835C11.2657 9.94838 11.2656 9.9484 11.2655 9.94843C11.2265 9.95598 11.1959 9.97785 11.1804 10.0092C11.1649 10.0407 11.1659 10.0792 11.1831 10.1163L11.3626 10.5032C11.3984 10.5804 11.4935 10.6303 11.575 10.6147L11.5753 10.6146L12.3445 10.4632L12.5489 10.9037C12.5847 10.9808 12.6798 11.0307 12.7613 11.0151L13.1702 10.9369C13.2092 10.9295 13.24 10.9076 13.2555 10.876C13.271 10.8446 13.2701 10.8061 13.2529 10.769L13.0485 10.3284L13.162 10.3066L13.3665 10.7472C13.4022 10.8245 13.4974 10.8744 13.5789 10.8588L13.9877 10.7806C14.0269 10.7731 14.0576 10.7512 14.0731 10.7197C14.0886 10.6882 14.0877 10.6497 14.0705 10.6126L13.8661 10.172C14.2751 10.0918 14.5839 9.92214 14.7497 9.68114C14.9179 9.43689 14.937 9.12258 14.7707 8.76426C14.6312 8.46346 14.4149 8.24806 14.1655 8.11453C13.9574 8.00317 13.7292 7.95026 13.5076 7.95013C13.6405 7.86502 13.7386 7.75084 13.7873 7.60964C13.8476 7.43496 13.8313 7.2221 13.7181 6.97805C13.5752 6.67002 13.3363 6.44284 13.0377 6.3117C12.7425 6.18204 12.3945 6.14866 12.031 6.21676L11.8266 5.77607C11.8094 5.73902 11.7773 5.70646 11.7375 5.68555C11.6977 5.66464 11.6533 5.6571 11.6141 5.66458L11.2053 5.74276C11.1662 5.75024 11.1354 5.77215 11.1199 5.80364C11.1044 5.83514 11.1053 5.87365 11.1225 5.91071L11.327 6.35137L11.1836 6.3788L10.9791 5.93813C10.9619 5.90108 10.9299 5.86851 10.89 5.8476C10.8502 5.82669 10.8058 5.81915 10.7667 5.82664L10.3877 5.8991C10.3486 5.9066 10.3178 5.92849 10.3023 5.95999C10.2868 5.99149 10.2877 6.03001 10.3049 6.06706L10.5095 6.50796L9.73996 6.65949L9.75991 6.70248L9.73971 6.65954L9.73982 6.65951C9.70074 6.66702 9.67007 6.68891 9.65456 6.72038C9.63903 6.75187 9.63997 6.79038 9.65717 6.82744L9.8347 7.21011C9.87005 7.28629 9.96424 7.33746 10.0463 7.32176ZM11.9305 7.9888L11.4904 7.04014L12.1477 6.91444C12.3249 6.88057 12.481 6.9008 12.6075 6.96194C12.7333 7.02274 12.8372 7.1276 12.9057 7.27537C12.9791 7.43354 12.9792 7.56159 12.9047 7.66269C12.8286 7.76598 12.6701 7.84737 12.4084 7.89742L11.9305 7.9888ZM12.2176 8.60758L12.9244 8.47242C13.1495 8.42937 13.3422 8.4517 13.4957 8.52327C13.6483 8.59436 13.7703 8.7177 13.8504 8.89052C13.9311 9.06433 13.9298 9.20113 13.8416 9.30981C13.7509 9.42143 13.5639 9.50932 13.254 9.56858L12.7116 9.67231L12.2176 8.60758Z" fill="white" stroke="#8D79F1" stroke-width="0.25"/>
<defs>
<filter id="filter0_f_631_10180" x="5.23145" y="2.2776" width="13.1436" height="13.2685" filterUnits="userSpaceOnUse" color-interpolation-filters="sRGB">
<feFlood flood-opacity="0" result="BackgroundImageFix"/>
<feBlend mode="normal" in="SourceGraphic" in2="BackgroundImageFix" result="shape"/>
<feGaussianBlur stdDeviation="2" result="effect1_foregroundBlur_631_10180"/>
</filter>
</defs>
</svg>
