<svg width="148" height="20" viewBox="0 0 148 20" fill="none" xmlns="http://www.w3.org/2000/svg">
<path d="M10.4344 2.0958L10.4344 2.09604L11.7298 6.25713L11.73 6.25778C11.8545 6.65633 12.0982 7.00932 12.4323 7.26267L12.8854 6.66508L12.4323 7.26267C12.7669 7.51643 13.174 7.65604 13.5954 7.65637H13.596H17.7872C17.9912 7.65637 18.1529 7.77961 18.2223 8.00276C18.2923 8.22811 18.2327 8.45457 18.0452 8.59707C18.0452 8.59709 18.0452 8.5971 18.0452 8.59711L14.6564 11.1673C14.6563 11.1674 14.6562 11.1675 14.656 11.1676C14.3215 11.4212 14.0775 11.7746 13.953 12.1737C13.8286 12.5727 13.8284 13.0017 13.9524 13.4009L13.9525 13.4013L15.2479 17.5624L15.248 17.5628C15.328 17.8193 15.2327 18.0327 15.0712 18.1552C14.9146 18.274 14.7294 18.2888 14.5528 18.155C14.5528 18.155 14.5528 18.155 14.5527 18.1549L11.1631 15.5841L11.1629 15.5839C10.828 15.33 10.4204 15.1905 9.99864 15.1905C9.57683 15.1905 9.1693 15.33 8.83433 15.5839L8.83417 15.5841L5.44442 18.155L5.44418 18.1552C5.26841 18.2886 5.08421 18.274 4.92785 18.1554C4.76646 18.0329 4.67081 17.819 4.75068 17.5621L6.04598 13.4013L6.0461 13.4009C6.17011 13.0017 6.16989 12.5727 6.04546 12.1737C5.92101 11.7746 5.67699 11.4212 5.34239 11.1676C5.34228 11.1675 5.34216 11.1674 5.34204 11.1673L1.95451 8.59838C1.95446 8.59834 1.95441 8.5983 1.95436 8.59826C1.76726 8.45595 1.70762 8.22974 1.7778 8.00423C1.84738 7.78063 2.00935 7.65763 2.21252 7.65763H6.40228C6.40235 7.65763 6.40241 7.65763 6.40248 7.65763C6.82419 7.6577 7.23167 7.51829 7.56663 7.26454L7.11375 6.66671L7.56663 7.26454C7.90112 7.01115 8.14512 6.65791 8.26969 6.25904L8.26989 6.2584L9.56525 2.0973L9.57819 2.05574C9.74325 1.63391 10.2957 1.64981 10.4344 2.0958Z" fill="#5235E8" stroke="#5235E8" stroke-width="1.5"/>
<path d="M42.4344 2.0958L42.4344 2.09604L43.7298 6.25713L43.73 6.25778C43.8545 6.65633 44.0982 7.00932 44.4323 7.26267L44.8854 6.66508L44.4323 7.26267C44.7669 7.51643 45.174 7.65604 45.5954 7.65637H45.596H49.7872C49.9912 7.65637 50.1529 7.77961 50.2223 8.00276C50.2923 8.22811 50.2327 8.45457 50.0452 8.59707C50.0452 8.59709 50.0452 8.5971 50.0452 8.59711L46.6564 11.1673C46.6563 11.1674 46.6562 11.1675 46.656 11.1676C46.3215 11.4212 46.0775 11.7746 45.953 12.1737C45.8286 12.5727 45.8284 13.0017 45.9524 13.4009L45.9525 13.4013L47.2479 17.5624L47.248 17.5628C47.328 17.8193 47.2327 18.0327 47.0712 18.1552C46.9146 18.274 46.7294 18.2888 46.5528 18.155C46.5528 18.155 46.5528 18.155 46.5527 18.1549L43.1631 15.5841L43.1629 15.5839C42.828 15.33 42.4204 15.1905 41.9986 15.1905C41.5768 15.1905 41.1693 15.33 40.8343 15.5839L40.8342 15.5841L37.4444 18.155L37.4442 18.1552C37.2684 18.2886 37.0842 18.274 36.9279 18.1554C36.7665 18.0329 36.6708 17.819 36.7507 17.5621L38.046 13.4013L38.0461 13.4009C38.1701 13.0017 38.1699 12.5727 38.0455 12.1737C37.921 11.7746 37.677 11.4212 37.3424 11.1676C37.3423 11.1675 37.3422 11.1674 37.342 11.1673L33.9545 8.59838C33.9545 8.59834 33.9544 8.5983 33.9544 8.59826C33.7673 8.45595 33.7076 8.22974 33.7778 8.00423C33.8474 7.78063 34.0093 7.65763 34.2125 7.65763H38.4023C38.4023 7.65763 38.4024 7.65763 38.4025 7.65763C38.8242 7.6577 39.2317 7.51829 39.5666 7.26454L39.1138 6.66671L39.5666 7.26454C39.9011 7.01115 40.1451 6.65791 40.2697 6.25904L40.2699 6.2584L41.5653 2.0973L41.5782 2.05574C41.7432 1.63391 42.2957 1.64981 42.4344 2.0958Z" fill="#5235E8" stroke="#5235E8" stroke-width="1.5"/>
<path d="M74.4344 2.0958L74.4344 2.09604L75.7298 6.25713L75.73 6.25778C75.8545 6.65633 76.0982 7.00932 76.4323 7.26267L76.8854 6.66508L76.4323 7.26267C76.7669 7.51643 77.174 7.65604 77.5954 7.65637H77.596H81.7872C81.9912 7.65637 82.1529 7.77961 82.2223 8.00276C82.2923 8.22811 82.2327 8.45457 82.0452 8.59707C82.0452 8.59709 82.0452 8.5971 82.0452 8.59711L78.6564 11.1673C78.6563 11.1674 78.6562 11.1675 78.656 11.1676C78.3215 11.4212 78.0775 11.7746 77.953 12.1737C77.8286 12.5727 77.8284 13.0017 77.9524 13.4009L77.9525 13.4013L79.2479 17.5624L79.248 17.5628C79.328 17.8193 79.2327 18.0327 79.0712 18.1552C78.9146 18.274 78.7294 18.2888 78.5528 18.155C78.5528 18.155 78.5528 18.155 78.5527 18.1549L75.1631 15.5841L75.1629 15.5839C74.828 15.33 74.4204 15.1905 73.9986 15.1905C73.5768 15.1905 73.1693 15.33 72.8343 15.5839L72.8342 15.5841L69.4444 18.155L69.4442 18.1552C69.2684 18.2886 69.0842 18.274 68.9279 18.1554C68.7665 18.0329 68.6708 17.819 68.7507 17.5621L70.046 13.4013L70.0461 13.4009C70.1701 13.0017 70.1699 12.5727 70.0455 12.1737C69.921 11.7746 69.677 11.4212 69.3424 11.1676C69.3423 11.1675 69.3422 11.1674 69.342 11.1673L65.9545 8.59838C65.9545 8.59834 65.9544 8.5983 65.9544 8.59826C65.7673 8.45595 65.7076 8.22974 65.7778 8.00423C65.8474 7.78063 66.0093 7.65763 66.2125 7.65763H70.4023C70.4023 7.65763 70.4024 7.65763 70.4025 7.65763C70.8242 7.6577 71.2317 7.51829 71.5666 7.26454L71.1138 6.66671L71.5666 7.26454C71.9011 7.01115 72.1451 6.65791 72.2697 6.25904L72.2699 6.2584L73.5653 2.0973L73.5782 2.05574C73.7432 1.63391 74.2957 1.64981 74.4344 2.0958Z" fill="#5235E8" stroke="#5235E8" stroke-width="1.5"/>
<path d="M106.434 2.0958L106.434 2.09604L107.73 6.25713L107.73 6.25778C107.854 6.65633 108.098 7.00932 108.432 7.26267L108.885 6.66508L108.432 7.26267C108.767 7.51643 109.174 7.65604 109.595 7.65637H109.596H113.787C113.991 7.65637 114.153 7.77961 114.222 8.00276C114.292 8.22811 114.233 8.45457 114.045 8.59707C114.045 8.59709 114.045 8.5971 114.045 8.59711L110.656 11.1673C110.656 11.1674 110.656 11.1675 110.656 11.1676C110.321 11.4212 110.077 11.7746 109.953 12.1737C109.829 12.5727 109.828 13.0017 109.952 13.4009L109.953 13.4013L111.248 17.5624L111.248 17.5628C111.328 17.8193 111.233 18.0327 111.071 18.1552C110.915 18.274 110.729 18.2888 110.553 18.155C110.553 18.155 110.553 18.155 110.553 18.1549L107.163 15.5841L107.163 15.5839C106.828 15.33 106.42 15.1905 105.999 15.1905C105.577 15.1905 105.169 15.33 104.834 15.5839L104.834 15.5841L101.444 18.155L101.444 18.1552C101.268 18.2886 101.084 18.274 100.928 18.1554C100.766 18.0329 100.671 17.819 100.751 17.5621L102.046 13.4013L102.046 13.4009C102.17 13.0017 102.17 12.5727 102.045 12.1737C101.921 11.7746 101.677 11.4212 101.342 11.1676C101.342 11.1675 101.342 11.1674 101.342 11.1673L97.9545 8.59838C97.9545 8.59834 97.9544 8.5983 97.9544 8.59826C97.7673 8.45595 97.7076 8.22974 97.7778 8.00423C97.8474 7.78063 98.0093 7.65763 98.2125 7.65763H102.402C102.402 7.65763 102.402 7.65763 102.402 7.65763C102.824 7.6577 103.232 7.51829 103.567 7.26454L103.114 6.66671L103.567 7.26454C103.901 7.01115 104.145 6.65791 104.27 6.25904L104.27 6.2584L105.565 2.0973L105.578 2.05574C105.743 1.63391 106.296 1.64981 106.434 2.0958Z" fill="#5235E8" stroke="#5235E8" stroke-width="1.5"/>
<path d="M138.434 2.0958L138.434 2.09604L139.73 6.25713L139.73 6.25778C139.854 6.65633 140.098 7.00932 140.432 7.26267L140.885 6.66508L140.432 7.26267C140.767 7.51643 141.174 7.65604 141.595 7.65637H141.596H145.787C145.991 7.65637 146.153 7.77961 146.222 8.00276C146.292 8.22811 146.233 8.45457 146.045 8.59707C146.045 8.59709 146.045 8.5971 146.045 8.59711L142.656 11.1673C142.656 11.1674 142.656 11.1675 142.656 11.1676C142.321 11.4212 142.077 11.7746 141.953 12.1737C141.829 12.5727 141.828 13.0017 141.952 13.4009L141.953 13.4013L143.248 17.5624L143.248 17.5628C143.328 17.8193 143.233 18.0327 143.071 18.1552C142.915 18.274 142.729 18.2888 142.553 18.155C142.553 18.155 142.553 18.155 142.553 18.1549L139.163 15.5841L139.163 15.5839C138.828 15.33 138.42 15.1905 137.999 15.1905C137.577 15.1905 137.169 15.33 136.834 15.5839L136.834 15.5841L133.444 18.155L133.444 18.1552C133.268 18.2886 133.084 18.274 132.928 18.1554C132.766 18.0329 132.671 17.819 132.751 17.5621L134.046 13.4013L134.046 13.4009C134.17 13.0017 134.17 12.5727 134.045 12.1737C133.921 11.7746 133.677 11.4212 133.342 11.1676C133.342 11.1675 133.342 11.1674 133.342 11.1673L129.955 8.59838C129.954 8.59834 129.954 8.5983 129.954 8.59826C129.767 8.45595 129.708 8.22974 129.778 8.00423C129.847 7.78063 130.009 7.65763 130.213 7.65763H134.402C134.402 7.65763 134.402 7.65763 134.402 7.65763C134.824 7.6577 135.232 7.51829 135.567 7.26454L135.114 6.66671L135.567 7.26454C135.901 7.01115 136.145 6.65791 136.27 6.25904L136.27 6.2584L137.565 2.0973L137.578 2.05574C137.743 1.63391 138.296 1.64981 138.434 2.0958Z" fill="#5235E8" stroke="#5235E8" stroke-width="1.5"/>
</svg>
