<svg width="544" height="250" viewBox="0 0 544 250" fill="none" xmlns="http://www.w3.org/2000/svg">
<g clip-path="url(#clip0_751_12441)">
<path d="M91.6493 217.528L90 214.695V250H496V142.589L492.427 140.786L489.128 148.769L484.73 146.451H476.483L473.735 147.997L467.412 145.164L460.815 147.997L458.066 145.164L456.417 146.451L451.744 138.983L446.796 143.876H438.825L430.578 134.863L424.531 142.589L420.133 137.181L414.36 134.863L408.588 137.181L403.915 142.589L401.441 134.863L396.493 137.181L391.82 131L388.796 138.983L386.047 134.863L382.199 146.451L376.701 150.057L371.204 146.451L365.706 150.057L363.507 147.997L357.735 156.752L355.261 154.95L352.512 164.993L349.763 162.16L348.664 167.311L340.967 158.04L335.744 147.997L334.095 169.371L331.071 167.311L325.573 184.05L322 188.17L320.626 185.08L316.502 197.699L311.555 200.274L308.256 217.528L302.483 212.635V220.361L291.213 200.274L286.54 195.896L282.142 205.424L279.393 200.274L276.095 207.485H270.322L257.128 191.261L250.531 200.274L242.834 195.896L237.062 200.274L229.915 193.321L224.692 195.896L222.493 189.458L218.37 195.896L215.346 193.321L210.673 209.287L207.1 205.424L204.9 217.528L199.678 209.287L196.929 203.107L192.531 217.528L190.057 189.458L182.635 181.732L177.412 178.642L174.114 181.732L171.365 176.839L160.37 195.896L154.872 203.107L148.275 200.274V205.424L143.602 200.274L138.104 212.635H136.18L129.583 217.528L126.559 212.635L118.863 223.966V235.297L113.365 217.528L108.692 207.485L103.469 212.635L97.4218 207.485L91.6493 217.528Z" fill="url(#paint0_linear_751_12441)" fill-opacity="0.2"/>
<path d="M90 214.695L91.6493 217.528L97.4218 207.485L103.469 212.635L108.692 207.485L113.365 217.528L118.863 235.297V223.966L126.559 212.635L129.583 217.528L136.18 212.635H138.104L143.602 200.274L148.275 205.425V200.274L154.872 203.107L160.37 195.896L171.365 176.839L174.114 181.732L177.412 178.642L182.635 181.732L190.057 189.458L192.531 217.528L196.929 203.107L199.678 209.287L204.9 217.528L207.1 205.425L210.673 209.287L215.346 193.321L218.37 195.896L222.493 189.458L224.692 195.896L229.915 193.321L237.062 200.274L242.834 195.896L250.531 200.274L257.128 191.261L270.322 207.485H276.095L279.393 200.274L282.142 205.425L286.54 195.896L291.213 200.274L302.483 220.361V212.635L308.256 217.528L311.554 200.274L316.502 197.699L320.626 185.08L322 188.17L325.573 184.05L331.071 167.311L334.095 169.371L335.744 147.997L340.967 158.04L348.664 167.311L349.763 162.16L352.512 164.993L355.261 154.95L357.735 156.752L363.507 147.997L365.706 150.057L371.204 146.451L376.701 150.057L382.199 146.451L386.047 134.863L388.796 138.983L391.82 131L396.493 137.181L401.441 134.863L403.915 142.589L408.588 137.181L414.36 134.863L420.133 137.181L424.531 142.589L430.578 134.863L438.825 143.876H446.796L451.744 138.983L456.417 146.451L458.066 145.164L460.815 147.997L467.412 145.164L473.735 147.997L476.483 146.451H484.73L489.128 148.769L492.427 140.786L496 142.589" stroke="#5235E8" stroke-width="2"/>
<path d="M54.444 75.8C54.66 75.44 54.78 75.044 54.78 74.6C54.78 73.868 54.528 73.34 54.024 73.004C53.52 72.668 52.848 72.428 52.008 72.284C51.48 72.2 51.06 72.116 50.76 72.02C50.448 71.924 50.208 71.792 50.016 71.612C49.824 71.432 49.728 71.18 49.728 70.856C49.728 70.424 49.884 70.076 50.22 69.836C50.544 69.596 50.988 69.464 51.552 69.464C52.104 69.464 52.572 69.62 52.956 69.908C53.328 70.208 53.544 70.604 53.616 71.084H54.648C54.6 70.412 54.36 69.86 53.916 69.404C53.46 68.948 52.884 68.672 52.164 68.564V67.304H51.252V68.528C50.484 68.588 49.86 68.828 49.392 69.26C48.912 69.692 48.684 70.244 48.684 70.916C48.684 71.66 48.924 72.188 49.428 72.512C49.92 72.848 50.592 73.076 51.432 73.22C51.96 73.316 52.368 73.4 52.68 73.496C52.992 73.592 53.244 73.724 53.436 73.916C53.628 74.108 53.736 74.372 53.736 74.696C53.736 75.152 53.556 75.5 53.196 75.752C52.836 76.004 52.38 76.124 51.804 76.124C51.156 76.124 50.628 75.956 50.22 75.62C49.8 75.284 49.572 74.828 49.536 74.252H48.504C48.528 75.02 48.792 75.644 49.272 76.148C49.752 76.652 50.412 76.952 51.252 77.048V78.284H52.164V77.06C52.668 77.024 53.124 76.892 53.52 76.676C53.916 76.46 54.228 76.16 54.444 75.8ZM58.3491 68.6H57.3651V69.608C57.3651 69.824 57.3051 70.004 57.2091 70.136C57.1131 70.268 56.9691 70.328 56.7771 70.328H55.4091V71.228H56.7651C57.0291 71.228 57.2211 71.18 57.3411 71.072V77H58.3491V68.6ZM59.8637 72.608V72.992C59.8637 73.82 59.9957 74.54 60.2597 75.152C60.5237 75.776 60.9077 76.244 61.3877 76.58C61.8677 76.916 62.4197 77.072 63.0557 77.072C63.6797 77.072 64.2317 76.916 64.7117 76.58C65.1917 76.244 65.5637 75.776 65.8277 75.152C66.0917 74.54 66.2357 73.82 66.2357 72.992V72.608C66.2357 71.816 66.0917 71.12 65.8277 70.496C65.5637 69.884 65.1797 69.404 64.6997 69.056C64.2197 68.708 63.6677 68.528 63.0557 68.528C62.4317 68.528 61.8677 68.708 61.3877 69.056C60.9077 69.404 60.5237 69.884 60.2597 70.496C59.9957 71.12 59.8637 71.816 59.8637 72.608ZM64.9397 70.94C65.1197 71.42 65.2157 71.996 65.2157 72.644V72.956C65.2157 73.616 65.1197 74.18 64.9397 74.66C64.7597 75.14 64.5077 75.512 64.1837 75.764C63.8597 76.028 63.4877 76.148 63.0557 76.148C62.6237 76.148 62.2397 76.028 61.9157 75.764C61.5797 75.512 61.3277 75.14 61.1477 74.66C60.9677 74.18 60.8837 73.616 60.8837 72.956V72.644C60.8837 71.996 60.9677 71.42 61.1477 70.94C61.3277 70.46 61.5797 70.1 61.9157 69.836C62.2397 69.584 62.6237 69.452 63.0557 69.452C63.4877 69.452 63.8597 69.584 64.1837 69.836C64.5077 70.1 64.7597 70.46 64.9397 70.94ZM67.5317 68.6V77H68.5157V75.38L69.7397 74.096L71.7797 77H72.9677L70.4477 73.388L72.7997 70.88H71.6237L68.5157 74.168V68.6H67.5317Z" fill="#717184"/>
<path d="M54.444 123.8C54.66 123.44 54.78 123.044 54.78 122.6C54.78 121.868 54.528 121.34 54.024 121.004C53.52 120.668 52.848 120.428 52.008 120.284C51.48 120.2 51.06 120.116 50.76 120.02C50.448 119.924 50.208 119.792 50.016 119.612C49.824 119.432 49.728 119.18 49.728 118.856C49.728 118.424 49.884 118.076 50.22 117.836C50.544 117.596 50.988 117.464 51.552 117.464C52.104 117.464 52.572 117.62 52.956 117.908C53.328 118.208 53.544 118.604 53.616 119.084H54.648C54.6 118.412 54.36 117.86 53.916 117.404C53.46 116.948 52.884 116.672 52.164 116.564V115.304H51.252V116.528C50.484 116.588 49.86 116.828 49.392 117.26C48.912 117.692 48.684 118.244 48.684 118.916C48.684 119.66 48.924 120.188 49.428 120.512C49.92 120.848 50.592 121.076 51.432 121.22C51.96 121.316 52.368 121.4 52.68 121.496C52.992 121.592 53.244 121.724 53.436 121.916C53.628 122.108 53.736 122.372 53.736 122.696C53.736 123.152 53.556 123.5 53.196 123.752C52.836 124.004 52.38 124.124 51.804 124.124C51.156 124.124 50.628 123.956 50.22 123.62C49.8 123.284 49.572 122.828 49.536 122.252H48.504C48.528 123.02 48.792 123.644 49.272 124.148C49.752 124.652 50.412 124.952 51.252 125.048V126.284H52.164V125.06C52.668 125.024 53.124 124.892 53.52 124.676C53.916 124.46 54.228 124.16 54.444 123.8ZM61.4691 121.364C61.1211 121.004 60.6771 120.764 60.1251 120.644C60.5931 120.56 60.9771 120.344 61.2891 119.996C61.5891 119.648 61.7451 119.228 61.7451 118.748C61.7451 118.316 61.6251 117.92 61.3971 117.584C61.1691 117.248 60.8451 116.996 60.4251 116.804C59.9931 116.612 59.5011 116.516 58.9491 116.516C58.3851 116.516 57.8931 116.612 57.4731 116.804C57.0411 116.996 56.7171 117.248 56.4891 117.584C56.2611 117.92 56.1531 118.316 56.1531 118.748C56.1531 119.24 56.2971 119.66 56.6091 119.996C56.9091 120.332 57.2931 120.548 57.7731 120.644C57.2211 120.764 56.7651 121.016 56.4291 121.376C56.0811 121.736 55.9131 122.192 55.9131 122.744C55.9131 123.2 56.0331 123.608 56.2731 123.956C56.5131 124.316 56.8731 124.592 57.3291 124.784C57.7851 124.976 58.3251 125.072 58.9491 125.072C59.5611 125.072 60.1011 124.976 60.5571 124.784C61.0131 124.592 61.3731 124.316 61.6131 123.956C61.8531 123.608 61.9851 123.2 61.9851 122.744C61.9851 122.192 61.8051 121.724 61.4691 121.364ZM57.6531 119.768C57.3171 119.504 57.1491 119.168 57.1491 118.748C57.1491 118.34 57.3171 118.016 57.6531 117.752C57.9891 117.488 58.4211 117.356 58.9491 117.356C59.4771 117.356 59.9091 117.488 60.2451 117.752C60.5811 118.016 60.7491 118.34 60.7491 118.748C60.7491 119.168 60.5811 119.504 60.2451 119.768C59.9091 120.032 59.4771 120.152 58.9491 120.152C58.4211 120.152 57.9891 120.032 57.6531 119.768ZM60.4011 123.812C60.0171 124.1 59.5371 124.244 58.9491 124.244C58.3611 124.244 57.8811 124.1 57.4971 123.812C57.1131 123.524 56.9211 123.164 56.9211 122.708C56.9211 122.42 57.0051 122.144 57.1851 121.904C57.3531 121.664 57.5931 121.484 57.9051 121.34C58.2171 121.208 58.5651 121.136 58.9491 121.136C59.3331 121.136 59.6691 121.208 59.9811 121.34C60.2931 121.484 60.5331 121.664 60.7131 121.904C60.8811 122.144 60.9771 122.42 60.9771 122.708C60.9771 123.164 60.7851 123.524 60.4011 123.812ZM63.2764 116.6V125H64.2604V123.38L65.4844 122.096L67.5244 125H68.7124L66.1924 121.388L68.5444 118.88H67.3684L64.2604 122.168V116.6H63.2764Z" fill="#717184"/>
<path d="M54.444 171.8C54.66 171.44 54.78 171.044 54.78 170.6C54.78 169.868 54.528 169.34 54.024 169.004C53.52 168.668 52.848 168.428 52.008 168.284C51.48 168.2 51.06 168.116 50.76 168.02C50.448 167.924 50.208 167.792 50.016 167.612C49.824 167.432 49.728 167.18 49.728 166.856C49.728 166.424 49.884 166.076 50.22 165.836C50.544 165.596 50.988 165.464 51.552 165.464C52.104 165.464 52.572 165.62 52.956 165.908C53.328 166.208 53.544 166.604 53.616 167.084H54.648C54.6 166.412 54.36 165.86 53.916 165.404C53.46 164.948 52.884 164.672 52.164 164.564V163.304H51.252V164.528C50.484 164.588 49.86 164.828 49.392 165.26C48.912 165.692 48.684 166.244 48.684 166.916C48.684 167.66 48.924 168.188 49.428 168.512C49.92 168.848 50.592 169.076 51.432 169.22C51.96 169.316 52.368 169.4 52.68 169.496C52.992 169.592 53.244 169.724 53.436 169.916C53.628 170.108 53.736 170.372 53.736 170.696C53.736 171.152 53.556 171.5 53.196 171.752C52.836 172.004 52.38 172.124 51.804 172.124C51.156 172.124 50.628 171.956 50.22 171.62C49.8 171.284 49.572 170.828 49.536 170.252H48.504C48.528 171.02 48.792 171.644 49.272 172.148C49.752 172.652 50.412 172.952 51.252 173.048V174.284H52.164V173.06C52.668 173.024 53.124 172.892 53.52 172.676C53.916 172.46 54.228 172.16 54.444 171.8ZM56.0811 170.396C56.2011 170.888 56.3571 171.32 56.5731 171.68C56.8371 172.124 57.1851 172.472 57.6171 172.712C58.0491 172.952 58.5411 173.072 59.1171 173.072C59.6811 173.072 60.1851 172.952 60.6291 172.712C61.0611 172.472 61.4091 172.136 61.6611 171.704C61.9011 171.272 62.0331 170.792 62.0331 170.252C62.0331 169.7 61.9131 169.208 61.6731 168.776C61.4331 168.356 61.0971 168.032 60.6771 167.792C60.2451 167.564 59.7651 167.444 59.2131 167.444C58.6611 167.444 58.1811 167.576 57.7731 167.816C57.3651 168.068 57.0651 168.404 56.8731 168.824C56.8491 168.872 56.8251 168.956 56.8011 169.052L56.7891 168.644C56.7891 167.684 56.9811 166.904 57.3771 166.304C57.7731 165.716 58.3371 165.416 59.0571 165.416C59.5491 165.416 59.9451 165.548 60.2571 165.8C60.5691 166.064 60.7731 166.412 60.8691 166.844H61.8771C61.7691 166.148 61.4691 165.584 60.9771 165.164C60.4851 164.744 59.8611 164.528 59.1051 164.528C58.4331 164.528 57.8691 164.708 57.3891 165.056C56.9091 165.404 56.5371 165.896 56.2851 166.544C56.0331 167.192 55.9131 167.96 55.9131 168.836C55.9131 169.388 55.9611 169.916 56.0811 170.396ZM60.5091 168.872C60.8451 169.232 61.0251 169.688 61.0251 170.252C61.0251 170.828 60.8451 171.284 60.4971 171.644C60.1371 172.004 59.6811 172.184 59.1051 172.184C58.5291 172.184 58.0611 172.016 57.7131 171.656C57.3531 171.308 57.1851 170.852 57.1851 170.276C57.1851 169.7 57.3651 169.232 57.7251 168.872C58.0851 168.512 58.5531 168.332 59.1411 168.332C59.7171 168.332 60.1731 168.512 60.5091 168.872ZM63.3232 164.6V173H64.3073V171.38L65.5312 170.096L67.5713 173H68.7592L66.2393 169.388L68.5913 166.88H67.4153L64.3073 170.168V164.6H63.3232Z" fill="#717184"/>
<path d="M54.444 219.8C54.66 219.44 54.78 219.044 54.78 218.6C54.78 217.868 54.528 217.34 54.024 217.004C53.52 216.668 52.848 216.428 52.008 216.284C51.48 216.2 51.06 216.116 50.76 216.02C50.448 215.924 50.208 215.792 50.016 215.612C49.824 215.432 49.728 215.18 49.728 214.856C49.728 214.424 49.884 214.076 50.22 213.836C50.544 213.596 50.988 213.464 51.552 213.464C52.104 213.464 52.572 213.62 52.956 213.908C53.328 214.208 53.544 214.604 53.616 215.084H54.648C54.6 214.412 54.36 213.86 53.916 213.404C53.46 212.948 52.884 212.672 52.164 212.564V211.304H51.252V212.528C50.484 212.588 49.86 212.828 49.392 213.26C48.912 213.692 48.684 214.244 48.684 214.916C48.684 215.66 48.924 216.188 49.428 216.512C49.92 216.848 50.592 217.076 51.432 217.22C51.96 217.316 52.368 217.4 52.68 217.496C52.992 217.592 53.244 217.724 53.436 217.916C53.628 218.108 53.736 218.372 53.736 218.696C53.736 219.152 53.556 219.5 53.196 219.752C52.836 220.004 52.38 220.124 51.804 220.124C51.156 220.124 50.628 219.956 50.22 219.62C49.8 219.284 49.572 218.828 49.536 218.252H48.504C48.528 219.02 48.792 219.644 49.272 220.148C49.752 220.652 50.412 220.952 51.252 221.048V222.284H52.164V221.06C52.668 221.024 53.124 220.892 53.52 220.676C53.916 220.46 54.228 220.16 54.444 219.8ZM55.6251 218.048V218.948H60.0291V221H61.0371V218.948H62.3931V218.024H61.0371V212.6H59.8371L55.6251 218.048ZM56.7051 218.024L60.0291 213.728V218.024H56.7051ZM63.4053 212.6V221H64.3893V219.38L65.6133 218.096L67.6533 221H68.8413L66.3213 217.388L68.6733 214.88H67.4973L64.3893 218.168V212.6H63.4053Z" fill="#717184"/>
</g>
<defs>
<linearGradient id="paint0_linear_751_12441" x1="293" y1="131" x2="293" y2="250" gradientUnits="userSpaceOnUse">
<stop stop-color="#5235E8" stop-opacity="0.7"/>
<stop offset="1" stop-color="#5235E8" stop-opacity="0"/>
</linearGradient>
<clipPath id="clip0_751_12441">
<rect width="544" height="250" fill="white"/>
</clipPath>
</defs>
</svg>
