<svg width="264" height="164" viewBox="0 0 264 164" fill="none" xmlns="http://www.w3.org/2000/svg">
<g clip-path="url(#clip0_751_4749)">
<rect y="-0.000244141" width="264" height="164" fill="#0E0637"/>
<circle cx="232" cy="25.9994" r="60.1613" fill="url(#paint0_linear_751_4749)" stroke="url(#paint1_linear_751_4749)" stroke-width="20"/>
<g clip-path="url(#clip1_751_4749)">
<path d="M224.449 -35.832C227.618 -41.9606 236.382 -41.9606 239.551 -35.832L259.73 3.19483C260.538 4.75873 261.812 6.03299 263.377 6.84164L302.403 27.0204C308.532 30.1892 308.532 38.9538 302.403 42.1225L263.377 62.3013C261.812 63.1098 260.538 64.384 259.73 65.9485L239.551 104.975C236.382 111.104 227.618 111.104 224.449 104.975L204.27 65.9485C203.461 64.384 202.187 63.1098 200.623 62.3013L161.596 42.1225C155.468 38.9538 155.468 30.1892 161.596 27.0204L200.623 6.84164C202.187 6.03299 203.461 4.75873 204.27 3.19483L224.449 -35.832Z" fill="#0E0637"/>
<path d="M228.224 -9.20176C229.809 -12.2661 234.191 -12.2661 235.776 -9.20176L245.865 10.3116C246.269 11.0936 246.906 11.7307 247.688 12.1351L267.202 22.2244C270.266 23.8088 270.266 28.1911 267.202 29.7755L247.688 39.8649C246.906 40.2691 246.269 40.9062 245.865 41.6885L235.776 61.2016C234.191 64.2661 229.809 64.2661 228.224 61.2016L218.135 41.6885C217.731 40.9062 217.094 40.2691 216.312 39.8649L196.798 29.7755C193.734 28.1911 193.734 23.8088 196.798 22.2244L216.312 12.1351C217.094 11.7307 217.731 11.0936 218.135 10.3116L228.224 -9.20176Z" fill="#0E0637"/>
</g>
<g filter="url(#filter0_bii_751_4749)">
<path d="M0 116L264 116V164L0 164L0 116Z" fill="white" fill-opacity="0.15"/>
</g>
<g clip-path="url(#clip2_751_4749)">
<path d="M247.133 49.5389V49.6263H247.215C247.23 49.6266 247.246 49.6227 247.259 49.6152C247.264 49.6114 247.269 49.6064 247.272 49.6005C247.274 49.5947 247.276 49.5882 247.276 49.5817C247.276 49.5754 247.274 49.569 247.272 49.5633C247.269 49.5576 247.264 49.5528 247.259 49.5492C247.246 49.5413 247.23 49.5374 247.215 49.538H247.133V49.5389ZM247.216 49.4771C247.251 49.4749 247.286 49.485 247.314 49.5055C247.326 49.5148 247.335 49.5266 247.341 49.5401C247.347 49.5535 247.35 49.5682 247.349 49.5828C247.35 49.5955 247.347 49.6081 247.343 49.6198C247.338 49.6315 247.331 49.6421 247.321 49.6508C247.299 49.6698 247.272 49.6812 247.243 49.6834L247.353 49.8079H247.268L247.167 49.6842H247.134V49.8079H247.063V49.4773H247.217L247.216 49.4771ZM247.194 49.922C247.231 49.9223 247.268 49.9149 247.302 49.9001C247.335 49.8861 247.365 49.866 247.39 49.8409C247.415 49.8158 247.436 49.7862 247.45 49.7535C247.478 49.6842 247.478 49.6064 247.45 49.5372C247.435 49.5046 247.415 49.475 247.39 49.4498C247.365 49.4247 247.335 49.4046 247.302 49.3905C247.268 49.3766 247.231 49.3696 247.194 49.37C247.156 49.3697 247.119 49.3766 247.084 49.3905C247.05 49.4043 247.02 49.4244 246.994 49.4498C246.955 49.4894 246.929 49.5396 246.918 49.5939C246.908 49.6483 246.914 49.7046 246.935 49.7557C246.949 49.7885 246.969 49.8182 246.994 49.8431C247.02 49.8684 247.05 49.8885 247.084 49.9023C247.119 49.917 247.156 49.9245 247.194 49.9241V49.922ZM247.194 49.2905C247.291 49.2904 247.383 49.328 247.452 49.3954C247.486 49.4277 247.512 49.4662 247.53 49.5088C247.549 49.5524 247.559 49.5995 247.559 49.647C247.559 49.6945 247.549 49.7415 247.53 49.7852C247.512 49.8275 247.485 49.866 247.452 49.8986C247.419 49.9307 247.379 49.9566 247.336 49.9751C247.291 49.9941 247.243 50.0037 247.194 50.0035C247.144 50.0038 247.095 49.9942 247.05 49.9751C247.006 49.9571 246.967 49.9311 246.933 49.8986C246.9 49.8648 246.874 49.825 246.856 49.7815C246.837 49.7378 246.828 49.6908 246.828 49.6433C246.828 49.5957 246.837 49.5487 246.856 49.505C246.874 49.4625 246.901 49.424 246.934 49.3916C246.967 49.3585 247.007 49.3325 247.051 49.3152C247.096 49.2961 247.145 49.2864 247.195 49.2868L247.194 49.2905ZM213.508 48.0137C213.508 47.3833 213.923 46.8655 214.603 46.8655C215.252 46.8655 215.691 47.361 215.691 48.0137C215.691 48.6664 215.252 49.162 214.603 49.162C213.923 49.162 213.508 48.6441 213.508 48.0137ZM216.431 48.0137V46.2198H215.646V46.6568C215.397 46.3338 215.019 46.1313 214.505 46.1313C213.493 46.1313 212.699 46.9196 212.699 48.0146C212.699 49.1095 213.493 49.8979 214.505 49.8979C215.019 49.8979 215.397 49.6952 215.646 49.3724V49.8079H216.43V48.0137H216.431ZM242.961 48.0137C242.961 47.3833 243.377 46.8655 244.057 46.8655C244.707 46.8655 245.144 47.361 245.144 48.0137C245.144 48.6664 244.707 49.162 244.057 49.162C243.377 49.162 242.961 48.6441 242.961 48.0137ZM245.885 48.0137V44.7798H245.1V46.6568C244.85 46.3338 244.473 46.1313 243.959 46.1313C242.947 46.1313 242.153 46.9196 242.153 48.0146C242.153 49.1095 242.947 49.8979 243.959 49.8979C244.473 49.8979 244.85 49.6952 245.1 49.3724V49.8079H245.885V48.0137ZM226.176 46.8285C226.682 46.8285 227.007 47.1436 227.09 47.6984H225.216C225.3 47.1805 225.617 46.8285 226.176 46.8285H226.176ZM226.192 46.1293C225.134 46.1293 224.393 46.8941 224.393 48.0126C224.393 49.153 225.163 49.896 226.244 49.896C226.788 49.896 227.286 49.7611 227.725 49.3934L227.34 48.8154C227.037 49.0558 226.652 49.1906 226.289 49.1906C225.783 49.1906 225.323 48.9579 225.209 48.3122H227.89C227.898 48.2152 227.906 48.1173 227.906 48.0124C227.898 46.8943 227.202 46.1291 226.191 46.1291L226.192 46.1293ZM235.671 48.0124C235.671 47.382 236.087 46.8641 236.767 46.8641C237.416 46.8641 237.854 47.3597 237.854 48.0124C237.854 48.6651 237.416 49.1607 236.767 49.1607C236.087 49.1607 235.671 48.6428 235.671 48.0124H235.671ZM238.594 48.0124V46.2198H237.81V46.6568C237.56 46.3338 237.183 46.1313 236.669 46.1313C235.657 46.1313 234.863 46.9196 234.863 48.0146C234.863 49.1095 235.657 49.8979 236.669 49.8979C237.183 49.8979 237.56 49.6952 237.81 49.3724V49.8079H238.595V48.0137L238.594 48.0124ZM231.237 48.0124C231.237 49.1004 232 49.8957 233.163 49.8957C233.707 49.8957 234.07 49.7756 234.461 49.4681L234.084 48.8377C233.79 49.0481 233.48 49.1607 233.138 49.1607C232.512 49.153 232.051 48.7029 232.051 48.0124C232.051 47.3219 232.512 46.872 233.138 46.8641C233.479 46.8641 233.789 46.9767 234.084 47.1871L234.461 46.5567C234.069 46.2493 233.707 46.1291 233.163 46.1291C232 46.1291 231.237 46.9242 231.237 48.0124ZM241.359 46.1291C240.906 46.1291 240.611 46.3395 240.407 46.6546V46.2198H239.629V49.8059H240.415V47.7957C240.415 47.2022 240.672 46.8724 241.185 46.8724C241.353 46.87 241.52 46.9007 241.676 46.9627L241.918 46.2276C241.745 46.1597 241.518 46.1297 241.359 46.1297L241.359 46.1291ZM220.313 46.5049C219.935 46.2576 219.415 46.1297 218.84 46.1297C217.926 46.1297 217.337 46.5652 217.337 47.2778C217.337 47.8625 217.775 48.2233 218.582 48.3358L218.953 48.3882C219.384 48.4483 219.587 48.5609 219.587 48.7634C219.587 49.0407 219.301 49.1989 218.764 49.1989C218.22 49.1989 217.828 49.0263 217.563 48.8237L217.194 49.4318C217.625 49.7469 218.169 49.8973 218.758 49.8973C219.8 49.8973 220.405 49.4096 220.405 48.7267C220.405 48.0963 219.929 47.7666 219.143 47.6541L218.773 47.6007C218.433 47.557 218.161 47.4891 218.161 47.2487C218.161 46.9865 218.418 46.8287 218.848 46.8287C219.309 46.8287 219.756 47.0014 219.974 47.1362L220.314 46.5058L220.313 46.5049ZM230.444 46.1304C229.991 46.1304 229.696 46.3408 229.493 46.6559V46.2198L228.715 46.2198V49.8059H229.5V47.7957C229.5 47.2022 229.757 46.8724 230.27 46.8724C230.438 46.87 230.605 46.9007 230.761 46.9627L231.003 46.2276C230.829 46.1597 230.603 46.1297 230.444 46.1297L230.444 46.1304ZM223.744 46.2198H222.46V45.1318H221.666V46.2198H220.934V46.9325H221.666V48.5685C221.666 49.4006 221.991 49.8962 222.92 49.8962C223.261 49.8962 223.653 49.7913 223.902 49.6189L223.675 48.9511C223.441 49.0859 223.184 49.1539 222.98 49.1539C222.588 49.1539 222.46 48.9135 222.46 48.5537V46.9332H223.744V46.2198ZM212.005 49.8068V47.5562C212.005 46.7086 211.461 46.1383 210.584 46.1306C210.123 46.123 209.648 46.2654 209.315 46.7687C209.066 46.371 208.673 46.1306 208.122 46.1306C207.736 46.1306 207.359 46.2431 207.064 46.6631V46.2198H206.278V49.8059H207.07V47.8175C207.07 47.195 207.418 46.8641 207.955 46.8641C208.476 46.8641 208.74 47.2017 208.74 47.8096V49.8055H209.534V47.8171C209.534 47.1945 209.896 46.8637 210.417 46.8637C210.953 46.8637 211.209 47.2013 211.209 47.8092V49.8051L212.005 49.8068Z" fill="white" fill-opacity="0.7"/>
<path fill-rule="evenodd" clip-rule="evenodd" d="M225.574 36.234C228.381 34.1833 230.197 30.9182 230.197 27.2407C230.197 23.5632 228.381 20.2982 225.574 18.2474C227.506 16.8362 229.907 16 232.509 16C238.892 16 244.066 21.0326 244.066 27.2407C244.066 33.4488 238.892 38.4814 232.509 38.4814C229.907 38.4814 227.506 37.6452 225.574 36.234Z" fill="white" fill-opacity="0.4"/>
<path fill-rule="evenodd" clip-rule="evenodd" d="M225.574 18.2474C222.767 20.2982 220.951 23.5632 220.951 27.2407C220.951 30.9182 222.767 34.1833 225.574 36.234C223.642 37.6452 221.241 38.4814 218.639 38.4814C212.256 38.4814 207.082 33.4488 207.082 27.2407C207.082 21.0326 212.256 16 218.639 16C221.241 16 223.642 16.8362 225.574 18.2474Z" fill="white" fill-opacity="0.3"/>
<path opacity="0.7" fill-rule="evenodd" clip-rule="evenodd" d="M225.574 36.4387C228.381 34.3416 230.196 31.0026 230.196 27.2417C230.196 23.4809 228.381 20.1419 225.574 18.0447C222.767 20.1419 220.951 23.4809 220.951 27.2417C220.951 31.0026 222.767 34.3416 225.574 36.4387Z" fill="white"/>
</g>
<rect x="20.5371" y="20.5" width="30.9632" height="23" rx="3.73461" stroke="url(#paint2_linear_751_4749)"/>
<path d="M20 28.3075L30.8691 28.3075C31.5572 26.089 33.4922 21.5178 35.7267 20.9805C36.5566 21.2858 38.4956 22.3848 39.6129 24.3387M20 36.0009L30.8691 36.0009C30.8691 39.8109 34.1075 42.5952 35.7267 43.5111C38.447 42.583 40.5439 38.1176 41.2524 36.0009H52M52 30.1393L41.2524 30.1393C40.7666 29.1827 40.0865 26.9764 41.2524 25.8041" stroke="url(#paint3_linear_751_4749)"/>
<g clip-path="url(#clip3_751_4749)">
<path d="M63 30.1036C63.4532 30.8497 64.0878 32.6902 63 34.0829M65.9914 28.6736C66.6713 29.8549 67.6231 32.8767 65.9914 35.513M68.643 27.1813C69.5268 28.7772 70.7642 32.9389 68.643 36.8187M71.4984 26C72.6315 27.886 74.2179 32.9264 71.4984 38" stroke="white" stroke-linecap="round" stroke-linejoin="round"/>
</g>
<path d="M20.132 145H21.212L22.1 142.732H25.76L26.648 145H27.764L24.572 136.6H23.336L20.132 145ZM22.412 141.784L23.924 137.74L25.448 141.784H22.412ZM33.4184 139.48C32.9624 139.036 32.3744 138.808 31.6304 138.808C30.7424 138.808 30.0704 139.108 29.6144 139.708L29.4824 138.88H28.6304V145H29.6144V141.94C29.6144 141.256 29.7704 140.716 30.1064 140.308C30.4304 139.912 30.8864 139.708 31.4624 139.708C31.9904 139.708 32.3984 139.876 32.6864 140.212C32.9744 140.548 33.1184 141.028 33.1184 141.652V145H34.1024V141.592C34.1024 140.632 33.8744 139.936 33.4184 139.48ZM41.225 136.6H40.241V139.816C40.037 139.504 39.761 139.264 39.413 139.084C39.053 138.904 38.633 138.808 38.141 138.808C37.577 138.808 37.073 138.94 36.629 139.204C36.173 139.468 35.825 139.84 35.573 140.308C35.321 140.788 35.201 141.328 35.201 141.94C35.201 142.588 35.321 143.152 35.573 143.62C35.825 144.1 36.173 144.46 36.617 144.7C37.061 144.952 37.565 145.072 38.141 145.072C39.029 145.072 39.725 144.724 40.241 144.016L40.373 145H41.225V136.6ZM39.281 143.92C38.969 144.112 38.621 144.196 38.237 144.196C37.625 144.196 37.133 143.992 36.761 143.572C36.389 143.152 36.209 142.612 36.209 141.94C36.209 141.28 36.389 140.74 36.761 140.32C37.133 139.9 37.625 139.684 38.237 139.684C38.621 139.684 38.969 139.78 39.281 139.972C39.593 140.164 39.833 140.44 40.001 140.788C40.169 141.136 40.253 141.532 40.253 141.964C40.253 142.396 40.169 142.792 40.001 143.128C39.833 143.464 39.593 143.728 39.281 143.92ZM45.7334 138.88H45.4574C44.9534 138.88 44.5694 138.964 44.2934 139.132C44.0054 139.3 43.7774 139.528 43.6094 139.804L43.4774 138.88H42.6254V145H43.6094V141.88C43.6094 141.304 43.7294 140.824 43.9814 140.428C44.2334 140.044 44.6534 139.84 45.2414 139.84H45.7334V138.88ZM46.4857 140.296C46.2457 140.776 46.1257 141.316 46.1257 141.94C46.1257 142.564 46.2457 143.104 46.4977 143.584C46.7497 144.064 47.1097 144.424 47.5657 144.688C48.0217 144.952 48.5497 145.072 49.1617 145.072C49.8577 145.072 50.4457 144.88 50.9257 144.484C51.4057 144.088 51.7057 143.572 51.8257 142.948H50.8297C50.7217 143.344 50.5177 143.656 50.2057 143.872C49.8937 144.088 49.5217 144.196 49.0897 144.196C48.5137 144.196 48.0577 144.016 47.7097 143.656C47.3497 143.296 47.1697 142.816 47.1577 142.216V142.132H51.9097C51.9217 141.94 51.9337 141.808 51.9337 141.712C51.9097 141.124 51.7777 140.608 51.5377 140.164C51.2857 139.732 50.9497 139.396 50.5177 139.156C50.0857 138.928 49.5817 138.808 49.0297 138.808C48.4537 138.808 47.9497 138.94 47.5177 139.204C47.0737 139.468 46.7257 139.828 46.4857 140.296ZM50.9137 141.316H47.2177C47.2657 140.836 47.4577 140.44 47.8177 140.128C48.1657 139.828 48.5737 139.672 49.0417 139.672C49.5577 139.672 49.9897 139.816 50.3257 140.104C50.6617 140.392 50.8657 140.8 50.9137 141.316ZM57.1812 142.252H56.1492C56.1732 142.804 56.3172 143.296 56.5812 143.728C56.8452 144.16 57.2292 144.484 57.7212 144.724C58.2012 144.964 58.7772 145.072 59.4372 145.072C60.0132 145.072 60.5292 144.976 60.9852 144.76C61.4412 144.556 61.7892 144.268 62.0412 143.884C62.2932 143.512 62.4252 143.08 62.4252 142.6C62.4252 141.868 62.1732 141.34 61.6692 141.004C61.1652 140.668 60.4932 140.428 59.6532 140.284C59.1252 140.2 58.7052 140.116 58.4052 140.02C58.0932 139.924 57.8532 139.792 57.6612 139.612C57.4692 139.432 57.3732 139.18 57.3732 138.856C57.3732 138.424 57.5292 138.076 57.8652 137.836C58.1892 137.596 58.6332 137.464 59.1972 137.464C59.7492 137.464 60.2172 137.62 60.6012 137.908C60.9732 138.208 61.1892 138.604 61.2612 139.084H62.2932C62.2572 138.58 62.1132 138.136 61.8492 137.752C61.5852 137.368 61.2252 137.056 60.7692 136.84C60.3132 136.624 59.7852 136.516 59.1972 136.516C58.6332 136.516 58.1292 136.624 57.6972 136.816C57.2652 137.02 56.9292 137.308 56.6892 137.668C56.4492 138.028 56.3292 138.448 56.3292 138.916C56.3292 139.66 56.5692 140.188 57.0732 140.512C57.5652 140.848 58.2372 141.076 59.0772 141.22C59.6052 141.316 60.0132 141.4 60.3252 141.496C60.6372 141.592 60.8892 141.724 61.0812 141.916C61.2732 142.108 61.3812 142.372 61.3812 142.696C61.3812 143.152 61.2012 143.5 60.8412 143.752C60.4812 144.004 60.0252 144.124 59.4492 144.124C58.8012 144.124 58.2732 143.956 57.8652 143.62C57.4452 143.284 57.2172 142.828 57.1812 142.252ZM69.3902 144.1H69.0902C68.8142 144.1 68.6822 143.956 68.6822 143.656V141.016C68.6822 140.308 68.4662 139.768 68.0342 139.384C67.6022 139 67.0022 138.808 66.2222 138.808C65.4782 138.808 64.8782 138.976 64.4222 139.312C63.9662 139.648 63.7022 140.116 63.6302 140.716H64.6142C64.6742 140.404 64.8422 140.164 65.1182 139.972C65.3942 139.78 65.7422 139.684 66.1742 139.684C66.6542 139.684 67.0262 139.804 67.2902 140.02C67.5542 140.248 67.6982 140.56 67.6982 140.956V141.376H65.8982C65.0942 141.376 64.4822 141.544 64.0622 141.868C63.6422 142.204 63.4382 142.672 63.4382 143.284C63.4382 143.836 63.6422 144.28 64.0502 144.592C64.4582 144.916 65.0102 145.072 65.6942 145.072C66.5822 145.072 67.2662 144.736 67.7462 144.052C67.7462 144.364 67.8422 144.604 68.0102 144.76C68.1782 144.928 68.4542 145 68.8502 145H69.3902V144.1ZM67.6982 142.204V142.504C67.6982 143.032 67.5182 143.452 67.1822 143.764C66.8342 144.076 66.3662 144.232 65.7662 144.232C65.3582 144.232 65.0342 144.148 64.7942 143.956C64.5542 143.776 64.4342 143.536 64.4342 143.224C64.4342 142.552 64.8902 142.204 65.8022 142.204H67.6982ZM78.7027 139.456C78.2707 139.024 77.7187 138.808 77.0347 138.808C76.0507 138.808 75.3427 139.204 74.9107 139.972C74.7427 139.588 74.4787 139.3 74.1427 139.108C73.8067 138.916 73.4107 138.808 72.9787 138.808C72.2227 138.808 71.6227 139.12 71.1907 139.72L71.0587 138.88H70.2067V145H71.1907V141.772C71.1907 141.16 71.3347 140.668 71.6227 140.284C71.9107 139.9 72.3067 139.708 72.8107 139.708C73.2787 139.708 73.6387 139.864 73.9027 140.176C74.1547 140.488 74.2867 140.944 74.2867 141.532V145H75.2707V141.724C75.2707 141.1 75.4147 140.608 75.7027 140.248C75.9907 139.888 76.3987 139.708 76.9147 139.708C77.3707 139.708 77.7307 139.864 77.9827 140.176C78.2347 140.488 78.3667 140.944 78.3667 141.532V145H79.3507V141.472C79.3507 140.56 79.1347 139.888 78.7027 139.456ZM81.9089 144.676C82.3649 144.94 82.8929 145.072 83.4929 145.072C84.0809 145.072 84.6089 144.94 85.0649 144.676C85.5209 144.412 85.8809 144.052 86.1449 143.572C86.3969 143.104 86.5289 142.564 86.5289 141.94C86.5289 141.328 86.3969 140.788 86.1449 140.308C85.8809 139.84 85.5209 139.468 85.0649 139.204C84.6089 138.94 84.0809 138.808 83.4929 138.808C82.8929 138.808 82.3649 138.94 81.9089 139.204C81.4529 139.468 81.0929 139.84 80.8409 140.308C80.5769 140.788 80.4569 141.328 80.4569 141.94C80.4569 142.564 80.5769 143.104 80.8409 143.572C81.0929 144.052 81.4529 144.412 81.9089 144.676ZM84.5489 143.908C84.2369 144.1 83.8889 144.196 83.4929 144.196C83.0849 144.196 82.7369 144.1 82.4249 143.908C82.1129 143.716 81.8849 143.452 81.7169 143.104C81.5489 142.768 81.4649 142.372 81.4649 141.94C81.4649 141.508 81.5489 141.124 81.7169 140.776C81.8849 140.44 82.1129 140.164 82.4249 139.972C82.7369 139.78 83.0849 139.684 83.4929 139.684C83.8889 139.684 84.2369 139.78 84.5489 139.972C84.8609 140.164 85.1009 140.44 85.2689 140.776C85.4369 141.124 85.5209 141.508 85.5209 141.94C85.5209 142.372 85.4369 142.768 85.2689 143.104C85.1009 143.452 84.8609 143.716 84.5489 143.908ZM88.4619 142.984H87.4779C87.4779 143.644 87.7299 144.16 88.2099 144.52C88.6899 144.892 89.3379 145.072 90.1419 145.072C90.5859 145.072 90.9939 145 91.3659 144.844C91.7259 144.7 92.0259 144.484 92.2419 144.196C92.4579 143.92 92.5659 143.596 92.5659 143.224C92.5659 142.804 92.4579 142.468 92.2419 142.216C92.0259 141.976 91.7499 141.796 91.4019 141.676C91.0539 141.568 90.6099 141.484 90.0819 141.412C89.6979 141.364 89.4099 141.328 89.2179 141.28C89.0259 141.244 88.8819 141.172 88.7619 141.052C88.6419 140.944 88.5819 140.788 88.5819 140.572C88.5819 140.296 88.7019 140.068 88.9659 139.9C89.2179 139.732 89.5539 139.636 89.9739 139.636C90.3819 139.636 90.7179 139.744 90.9939 139.948C91.2579 140.164 91.4139 140.428 91.4619 140.74H92.4459C92.3979 140.116 92.1459 139.636 91.6899 139.3C91.2339 138.964 90.6579 138.796 89.9379 138.796C89.4939 138.796 89.0979 138.88 88.7499 139.036C88.3899 139.192 88.1139 139.408 87.9099 139.684C87.7059 139.972 87.6099 140.284 87.6099 140.644C87.6099 141.052 87.7059 141.364 87.9219 141.592C88.1259 141.82 88.4019 141.988 88.7379 142.084C89.0739 142.192 89.5059 142.276 90.0339 142.336C90.4059 142.384 90.6939 142.432 90.8979 142.48C91.1019 142.528 91.2699 142.624 91.4019 142.744C91.5219 142.876 91.5939 143.056 91.5939 143.296C91.5939 143.584 91.4499 143.812 91.1859 143.98C90.9219 144.148 90.5739 144.232 90.1419 144.232C89.6499 144.232 89.2539 144.124 88.9419 143.884C88.6299 143.656 88.4739 143.356 88.4619 142.984ZM99.4662 144.1H99.1662C98.8902 144.1 98.7582 143.956 98.7582 143.656V141.016C98.7582 140.308 98.5422 139.768 98.1102 139.384C97.6782 139 97.0782 138.808 96.2982 138.808C95.5542 138.808 94.9542 138.976 94.4982 139.312C94.0422 139.648 93.7782 140.116 93.7062 140.716H94.6902C94.7502 140.404 94.9182 140.164 95.1942 139.972C95.4702 139.78 95.8182 139.684 96.2502 139.684C96.7302 139.684 97.1022 139.804 97.3662 140.02C97.6302 140.248 97.7742 140.56 97.7742 140.956V141.376H95.9742C95.1702 141.376 94.5582 141.544 94.1382 141.868C93.7182 142.204 93.5142 142.672 93.5142 143.284C93.5142 143.836 93.7182 144.28 94.1262 144.592C94.5342 144.916 95.0862 145.072 95.7702 145.072C96.6582 145.072 97.3422 144.736 97.8222 144.052C97.8222 144.364 97.9182 144.604 98.0862 144.76C98.2542 144.928 98.5302 145 98.9262 145H99.4662V144.1ZM97.7742 142.204V142.504C97.7742 143.032 97.5942 143.452 97.2582 143.764C96.9102 144.076 96.4422 144.232 95.8422 144.232C95.4342 144.232 95.1102 144.148 94.8702 143.956C94.6302 143.776 94.5102 143.536 94.5102 143.224C94.5102 142.552 94.9662 142.204 95.8782 142.204H97.7742Z" fill="white"/>
<path d="M21.022 74.482C20.63 75.238 20.448 76.106 20.448 77.1C20.448 78.108 20.63 78.976 21.022 79.732C21.414 80.488 21.96 81.062 22.688 81.468C23.416 81.888 24.27 82.084 25.25 82.084C26.006 82.084 26.692 81.944 27.308 81.636C27.91 81.342 28.4 80.922 28.778 80.376C29.142 79.844 29.366 79.214 29.45 78.5H27.35C27.224 79.06 26.972 79.508 26.58 79.83C26.188 80.152 25.712 80.306 25.138 80.306C24.354 80.306 23.724 80.012 23.276 79.424C22.814 78.836 22.59 78.052 22.59 77.1C22.59 76.148 22.814 75.364 23.276 74.776C23.724 74.188 24.354 73.894 25.138 73.894C25.712 73.894 26.188 74.062 26.58 74.384C26.972 74.706 27.224 75.14 27.35 75.7H29.45C29.366 75 29.142 74.37 28.778 73.824C28.4 73.292 27.91 72.872 27.308 72.564C26.692 72.27 26.006 72.116 25.25 72.116C24.27 72.116 23.416 72.326 22.688 72.732C21.96 73.152 21.414 73.726 21.022 74.482ZM32.0281 81.636C32.6021 81.944 33.2741 82.084 34.0301 82.084C34.7861 82.084 35.4441 81.944 36.0181 81.636C36.5921 81.328 37.0401 80.908 37.3481 80.348C37.6561 79.788 37.8241 79.144 37.8241 78.402C37.8241 77.674 37.6561 77.03 37.3481 76.47C37.0401 75.91 36.5921 75.49 36.0181 75.182C35.4441 74.874 34.7861 74.72 34.0301 74.72C33.2741 74.72 32.6021 74.874 32.0281 75.182C31.4541 75.49 31.0061 75.91 30.6981 76.47C30.3901 77.03 30.2361 77.674 30.2361 78.402C30.2361 79.13 30.3901 79.774 30.6981 80.334C31.0061 80.894 31.4541 81.328 32.0281 81.636ZM35.3321 79.9C35.0101 80.292 34.5761 80.474 34.0301 80.474C33.4841 80.474 33.0501 80.292 32.7281 79.9C32.4061 79.522 32.2521 79.018 32.2521 78.402C32.2521 77.786 32.4061 77.296 32.7281 76.904C33.0501 76.526 33.4841 76.33 34.0301 76.33C34.5761 76.33 35.0101 76.526 35.3321 76.904C35.6541 77.296 35.8221 77.786 35.8221 78.402C35.8221 79.018 35.6541 79.522 35.3321 79.9ZM40.7166 72.13C40.4926 71.92 40.2266 71.808 39.9046 71.808C39.5686 71.808 39.3026 71.92 39.0786 72.13C38.8546 72.34 38.7566 72.606 38.7566 72.914C38.7566 73.236 38.8546 73.502 39.0786 73.712C39.3026 73.936 39.5686 74.034 39.9046 74.034C40.2266 74.034 40.4926 73.936 40.7166 73.712C40.9266 73.502 41.0386 73.236 41.0386 72.914C41.0386 72.606 40.9266 72.34 40.7166 72.13ZM38.9106 74.804V82H40.8846V74.804H38.9106ZM48.4622 75.504C47.9162 74.986 47.2302 74.72 46.3902 74.72C45.8582 74.72 45.4242 74.818 45.0742 74.986C44.7102 75.154 44.4162 75.392 44.1642 75.7L43.9822 74.804H42.2602V82H44.2342V78.318C44.2342 77.702 44.3742 77.212 44.6542 76.862C44.9342 76.526 45.3262 76.344 45.8442 76.344C46.8102 76.344 47.3002 76.974 47.3002 78.206V82H49.2742V78.094C49.2742 76.89 48.9942 76.036 48.4622 75.504ZM56.384 75.168C55.88 74.874 55.306 74.72 54.662 74.72C53.766 74.72 53.038 75.056 52.492 75.714V72.2H50.518V82H52.24L52.436 81.02C52.674 81.356 52.982 81.608 53.36 81.804C53.724 82 54.172 82.084 54.676 82.084C55.306 82.084 55.88 81.93 56.384 81.622C56.888 81.314 57.28 80.88 57.56 80.32C57.84 79.76 57.994 79.116 57.994 78.388C57.994 77.646 57.84 77.002 57.56 76.442C57.28 75.882 56.888 75.462 56.384 75.168ZM55.502 79.9C55.166 80.292 54.746 80.474 54.214 80.474C53.682 80.474 53.248 80.292 52.94 79.9C52.618 79.522 52.464 79.018 52.464 78.388C52.464 77.772 52.618 77.282 52.94 76.904C53.248 76.526 53.682 76.33 54.214 76.33C54.746 76.33 55.166 76.526 55.502 76.904C55.824 77.296 55.992 77.786 55.992 78.402C55.992 79.018 55.824 79.522 55.502 79.9ZM66.1743 80.334H65.9503C65.7823 80.334 65.6703 80.306 65.6003 80.236C65.5163 80.18 65.4883 80.054 65.4883 79.872V77.338C65.4883 76.498 65.2083 75.84 64.6483 75.392C64.0883 74.944 63.3043 74.72 62.2963 74.72C61.3163 74.72 60.5463 74.93 59.9583 75.336C59.3703 75.742 59.0343 76.316 58.9783 77.044H60.8823C60.9243 76.778 61.0643 76.568 61.3023 76.4C61.5263 76.246 61.8343 76.162 62.1983 76.162C62.6043 76.162 62.9263 76.26 63.1783 76.456C63.4163 76.652 63.5423 76.904 63.5423 77.226V77.576H62.1143C61.0363 77.576 60.2103 77.786 59.6503 78.206C59.0903 78.626 58.8103 79.214 58.8103 79.97C58.8103 80.642 59.0483 81.174 59.5383 81.538C60.0283 81.902 60.6723 82.084 61.4843 82.084C62.0163 82.084 62.4783 81.986 62.8703 81.762C63.2483 81.552 63.5703 81.244 63.8363 80.824C63.8083 81.608 64.2563 82 65.1663 82H66.1743V80.334ZM63.5423 78.892V79.032C63.5283 79.536 63.3743 79.928 63.0803 80.222C62.7723 80.516 62.3663 80.656 61.8623 80.656C61.5263 80.656 61.2743 80.586 61.0783 80.432C60.8823 80.292 60.7983 80.082 60.7983 79.83C60.7983 79.536 60.9103 79.312 61.1343 79.144C61.3583 78.976 61.6803 78.892 62.1003 78.892H63.5423ZM73.14 75.504C72.594 74.986 71.908 74.72 71.068 74.72C70.536 74.72 70.102 74.818 69.752 74.986C69.388 75.154 69.094 75.392 68.842 75.7L68.66 74.804H66.938V82H68.912V78.318C68.912 77.702 69.052 77.212 69.332 76.862C69.612 76.526 70.004 76.344 70.522 76.344C71.488 76.344 71.978 76.974 71.978 78.206V82H73.952V78.094C73.952 76.89 73.672 76.036 73.14 75.504ZM75.1958 72.2V82H77.1698V80.25L78.2478 79.088L80.0678 82H82.3498L79.6478 77.618L82.2098 74.804H79.9978L77.1698 77.87V72.2H75.1958Z" fill="white"/>
<path d="M99.656 74.28L99.296 73.428L97.976 74.064L98.012 72.588H97.124L97.16 74.052L95.852 73.428L95.492 74.268L96.908 74.796L95.924 75.912L96.608 76.512L97.556 75.264L98.516 76.524L99.212 75.924L98.228 74.808L99.656 74.28ZM104.861 74.28L104.501 73.428L103.181 74.064L103.217 72.588H102.329L102.365 74.052L101.057 73.428L100.697 74.268L102.113 74.796L101.129 75.912L101.813 76.512L102.761 75.264L103.721 76.524L104.417 75.924L103.433 74.808L104.861 74.28ZM110.065 74.28L109.705 73.428L108.385 74.064L108.421 72.588H107.533L107.569 74.052L106.261 73.428L105.901 74.268L107.317 74.796L106.333 75.912L107.017 76.512L107.965 75.264L108.925 76.524L109.621 75.924L108.637 74.808L110.065 74.28ZM115.27 74.28L114.91 73.428L113.59 74.064L113.626 72.588H112.738L112.774 74.052L111.466 73.428L111.106 74.268L112.522 74.796L111.538 75.912L112.222 76.512L113.17 75.264L114.13 76.524L114.826 75.924L113.842 74.808L115.27 74.28ZM124.288 75.696C123.868 75.456 123.4 75.336 122.872 75.336C122.5 75.336 122.152 75.408 121.816 75.528C121.48 75.648 121.192 75.84 120.952 76.104L121.108 73.764H125.116V72.6H119.884L119.632 77.436L120.916 77.46C121.048 77.076 121.276 76.812 121.612 76.656C121.936 76.512 122.272 76.428 122.608 76.428C123.112 76.428 123.52 76.596 123.832 76.92C124.144 77.256 124.3 77.676 124.3 78.18C124.3 78.564 124.216 78.876 124.06 79.14C123.892 79.404 123.688 79.608 123.424 79.74C123.16 79.884 122.884 79.944 122.596 79.944C122.092 79.944 121.684 79.8 121.36 79.488C121.024 79.188 120.844 78.804 120.796 78.348H119.476C119.5 78.852 119.644 79.32 119.908 79.728C120.16 80.136 120.52 80.46 120.976 80.7C121.432 80.94 121.972 81.06 122.596 81.06C123.148 81.06 123.664 80.952 124.132 80.724C124.588 80.508 124.96 80.172 125.236 79.74C125.5 79.308 125.644 78.792 125.644 78.18C125.644 77.628 125.524 77.136 125.284 76.704C125.044 76.272 124.708 75.936 124.288 75.696ZM126.374 77.928V79.056L130.67 79.056V81H131.978V79.056H133.25V77.904H131.978V72.6H130.37L126.374 77.928ZM127.706 77.904L130.67 73.968V77.904L127.706 77.904ZM134.26 78.432C134.38 78.924 134.548 79.356 134.788 79.716C135.064 80.148 135.424 80.484 135.868 80.724C136.3 80.964 136.804 81.072 137.38 81.072C137.956 81.072 138.484 80.952 138.94 80.712C139.396 80.472 139.756 80.136 140.008 79.704C140.26 79.272 140.392 78.792 140.392 78.24C140.392 77.688 140.272 77.196 140.032 76.764C139.792 76.332 139.468 76.008 139.036 75.768C138.604 75.528 138.112 75.408 137.56 75.408C137.056 75.408 136.624 75.516 136.24 75.732C135.856 75.948 135.58 76.248 135.388 76.62C135.352 76.668 135.328 76.716 135.316 76.752C135.304 76.788 135.292 76.812 135.292 76.824V76.5C135.292 75.624 135.46 74.928 135.82 74.412C136.168 73.896 136.66 73.632 137.296 73.632C137.728 73.632 138.088 73.752 138.376 73.968C138.664 74.196 138.844 74.508 138.94 74.904H140.26C140.152 74.172 139.84 73.596 139.324 73.164C138.808 72.744 138.16 72.528 137.392 72.528C136.696 72.528 136.108 72.708 135.616 73.044C135.112 73.392 134.74 73.884 134.476 74.532C134.212 75.18 134.08 75.96 134.08 76.86C134.08 77.424 134.14 77.952 134.26 78.432ZM138.616 76.992C138.916 77.316 139.072 77.736 139.072 78.24C139.072 78.756 138.916 79.176 138.604 79.5C138.292 79.824 137.872 79.98 137.368 79.98C136.864 79.98 136.456 79.824 136.144 79.5C135.832 79.188 135.676 78.768 135.676 78.252C135.676 77.736 135.832 77.316 136.156 76.992C136.468 76.668 136.888 76.5 137.404 76.5C137.908 76.5 138.304 76.668 138.616 76.992ZM144.26 72.6H142.964V73.524C142.964 73.764 142.904 73.944 142.808 74.088C142.7 74.232 142.544 74.304 142.352 74.304H141.032V75.432H142.412C142.64 75.432 142.82 75.396 142.94 75.324V81H144.26V72.6Z" fill="white"/>
<path d="M171.124 140.548C170.728 140.392 170.26 140.26 169.72 140.164C169.18 140.068 168.772 139.984 168.484 139.9C168.196 139.828 167.956 139.708 167.788 139.54C167.62 139.384 167.536 139.168 167.536 138.892C167.536 138.508 167.68 138.22 167.968 138.004C168.256 137.788 168.652 137.68 169.144 137.68C169.648 137.68 170.056 137.812 170.392 138.076C170.716 138.34 170.908 138.688 170.956 139.12H172.312C172.276 138.472 172.036 137.908 171.592 137.452C171.148 136.996 170.56 136.696 169.84 136.576V135.304H168.676V136.54C167.908 136.636 167.296 136.9 166.84 137.344C166.384 137.788 166.156 138.34 166.156 138.988C166.156 139.516 166.276 139.936 166.516 140.248C166.756 140.572 167.08 140.812 167.464 140.968C167.848 141.124 168.316 141.244 168.868 141.34C169.396 141.436 169.816 141.532 170.116 141.616C170.404 141.712 170.644 141.832 170.812 142C170.98 142.168 171.076 142.384 171.076 142.66C171.076 143.056 170.908 143.368 170.596 143.584C170.284 143.8 169.864 143.908 169.36 143.908C168.772 143.908 168.292 143.764 167.932 143.464C167.572 143.164 167.368 142.768 167.332 142.264L165.976 142.24C165.988 142.984 166.24 143.596 166.72 144.1C167.2 144.604 167.86 144.916 168.676 145.024V146.284H169.84V145.048C170.344 145 170.8 144.856 171.196 144.616C171.592 144.376 171.904 144.076 172.12 143.716C172.336 143.356 172.456 142.948 172.456 142.492C172.456 141.988 172.324 141.568 172.084 141.256C171.832 140.944 171.508 140.716 171.124 140.548ZM173.107 136.6V137.764H177.679L173.767 145H175.207L179.143 137.488V136.6H173.107ZM180.465 143.848C180.261 143.584 179.997 143.452 179.685 143.452C179.409 143.452 179.193 143.536 179.025 143.692C178.857 143.848 178.773 144.04 178.773 144.268C178.773 144.52 178.833 144.712 178.965 144.844C179.097 144.976 179.265 145.036 179.481 145.036C179.637 145.036 179.769 145 179.877 144.916C179.877 144.952 179.889 145 179.889 145.072C179.889 145.312 179.793 145.528 179.625 145.696C179.445 145.876 179.181 145.972 178.833 145.972V146.668C179.433 146.668 179.901 146.5 180.249 146.176C180.585 145.864 180.765 145.408 180.765 144.832C180.765 144.448 180.657 144.112 180.465 143.848ZM184.84 141.184L181.612 143.932V145H187.564V143.836H183.508L185.74 141.976C186.328 141.484 186.772 141.028 187.072 140.596C187.36 140.164 187.516 139.672 187.516 139.096C187.516 138.316 187.252 137.692 186.736 137.224C186.208 136.756 185.488 136.516 184.552 136.516C183.964 136.516 183.448 136.636 183.016 136.876C182.572 137.116 182.224 137.452 181.984 137.86C181.744 138.28 181.624 138.748 181.624 139.276V139.504H182.956V139.348C182.956 138.844 183.1 138.436 183.388 138.124C183.676 137.812 184.072 137.656 184.552 137.656C185.044 137.656 185.44 137.788 185.728 138.052C186.016 138.316 186.16 138.688 186.16 139.156C186.16 139.528 186.04 139.864 185.824 140.176C185.608 140.488 185.272 140.824 184.84 141.184ZM193.436 139.696C193.016 139.456 192.548 139.336 192.02 139.336C191.648 139.336 191.3 139.408 190.964 139.528C190.628 139.648 190.34 139.84 190.1 140.104L190.256 137.764H194.264V136.6H189.032L188.78 141.436L190.064 141.46C190.196 141.076 190.424 140.812 190.76 140.656C191.084 140.512 191.42 140.428 191.756 140.428C192.26 140.428 192.668 140.596 192.98 140.92C193.292 141.256 193.448 141.676 193.448 142.18C193.448 142.564 193.364 142.876 193.208 143.14C193.04 143.404 192.836 143.608 192.572 143.74C192.308 143.884 192.032 143.944 191.744 143.944C191.24 143.944 190.832 143.8 190.508 143.488C190.172 143.188 189.992 142.804 189.944 142.348H188.624C188.648 142.852 188.792 143.32 189.056 143.728C189.308 144.136 189.668 144.46 190.124 144.7C190.58 144.94 191.12 145.06 191.744 145.06C192.296 145.06 192.812 144.952 193.28 144.724C193.736 144.508 194.108 144.172 194.384 143.74C194.648 143.308 194.792 142.792 194.792 142.18C194.792 141.628 194.672 141.136 194.432 140.704C194.192 140.272 193.856 139.936 193.436 139.696ZM195.521 141.928V143.056H199.817V145H201.125V143.056H202.398V141.904H201.125V136.6H199.517L195.521 141.928ZM196.853 141.904L199.817 137.968V141.904H196.853ZM203.304 143.668C203.148 143.824 203.076 144.016 203.076 144.256C203.076 144.496 203.148 144.7 203.304 144.844C203.46 145 203.664 145.072 203.904 145.072C204.144 145.072 204.336 145 204.504 144.844C204.66 144.7 204.744 144.496 204.744 144.256C204.744 144.016 204.66 143.824 204.504 143.668C204.336 143.524 204.144 143.44 203.904 143.44C203.664 143.44 203.46 143.524 203.304 143.668ZM205.21 140.608V140.992C205.21 141.832 205.342 142.552 205.618 143.164C205.894 143.788 206.278 144.256 206.782 144.58C207.286 144.916 207.862 145.072 208.522 145.072C209.17 145.072 209.734 144.916 210.238 144.58C210.742 144.256 211.126 143.788 211.402 143.164C211.678 142.552 211.822 141.832 211.822 140.992V140.608C211.822 139.816 211.678 139.108 211.402 138.484C211.114 137.86 210.73 137.38 210.226 137.044C209.722 136.708 209.158 136.528 208.522 136.528C207.874 136.528 207.298 136.708 206.794 137.044C206.29 137.38 205.894 137.86 205.618 138.484C205.342 139.108 205.21 139.816 205.21 140.608ZM209.95 138.484C210.31 139.012 210.49 139.732 210.49 140.656V140.944C210.49 141.88 210.31 142.6 209.95 143.128C209.59 143.656 209.122 143.908 208.522 143.908C207.922 143.908 207.442 143.656 207.082 143.128C206.722 142.6 206.542 141.88 206.542 140.944V140.656C206.542 139.732 206.722 139.012 207.082 138.484C207.442 137.956 207.922 137.692 208.522 137.692C209.122 137.692 209.59 137.956 209.95 138.484ZM212.887 140.608V140.992C212.887 141.832 213.019 142.552 213.295 143.164C213.571 143.788 213.955 144.256 214.459 144.58C214.963 144.916 215.539 145.072 216.199 145.072C216.847 145.072 217.411 144.916 217.915 144.58C218.419 144.256 218.803 143.788 219.079 143.164C219.355 142.552 219.499 141.832 219.499 140.992V140.608C219.499 139.816 219.355 139.108 219.079 138.484C218.791 137.86 218.407 137.38 217.903 137.044C217.399 136.708 216.835 136.528 216.199 136.528C215.551 136.528 214.975 136.708 214.471 137.044C213.967 137.38 213.571 137.86 213.295 138.484C213.019 139.108 212.887 139.816 212.887 140.608ZM217.627 138.484C217.987 139.012 218.167 139.732 218.167 140.656V140.944C218.167 141.88 217.987 142.6 217.627 143.128C217.267 143.656 216.799 143.908 216.199 143.908C215.599 143.908 215.119 143.656 214.759 143.128C214.399 142.6 214.219 141.88 214.219 140.944V140.656C214.219 139.732 214.399 139.012 214.759 138.484C215.119 137.956 215.599 137.692 216.199 137.692C216.799 137.692 217.267 137.956 217.627 138.484Z" fill="white"/>
<path d="M229.21 140.357C229.142 140.249 229.108 140.195 229.089 140.112C229.075 140.049 229.075 139.951 229.089 139.888C229.108 139.805 229.142 139.751 229.21 139.643C229.773 138.752 231.448 136.5 234 136.5C236.553 136.5 238.228 138.752 238.79 139.643C238.858 139.751 238.892 139.805 238.912 139.888C238.926 139.951 238.926 140.049 238.912 140.112C238.892 140.195 238.858 140.249 238.79 140.357C238.228 141.248 236.553 143.5 234 143.5C231.448 143.5 229.773 141.248 229.21 140.357Z" stroke="white" stroke-linecap="round" stroke-linejoin="round"/>
<path d="M234 141.5C234.829 141.5 235.5 140.828 235.5 140C235.5 139.172 234.829 138.5 234 138.5C233.172 138.5 232.5 139.172 232.5 140C232.5 140.828 233.172 141.5 234 141.5Z" stroke="white" stroke-linecap="round" stroke-linejoin="round"/>
</g>
<defs>
<filter id="filter0_bii_751_4749" x="-30.2472" y="85.7528" width="324.494" height="108.494" filterUnits="userSpaceOnUse" color-interpolation-filters="sRGB">
<feFlood flood-opacity="0" result="BackgroundImageFix"/>
<feGaussianBlur in="BackgroundImageFix" stdDeviation="15.1236"/>
<feComposite in2="SourceAlpha" operator="in" result="effect1_backgroundBlur_751_4749"/>
<feBlend mode="normal" in="SourceGraphic" in2="effect1_backgroundBlur_751_4749" result="shape"/>
<feColorMatrix in="SourceAlpha" type="matrix" values="0 0 0 0 0 0 0 0 0 0 0 0 0 0 0 0 0 0 127 0" result="hardAlpha"/>
<feOffset dx="-0.241978" dy="-0.241978"/>
<feGaussianBlur stdDeviation="0.181483"/>
<feComposite in2="hardAlpha" operator="arithmetic" k2="-1" k3="1"/>
<feColorMatrix type="matrix" values="0 0 0 0 0 0 0 0 0 0 0 0 0 0 0 0 0 0 0.36 0"/>
<feBlend mode="normal" in2="shape" result="effect2_innerShadow_751_4749"/>
<feColorMatrix in="SourceAlpha" type="matrix" values="0 0 0 0 0 0 0 0 0 0 0 0 0 0 0 0 0 0 127 0" result="hardAlpha"/>
<feOffset dx="0.604944" dy="0.483955"/>
<feGaussianBlur stdDeviation="0.241978"/>
<feComposite in2="hardAlpha" operator="arithmetic" k2="-1" k3="1"/>
<feColorMatrix type="matrix" values="0 0 0 0 1 0 0 0 0 1 0 0 0 0 1 0 0 0 0.25 0"/>
<feBlend mode="normal" in2="effect2_innerShadow_751_4749" result="effect3_innerShadow_751_4749"/>
</filter>
<linearGradient id="paint0_linear_751_4749" x1="232" y1="-44.1619" x2="232" y2="96.1607" gradientUnits="userSpaceOnUse">
<stop stop-color="#5B66FA"/>
<stop offset="1" stop-color="#EFD3EF"/>
</linearGradient>
<linearGradient id="paint1_linear_751_4749" x1="232" y1="-44.1619" x2="232" y2="96.1607" gradientUnits="userSpaceOnUse">
<stop stop-color="#5B66FA"/>
<stop offset="1" stop-color="#EFD3EF"/>
</linearGradient>
<linearGradient id="paint2_linear_751_4749" x1="21.239" y1="20.3913" x2="51.9505" y2="40.0597" gradientUnits="userSpaceOnUse">
<stop stop-color="#B0A3F5"/>
<stop offset="0.494792" stop-color="white"/>
<stop offset="1" stop-color="#7259ED"/>
</linearGradient>
<linearGradient id="paint3_linear_751_4749" x1="21.2033" y1="21.3478" x2="50.7694" y2="41.5408" gradientUnits="userSpaceOnUse">
<stop stop-color="#B0A3F5"/>
<stop offset="0.494792" stop-color="white"/>
<stop offset="1" stop-color="#7259ED"/>
</linearGradient>
<clipPath id="clip0_751_4749">
<rect width="264" height="164" rx="12" fill="white"/>
</clipPath>
<clipPath id="clip1_751_4749">
<rect width="150" height="150" fill="white" transform="translate(157 -49)"/>
</clipPath>
<clipPath id="clip2_751_4749">
<rect width="44" height="34" fill="white" transform="translate(204 16)"/>
</clipPath>
<clipPath id="clip3_751_4749">
<rect width="16" height="16" fill="white" transform="translate(76 24) rotate(90)"/>
</clipPath>
</defs>
</svg>
