<svg width="544" height="250" viewBox="0 0 544 250" fill="none" xmlns="http://www.w3.org/2000/svg">
<g clip-path="url(#clip0_751_4710)">
<rect x="-16.4" y="122.6" width="98.8" height="38.8" rx="15.4" stroke="url(#paint0_linear_751_4710)" stroke-width="1.2"/>
<rect x="-24.4" y="26.6" width="194.8" height="62.8" rx="23.4" stroke="url(#paint1_linear_751_4710)" stroke-width="1.2"/>
<rect x="31.6" y="146.6" width="178.8" height="46.8" rx="23.4" stroke="url(#paint2_linear_751_4710)" stroke-width="1.2"/>
<rect x="579.4" y="113.4" width="194.8" height="62.8" rx="23.4" transform="rotate(-180 579.4 113.4)" stroke="url(#paint3_linear_751_4710)" stroke-width="1.2"/>
<rect x="616.4" y="201.4" width="162.8" height="38.8" rx="15.4" transform="rotate(-180 616.4 201.4)" stroke="url(#paint4_linear_751_4710)" stroke-width="1.2"/>
<rect x="520.4" y="193.4" width="162.8" height="46.8" rx="15.4" transform="rotate(-180 520.4 193.4)" stroke="url(#paint5_linear_751_4710)" stroke-width="1.2"/>
<g clip-path="url(#clip1_751_4710)">
<rect x="173.723" y="19.6299" width="264" height="164" transform="rotate(15 173.723 19.6299)" fill="#DEDAFB"/>
<path d="M174.751 97.0149C174.177 97.6437 173.776 98.435 173.519 99.3951C173.258 100.369 173.209 101.254 173.392 102.086C173.575 102.918 173.954 103.613 174.552 104.194C175.147 104.788 175.921 105.199 176.867 105.452C177.598 105.648 178.296 105.69 178.971 105.552C179.629 105.424 180.211 105.145 180.717 104.715C181.206 104.296 181.586 103.745 181.852 103.077L179.823 102.534C179.557 103.042 179.197 103.41 178.735 103.619C178.273 103.829 177.774 103.854 177.219 103.706C176.462 103.503 175.93 103.056 175.649 102.372C175.355 101.684 175.342 100.869 175.588 99.9495C175.834 99.03 176.254 98.3307 176.852 97.8823C177.437 97.4302 178.122 97.3093 178.879 97.5122C179.433 97.6608 179.85 97.9463 180.145 98.3588C180.44 98.7712 180.571 99.2557 180.548 99.8292L182.576 100.373C182.677 99.6748 182.623 99.0083 182.413 98.3867C182.186 97.775 181.821 97.2425 181.319 96.7892C180.8 96.3458 180.177 96.0195 179.447 95.8238C178.501 95.5702 177.621 95.552 176.813 95.7557C176.001 95.973 175.325 96.3861 174.751 97.0149ZM183.53 106.774C184.005 107.22 184.618 107.529 185.348 107.725C186.078 107.92 186.75 107.955 187.384 107.806C188.019 107.657 188.56 107.368 189.002 106.907C189.445 106.445 189.774 105.867 189.966 105.15C190.154 104.447 190.159 103.781 190.006 103.161C189.854 102.54 189.53 102.018 189.055 101.572C188.58 101.126 187.984 100.807 187.254 100.612C186.524 100.416 185.835 100.391 185.201 100.54C184.567 100.689 184.025 100.978 183.583 101.44C183.14 101.901 182.825 102.483 182.636 103.186C182.448 103.889 182.43 104.551 182.583 105.172C182.735 105.792 183.056 106.328 183.53 106.774ZM187.171 105.952C186.759 106.247 186.292 106.311 185.765 106.169C185.238 106.028 184.865 105.74 184.656 105.278C184.443 104.83 184.424 104.303 184.584 103.708C184.743 103.113 185.019 102.679 185.431 102.384C185.84 102.102 186.31 102.025 186.837 102.167C187.365 102.308 187.733 102.61 187.947 103.058C188.156 103.52 188.192 104.037 188.032 104.632C187.873 105.227 187.58 105.67 187.171 105.952ZM194.383 99.8404C194.221 99.5796 193.993 99.4025 193.682 99.3192C193.358 99.2322 193.072 99.2716 192.801 99.4164C192.53 99.5613 192.367 99.7929 192.287 100.09C192.204 100.401 192.23 100.684 192.392 100.945C192.55 101.219 192.782 101.382 193.106 101.469C193.417 101.553 193.699 101.527 193.974 101.368C194.231 101.22 194.408 100.992 194.491 100.681C194.571 100.384 194.532 100.098 194.383 99.8404ZM191.947 101.956L190.084 108.907L191.991 109.418L193.853 102.467L191.947 101.956ZM200.992 105.104C200.598 104.462 200.005 104.028 199.193 103.811C198.679 103.673 198.235 103.655 197.853 103.727C197.458 103.795 197.112 103.949 196.789 104.181L196.845 103.268L195.182 102.823L193.32 109.774L195.226 110.284L196.179 106.728C196.339 106.133 196.601 105.696 196.962 105.43C197.319 105.178 197.745 105.104 198.245 105.238C199.179 105.488 199.489 106.223 199.17 107.413L198.188 111.078L200.095 111.589L201.106 107.816C201.417 106.653 201.368 105.756 200.992 105.104ZM208.73 106.83C208.32 106.415 207.805 106.118 207.183 105.951C206.318 105.72 205.527 105.856 204.83 106.35L205.739 102.956L203.833 102.445L201.296 111.911L202.959 112.357L203.402 111.461C203.545 111.847 203.778 112.17 204.092 112.457C204.393 112.741 204.804 112.938 205.291 113.068C205.899 113.231 206.494 113.231 207.06 113.064C207.627 112.897 208.118 112.579 208.533 112.111C208.948 111.642 209.264 111.06 209.452 110.357C209.644 109.64 209.662 108.978 209.537 108.365C209.411 107.751 209.141 107.244 208.73 106.83ZM206.654 111.172C206.228 111.464 205.775 111.531 205.261 111.393C204.747 111.256 204.375 110.968 204.179 110.509C203.966 110.061 203.948 109.534 204.111 108.926C204.27 108.331 204.546 107.897 204.955 107.615C205.35 107.33 205.82 107.253 206.334 107.391C206.848 107.528 207.202 107.826 207.429 108.278C207.639 108.74 207.674 109.257 207.515 109.852C207.355 110.447 207.063 110.891 206.654 111.172ZM216.85 114.354L216.634 114.296C216.471 114.252 216.37 114.196 216.321 114.111C216.254 114.035 216.26 113.906 216.307 113.73L216.963 111.282C217.18 110.471 217.08 109.763 216.655 109.185C216.23 108.608 215.531 108.188 214.557 107.927C213.611 107.674 212.813 107.677 212.139 107.917C211.466 108.157 210.993 108.625 210.751 109.313L212.59 109.806C212.699 109.56 212.889 109.394 213.162 109.293C213.419 109.202 213.738 109.201 214.089 109.295C214.482 109.4 214.767 109.578 214.96 109.832C215.139 110.083 215.196 110.359 215.112 110.67L215.022 111.009L213.642 110.639C212.601 110.36 211.749 110.349 211.099 110.61C210.45 110.87 210.027 111.366 209.831 112.096C209.657 112.745 209.749 113.321 210.129 113.799C210.508 114.278 211.083 114.62 211.867 114.83C212.381 114.968 212.852 114.993 213.289 114.878C213.709 114.773 214.099 114.559 214.465 114.222C214.235 114.972 214.566 115.467 215.445 115.702L216.419 115.963L216.85 114.354ZM214.681 112.28L214.645 112.415C214.501 112.898 214.251 113.237 213.89 113.445C213.517 113.649 213.088 113.679 212.602 113.549C212.277 113.462 212.052 113.329 211.902 113.129C211.749 112.944 211.722 112.719 211.788 112.476C211.864 112.192 212.03 112.004 212.29 111.9C212.55 111.796 212.882 111.798 213.288 111.906L214.681 112.28ZM224.828 111.491C224.435 110.85 223.841 110.415 223.03 110.198C222.516 110.06 222.072 110.042 221.69 110.114C221.295 110.182 220.949 110.336 220.626 110.568L220.682 109.656L219.019 109.21L217.157 116.161L219.063 116.672L220.016 113.115C220.176 112.52 220.438 112.083 220.799 111.817C221.156 111.565 221.582 111.491 222.082 111.625C223.015 111.875 223.326 112.61 223.007 113.8L222.025 117.465L223.932 117.976L224.942 114.203C225.254 113.04 225.205 112.143 224.828 111.491ZM227.669 108.832L225.133 118.298L227.04 118.809L227.493 117.118L228.835 116.275L229.839 119.559L232.043 120.15L230.567 115.218L233.77 113.162L231.634 112.59L228.109 114.82L229.576 109.343L227.669 108.832Z" fill="#0E0637"/>
<path d="M250.758 117.172L250.63 116.256L249.191 116.528L249.608 115.112L248.75 114.882L248.406 116.305L247.304 115.364L246.739 116.082L247.97 116.959L246.73 117.782L247.236 118.539L248.475 117.579L249.076 119.044L249.903 118.645L249.242 117.312L250.758 117.172ZM255.785 118.519L255.658 117.603L254.218 117.875L254.635 116.459L253.777 116.229L253.433 117.652L252.331 116.711L251.766 117.429L252.997 118.306L251.758 119.129L252.263 119.886L253.502 118.926L254.103 120.391L254.931 119.992L254.269 118.659L255.785 118.519ZM260.812 119.866L260.685 118.95L259.245 119.222L259.662 117.806L258.804 117.576L258.46 119L257.358 118.058L256.793 118.776L258.024 119.653L256.785 120.476L257.29 121.233L258.529 120.273L259.13 121.738L259.958 121.339L259.296 120.006L260.812 119.866ZM265.839 121.213L265.712 120.297L264.272 120.569L264.689 119.153L263.831 118.923L263.487 120.347L262.385 119.405L261.82 120.123L263.051 121L261.812 121.823L262.317 122.58L263.556 121.62L264.157 123.085L264.985 122.686L264.323 121.353L265.839 121.213ZM272.165 125.914L268.336 127.733L268.059 128.765L273.808 130.305L274.11 129.181L270.192 128.131L272.829 126.912C273.525 126.589 274.071 126.264 274.473 125.924C274.863 125.581 275.141 125.146 275.29 124.59C275.492 123.837 275.398 123.165 275.021 122.58C274.632 121.991 273.999 121.573 273.095 121.331C272.527 121.179 271.997 121.161 271.518 121.281C271.027 121.398 270.604 121.632 270.266 121.964C269.926 122.308 269.689 122.729 269.552 123.239L269.493 123.459L270.78 123.804L270.82 123.653C270.951 123.166 271.195 122.809 271.554 122.583C271.913 122.356 272.336 122.308 272.8 122.432C273.275 122.559 273.623 122.789 273.833 123.119C274.043 123.448 274.086 123.845 273.965 124.297C273.868 124.656 273.666 124.95 273.376 125.195C273.087 125.441 272.675 125.678 272.165 125.914ZM275.647 128.139C275.636 128.646 275.686 129.106 275.825 129.516C275.98 130.005 276.241 130.423 276.607 130.769C276.963 131.113 277.421 131.348 277.978 131.497C278.534 131.646 279.075 131.667 279.578 131.553C280.08 131.439 280.515 131.208 280.87 130.856C281.226 130.504 281.477 130.074 281.62 129.541C281.763 129.008 281.774 128.501 281.654 128.022C281.534 127.543 281.305 127.146 280.95 126.802C280.595 126.459 280.151 126.215 279.618 126.072C279.131 125.942 278.686 125.935 278.259 126.044C277.832 126.153 277.488 126.371 277.206 126.681C277.159 126.718 277.123 126.758 277.102 126.79C277.081 126.822 277.063 126.842 277.06 126.853L277.144 126.54C277.371 125.694 277.713 125.065 278.195 124.66C278.664 124.252 279.208 124.124 279.822 124.289C280.24 124.4 280.556 124.61 280.778 124.893C280.998 125.188 281.091 125.535 281.081 125.943L282.356 126.284C282.441 125.549 282.289 124.912 281.902 124.362C281.513 123.822 280.943 123.446 280.201 123.247C279.528 123.067 278.914 123.089 278.352 123.286C277.775 123.492 277.288 123.871 276.865 124.428C276.443 124.986 276.113 125.705 275.88 126.574C275.734 127.119 275.656 127.645 275.647 128.139ZM280.228 127.876C280.434 128.266 280.476 128.712 280.345 129.199C280.212 129.698 279.952 130.063 279.567 130.295C279.182 130.527 278.736 130.569 278.249 130.439C277.762 130.309 277.408 130.052 277.191 129.659C276.97 129.276 276.928 128.83 277.062 128.332C277.195 127.834 277.455 127.468 277.851 127.239C278.237 127.007 278.686 126.953 279.184 127.087C279.671 127.217 280.01 127.482 280.228 127.876ZM288.421 130.419C288.178 129.981 287.808 129.646 287.326 129.405C287.791 129.43 288.206 129.318 288.598 129.063C288.975 128.816 289.231 128.462 289.355 127.998C289.467 127.581 289.454 127.168 289.32 126.784C289.175 126.397 288.916 126.067 288.548 125.77C288.181 125.472 287.707 125.246 287.151 125.097C286.583 124.945 286.06 124.904 285.593 124.978C285.126 125.051 284.736 125.208 284.429 125.473C284.11 125.736 283.903 126.09 283.791 126.508C283.664 126.983 283.698 127.414 283.9 127.816C284.092 128.215 284.395 128.52 284.811 128.731C284.27 128.71 283.793 128.819 283.376 129.08C282.958 129.34 282.674 129.749 282.528 130.294C282.41 130.734 282.421 131.159 282.571 131.572C282.71 131.982 282.986 132.342 283.388 132.648C283.791 132.955 284.311 133.194 284.937 133.361C285.562 133.529 286.12 133.579 286.622 133.515C287.124 133.451 287.543 133.277 287.88 132.995C288.205 132.709 288.438 132.349 288.556 131.909C288.705 131.352 288.652 130.854 288.421 130.419ZM285.696 126.123C286.036 125.966 286.438 125.95 286.89 126.071C287.331 126.189 287.67 126.404 287.886 126.71C288.103 127.017 288.176 127.347 288.082 127.695C287.986 128.054 287.758 128.303 287.417 128.461C287.077 128.618 286.678 128.623 286.238 128.505C285.786 128.384 285.443 128.18 285.227 127.874C284.996 127.576 284.935 127.249 285.034 126.878C285.127 126.53 285.344 126.278 285.696 126.123ZM286.537 132.349C286.144 132.517 285.693 132.533 285.194 132.399C284.684 132.263 284.301 132.023 284.045 131.681C283.789 131.34 283.713 130.971 283.822 130.566C283.928 130.172 284.177 129.891 284.573 129.711C284.969 129.531 285.423 129.504 285.933 129.641C286.42 129.771 286.8 130.022 287.053 130.376C287.307 130.729 287.393 131.1 287.288 131.494C287.179 131.9 286.93 132.181 286.537 132.349ZM290.12 130.129L290.021 130.5C289.803 131.311 289.745 132.041 289.853 132.703C289.958 133.378 290.208 133.929 290.611 134.373C291.011 134.828 291.527 135.127 292.164 135.298C292.79 135.466 293.375 135.461 293.949 135.267C294.52 135.084 295.012 134.732 295.44 134.201C295.865 133.681 296.19 133.023 296.408 132.211L296.507 131.84C296.712 131.075 296.756 130.354 296.651 129.68C296.534 129.003 296.288 128.44 295.888 127.985C295.488 127.53 294.99 127.21 294.375 127.045C293.749 126.878 293.146 126.902 292.573 127.096C291.999 127.291 291.492 127.652 291.064 128.183C290.636 128.714 290.325 129.364 290.12 130.129ZM295.248 129.304C295.46 129.907 295.447 130.649 295.208 131.542L295.133 131.82C294.891 132.724 294.531 133.373 294.047 133.79C293.562 134.207 293.045 134.329 292.465 134.174C291.886 134.018 291.487 133.651 291.276 133.048C291.065 132.444 291.078 131.702 291.32 130.798L291.394 130.52C291.634 129.628 291.994 128.979 292.478 128.562C292.963 128.145 293.495 128.014 294.074 128.17C294.654 128.325 295.037 128.701 295.248 129.304Z" fill="#0E0637"/>
<g filter="url(#filter0_bi_751_4710)">
<path d="M143.699 131.677L398.704 200.005L386.28 246.37L131.276 178.042L143.699 131.677Z" fill="white" fill-opacity="0.5"/>
</g>
<path d="M162.7 162.754L162.41 162.676C162.143 162.605 162.053 162.431 162.131 162.142L162.814 159.592C162.997 158.908 162.928 158.33 162.61 157.847C162.293 157.365 161.763 157.024 161.009 156.822C160.291 156.63 159.668 156.637 159.14 156.843C158.613 157.05 158.237 157.433 158.012 157.994L158.962 158.249C159.101 157.963 159.325 157.775 159.642 157.661C159.958 157.547 160.319 157.544 160.736 157.656C161.2 157.78 161.528 157.992 161.727 158.269C161.923 158.558 161.982 158.896 161.879 159.279L161.77 159.685L160.032 159.219C159.255 159.011 158.62 159.015 158.131 159.219C157.638 159.435 157.32 159.834 157.162 160.425C157.019 160.958 157.101 161.44 157.414 161.847C157.725 162.265 158.217 162.559 158.878 162.736C159.736 162.966 160.483 162.818 161.124 162.282C161.043 162.583 161.074 162.84 161.196 163.034C161.315 163.24 161.563 163.381 161.945 163.483L162.467 163.623L162.7 162.754ZM161.556 160.484L161.478 160.774C161.342 161.284 161.059 161.643 160.654 161.858C160.237 162.069 159.745 162.099 159.165 161.943C158.771 161.838 158.48 161.673 158.298 161.425C158.112 161.189 158.059 160.926 158.139 160.625C158.313 159.976 158.844 159.758 159.725 159.994L161.556 160.484ZM164.519 162.086L163.569 161.831C163.398 162.469 163.508 163.032 163.878 163.504C164.245 163.988 164.825 164.329 165.601 164.538C166.03 164.652 166.443 164.689 166.843 164.634C167.228 164.588 167.573 164.457 167.857 164.235C168.137 164.024 168.325 163.739 168.421 163.38C168.53 162.974 168.512 162.622 168.369 162.322C168.222 162.035 168.002 161.789 167.697 161.583C167.389 161.389 166.982 161.193 166.491 160.987C166.132 160.841 165.863 160.732 165.69 160.636C165.514 160.551 165.394 160.444 165.309 160.297C165.221 160.162 165.203 159.996 165.259 159.787C165.331 159.521 165.506 159.331 165.804 159.237C166.091 159.14 166.44 159.135 166.846 159.243C167.24 159.349 167.537 159.54 167.75 159.809C167.95 160.086 168.032 160.381 167.998 160.695L168.948 160.949C169.063 160.334 168.944 159.805 168.59 159.363C168.237 158.92 167.724 158.609 167.029 158.423C166.6 158.308 166.196 158.286 165.819 158.347C165.431 158.404 165.108 158.542 164.84 158.755C164.568 158.981 164.395 159.257 164.302 159.605C164.196 159.999 164.208 160.325 164.358 160.602C164.496 160.875 164.719 161.108 165.019 161.288C165.315 161.479 165.711 161.672 166.205 161.867C166.552 162.009 166.818 162.13 167.002 162.23C167.187 162.329 167.324 162.465 167.421 162.615C167.503 162.774 167.526 162.966 167.464 163.198C167.389 163.476 167.191 163.659 166.892 163.753C166.594 163.847 166.236 163.838 165.819 163.726C165.344 163.599 164.989 163.392 164.75 163.079C164.507 162.778 164.434 162.448 164.519 162.086ZM169.989 159.303L170.315 165.738L171.361 166.006L174.022 162.011L174.27 166.786L175.314 167.065L178.868 161.682L177.906 161.424L175.076 165.821L174.892 160.617L174.011 160.381L171.169 164.775L170.986 159.57L169.989 159.303ZM183.622 168.36L183.332 168.282C183.066 168.211 182.975 168.038 183.053 167.748L183.736 165.198C183.92 164.514 183.851 163.936 183.533 163.454C183.215 162.971 182.685 162.63 181.932 162.428C181.213 162.236 180.59 162.243 180.063 162.449C179.535 162.656 179.159 163.039 178.934 163.6L179.885 163.855C180.023 163.569 180.248 163.381 180.564 163.267C180.88 163.153 181.241 163.15 181.659 163.262C182.122 163.386 182.451 163.598 182.65 163.875C182.846 164.164 182.904 164.503 182.801 164.885L182.693 165.291L180.954 164.825C180.177 164.617 179.543 164.621 179.053 164.825C178.561 165.041 178.242 165.44 178.084 166.031C177.941 166.564 178.023 167.046 178.337 167.453C178.647 167.872 179.14 168.165 179.8 168.342C180.658 168.572 181.406 168.424 182.047 167.888C181.966 168.189 181.996 168.446 182.118 168.64C182.237 168.846 182.485 168.987 182.868 169.089L183.389 169.229L183.622 168.36ZM182.478 166.091L182.401 166.38C182.264 166.89 181.982 167.249 181.576 167.464C181.159 167.675 180.667 167.705 180.087 167.549C179.693 167.444 179.402 167.279 179.22 167.031C179.035 166.795 178.981 166.532 179.062 166.231C179.236 165.582 179.766 165.364 180.647 165.6L182.478 166.091ZM186.352 161.327L184.178 169.441L185.128 169.695L187.302 161.581L186.352 161.327ZM188.662 161.946L186.488 170.06L187.439 170.314L189.613 162.201L188.662 161.946ZM190.155 166.172C189.799 166.574 189.544 167.064 189.382 167.667C189.221 168.27 189.197 168.823 189.316 169.351C189.435 169.88 189.69 170.321 190.062 170.694C190.434 171.067 190.913 171.32 191.504 171.478C192.176 171.658 192.794 171.625 193.36 171.367C193.926 171.108 194.35 170.688 194.627 170.116L193.665 169.858C193.458 170.213 193.18 170.461 192.823 170.589C192.466 170.717 192.079 170.725 191.661 170.613C191.105 170.464 190.711 170.172 190.468 169.735C190.214 169.294 190.164 168.783 190.308 168.201L190.329 168.12L194.919 169.35C194.981 169.167 195.026 169.043 195.051 168.95C195.18 168.376 195.186 167.843 195.069 167.352C194.938 166.87 194.7 166.458 194.345 166.115C193.987 165.783 193.531 165.536 192.998 165.393C192.441 165.244 191.92 165.241 191.435 165.385C190.938 165.525 190.508 165.782 190.155 166.172ZM194.169 168.304L190.598 167.347C190.769 166.896 191.057 166.563 191.486 166.355C191.899 166.155 192.334 166.11 192.786 166.231C193.284 166.365 193.664 166.616 193.914 166.981C194.164 167.346 194.256 167.793 194.169 168.304ZM197.02 167.477L196.082 170.978C195.939 171.511 195.95 171.936 196.116 172.242C196.28 172.559 196.654 172.784 197.211 172.933L198.3 173.225L198.533 172.355L197.502 172.079C197.258 172.014 197.097 171.921 197.032 171.792C196.967 171.662 196.967 171.476 197.036 171.221L197.971 167.732L199.466 168.133L199.699 167.263L198.203 166.863L198.648 165.205L197.697 164.951L197.253 166.608L196.187 166.322L195.954 167.192L197.02 167.477ZM199.44 172.412C199.281 172.494 199.18 172.64 199.13 172.826C199.078 173.023 199.092 173.201 199.188 173.351C199.273 173.498 199.42 173.599 199.617 173.652C199.803 173.702 199.98 173.687 200.139 173.606C200.286 173.521 200.399 173.377 200.452 173.18C200.501 172.995 200.475 172.814 200.39 172.667C200.294 172.517 200.15 172.404 199.965 172.354C199.768 172.301 199.587 172.327 199.44 172.412ZM202.509 169.482C202.153 169.884 201.897 170.375 201.736 170.977C201.574 171.58 201.55 172.133 201.67 172.662C201.789 173.19 202.043 173.631 202.415 174.004C202.788 174.377 203.267 174.63 203.858 174.788C204.53 174.968 205.148 174.935 205.714 174.677C206.28 174.419 206.703 173.998 206.981 173.426L206.019 173.168C205.812 173.523 205.534 173.772 205.177 173.899C204.819 174.027 204.432 174.035 204.015 173.924C203.459 173.774 203.065 173.483 202.822 173.045C202.567 172.604 202.517 172.094 202.661 171.511L202.683 171.43L207.273 172.66C207.334 172.477 207.38 172.353 207.405 172.26C207.534 171.686 207.54 171.153 207.423 170.662C207.291 170.18 207.054 169.768 206.699 169.425C206.34 169.093 205.885 168.846 205.351 168.704C204.795 168.554 204.274 168.552 203.788 168.695C203.291 168.835 202.862 169.093 202.509 169.482ZM206.522 171.614L202.952 170.657C203.123 170.206 203.411 169.873 203.839 169.665C204.253 169.465 204.687 169.42 205.139 169.541C205.638 169.675 206.018 169.926 206.268 170.291C206.518 170.656 206.609 171.103 206.522 171.614ZM209.374 170.788L208.436 174.288C208.293 174.821 208.303 175.246 208.47 175.552C208.633 175.869 209.008 176.094 209.564 176.243L210.654 176.535L210.887 175.665L209.855 175.389C209.612 175.324 209.45 175.231 209.385 175.102C209.321 174.973 209.321 174.786 209.389 174.531L210.324 171.042L211.819 171.443L212.052 170.574L210.557 170.173L211.001 168.515L210.051 168.261L209.607 169.918L208.54 169.633L208.307 170.502L209.374 170.788ZM217.453 172.642C217.127 172.095 216.607 171.719 215.888 171.527C215.425 171.403 215.003 171.401 214.628 171.5C214.251 171.61 213.928 171.797 213.661 172.048L214.512 168.872L213.562 168.618L211.388 176.731L212.338 176.986L213.13 174.03C213.307 173.37 213.598 172.889 214.028 172.581C214.455 172.286 214.937 172.204 215.493 172.353C216.003 172.489 216.365 172.76 216.557 173.16C216.748 173.559 216.763 174.06 216.601 174.662L215.735 177.896L216.685 178.151L217.567 174.859C217.816 173.932 217.775 173.2 217.453 172.642Z" fill="#0E0637"/>
</g>
<mask id="path-13-inside-1_751_4710" fill="white">
<path d="M0 0H544V250H0V0Z"/>
</mask>
<path d="M0 0H544V250H0V0Z" fill="url(#paint6_radial_751_4710)"/>
<path d="M-2 -2H546L542 2H2L-2 -2ZM544 250H0H544ZM-2 250V-2L2 2V250H-2ZM546 -2V250H542V2L546 -2Z" fill="#E3E3E8" mask="url(#path-13-inside-1_751_4710)"/>
</g>
<defs>
<filter id="filter0_bi_751_4710" x="101.029" y="101.43" width="327.922" height="175.187" filterUnits="userSpaceOnUse" color-interpolation-filters="sRGB">
<feFlood flood-opacity="0" result="BackgroundImageFix"/>
<feGaussianBlur in="BackgroundImageFix" stdDeviation="15.1236"/>
<feComposite in2="SourceAlpha" operator="in" result="effect1_backgroundBlur_751_4710"/>
<feBlend mode="normal" in="SourceGraphic" in2="effect1_backgroundBlur_751_4710" result="shape"/>
<feColorMatrix in="SourceAlpha" type="matrix" values="0 0 0 0 0 0 0 0 0 0 0 0 0 0 0 0 0 0 127 0" result="hardAlpha"/>
<feOffset dx="0.604944" dy="0.483955"/>
<feGaussianBlur stdDeviation="0.241978"/>
<feComposite in2="hardAlpha" operator="arithmetic" k2="-1" k3="1"/>
<feColorMatrix type="matrix" values="0 0 0 0 1 0 0 0 0 1 0 0 0 0 1 0 0 0 0.25 0"/>
<feBlend mode="normal" in2="shape" result="effect2_innerShadow_751_4710"/>
</filter>
<linearGradient id="paint0_linear_751_4710" x1="83" y1="142" x2="-6" y2="139.5" gradientUnits="userSpaceOnUse">
<stop stop-color="#E3E3E8"/>
<stop offset="1" stop-color="#E3E3E8" stop-opacity="0"/>
</linearGradient>
<linearGradient id="paint1_linear_751_4710" x1="171" y1="58" x2="-3.37117" y2="51.9999" gradientUnits="userSpaceOnUse">
<stop stop-color="#E3E3E8"/>
<stop offset="1" stop-color="#E3E3E8" stop-opacity="0"/>
</linearGradient>
<linearGradient id="paint2_linear_751_4710" x1="211" y1="170" x2="50.9577" y2="163.257" gradientUnits="userSpaceOnUse">
<stop stop-color="#E3E3E8"/>
<stop offset="1" stop-color="#E3E3E8" stop-opacity="0"/>
</linearGradient>
<linearGradient id="paint3_linear_751_4710" x1="776" y1="146" x2="601.629" y2="140" gradientUnits="userSpaceOnUse">
<stop stop-color="#E3E3E8"/>
<stop offset="1" stop-color="#E3E3E8" stop-opacity="0"/>
</linearGradient>
<linearGradient id="paint4_linear_751_4710" x1="781" y1="222" x2="635.234" y2="215.285" gradientUnits="userSpaceOnUse">
<stop stop-color="#E3E3E8"/>
<stop offset="1" stop-color="#E3E3E8" stop-opacity="0"/>
</linearGradient>
<linearGradient id="paint5_linear_751_4710" x1="685" y1="218" x2="488.562" y2="214.499" gradientUnits="userSpaceOnUse">
<stop stop-color="#E3E3E8"/>
<stop offset="1" stop-color="#E3E3E8" stop-opacity="0"/>
</linearGradient>
<radialGradient id="paint6_radial_751_4710" cx="0" cy="0" r="1" gradientUnits="userSpaceOnUse" gradientTransform="translate(272 125) rotate(90) scale(219.828 255)">
<stop stop-color="white" stop-opacity="0"/>
<stop offset="1" stop-color="white" stop-opacity="0.7"/>
</radialGradient>
<clipPath id="clip0_751_4710">
<rect width="544" height="250" fill="white"/>
</clipPath>
<clipPath id="clip1_751_4710">
<rect x="173.723" y="19.6299" width="264" height="164" rx="12" transform="rotate(15 173.723 19.6299)" fill="white"/>
</clipPath>
</defs>
</svg>
