<?xml version="1.0" standalone="no"?>
<!DOCTYPE svg PUBLIC "-//W3C//DTD SVG 20010904//EN"
 "http://www.w3.org/TR/2001/REC-SVG-20010904/DTD/svg10.dtd">
<svg version="1.0" xmlns="http://www.w3.org/2000/svg"
 width="1024.000000pt" height="1024.000000pt" viewBox="0 0 1024.000000 1024.000000"
 preserveAspectRatio="xMidYMid meet">
<metadata>
Created by potrace 1.14, written by Peter Selinger 2001-2017
</metadata>
<g transform="translate(0.000000,1024.000000) scale(0.100000,-0.100000)"
fill="#000000" stroke="none">
<path d="M5008 8965 c-4 -4 -73 -9 -155 -10 -142 -4 -279 -10 -408 -21 -33 -2
-82 -6 -110 -8 -66 -6 -195 -19 -285 -31 -14 -1 -50 -6 -80 -9 -30 -3 -64 -8
-75 -10 -21 -4 -123 -20 -140 -21 -19 -2 -100 -16 -175 -30 -41 -8 -91 -17
-110 -20 -19 -4 -55 -11 -80 -16 -25 -6 -56 -13 -70 -15 -24 -5 -122 -28 -260
-61 -36 -8 -103 -26 -150 -40 -47 -13 -96 -27 -109 -29 -13 -3 -39 -11 -57
-19 -19 -8 -34 -12 -34 -10 0 7 -392 -130 -525 -184 -216 -88 -571 -256 -607
-288 -10 -9 -18 -13 -18 -9 0 4 -13 -2 -29 -13 -16 -12 -34 -21 -40 -21 -6 0
-11 -4 -11 -10 0 -5 -6 -10 -12 -10 -7 0 -62 -32 -121 -70 -60 -39 -112 -70
-118 -70 -5 0 -9 -4 -9 -10 0 -5 -4 -10 -10 -10 -9 0 -36 -19 -66 -48 -8 -7
-14 -11 -14 -7 0 3 -6 1 -13 -5 -28 -24 -56 -46 -77 -60 -28 -18 -89 -68 -154
-123 -27 -23 -62 -51 -77 -62 -16 -11 -29 -26 -29 -32 0 -7 -4 -13 -9 -13 -16
0 -219 -209 -273 -282 -15 -20 -33 -42 -40 -50 -30 -30 -78 -97 -78 -106 0 -6
-6 -15 -13 -19 -30 -18 -163 -257 -227 -408 -45 -107 -93 -270 -92 -312 0 -5
-4 -14 -10 -21 -6 -7 -8 -15 -6 -18 3 -3 2 -22 -3 -42 -11 -51 -23 -202 -21
-287 1 -103 18 -260 32 -310 5 -16 11 -43 14 -60 18 -103 65 -234 137 -381 21
-44 39 -86 39 -92 0 -7 4 -12 9 -12 5 0 11 -8 15 -17 9 -28 124 -210 151 -239
6 -6 21 -26 35 -44 145 -194 459 -493 652 -620 21 -14 38 -28 38 -32 0 -5 6
-8 13 -8 8 0 22 -9 32 -20 10 -11 22 -20 27 -20 5 0 14 -5 21 -11 23 -20 149
-99 158 -99 5 0 9 -4 9 -10 0 -5 5 -10 10 -10 6 0 27 -11 48 -23 62 -39 427
-232 450 -238 7 -2 70 -30 159 -70 24 -10 45 -19 48 -19 3 0 24 -8 48 -19 23
-10 80 -33 127 -51 47 -17 94 -36 105 -41 42 -18 459 -149 520 -164 11 -3 47
-12 80 -21 33 -8 76 -19 95 -24 19 -5 44 -11 55 -13 27 -7 164 -39 179 -41 6
-1 36 -8 66 -14 30 -6 66 -14 80 -16 14 -2 59 -11 100 -19 41 -9 93 -18 115
-21 71 -10 109 -16 135 -22 14 -3 48 -8 75 -10 48 -4 90 -11 90 -14 0 -1 16
-3 35 -5 19 -1 55 -5 80 -9 25 -3 77 -8 115 -11 39 -3 92 -8 120 -11 83 -10
273 -23 440 -30 264 -11 865 0 1060 21 17 1 64 6 105 10 167 15 269 26 295 32
11 2 38 6 60 8 22 2 56 6 75 9 19 3 53 8 75 11 22 4 51 8 65 11 14 2 39 6 55
8 86 13 425 80 490 98 22 5 49 12 60 14 11 2 47 11 80 19 33 9 78 20 100 26
256 65 652 203 950 331 83 36 398 189 405 197 3 3 25 16 50 29 99 51 458 281
501 322 9 8 29 24 45 35 16 11 39 30 51 42 13 12 23 20 23 17 0 -3 6 1 14 8 8
7 42 38 77 68 81 71 250 240 314 314 58 68 175 223 175 231 0 3 5 11 10 18 70
80 245 445 264 550 2 12 9 42 16 67 13 48 17 67 25 115 3 17 8 45 11 63 10 55
13 102 13 227 0 220 -16 328 -80 535 -22 69 -22 70 -64 170 -55 131 -224 420
-246 420 -5 0 -9 6 -9 13 0 7 -8 22 -18 33 -9 10 -45 53 -79 94 -120 147 -302
320 -490 467 -126 97 -407 287 -423 286 -3 0 -23 12 -45 26 -79 54 -483 262
-515 266 -3 0 -21 8 -40 17 -51 24 -312 129 -332 133 -9 2 -26 9 -37 15 -12 6
-21 8 -21 4 0 -3 -6 -2 -12 4 -14 11 -433 145 -488 156 -8 2 -22 6 -30 9 -14
5 -297 75 -330 81 -8 2 -31 6 -50 10 -19 4 -42 8 -50 10 -8 1 -40 8 -70 14
-65 14 -106 21 -140 27 -54 8 -96 16 -110 20 -8 3 -35 7 -60 10 -25 2 -54 6
-65 8 -18 4 -40 7 -150 23 -44 6 -103 13 -165 19 -30 4 -73 8 -95 11 -22 2
-70 6 -107 9 -37 3 -87 7 -112 9 -74 8 -272 18 -407 21 -69 1 -131 5 -137 9
-6 3 -13 3 -15 -1 -4 -7 -59 -9 -77 -3 -13 4 -121 0 -129 -4 -5 -4 -11 -1 -13
5 -2 5 -6 7 -10 4z"/>
<path d="M3 4450 c2 -300 7 -556 11 -570 3 -14 9 -43 11 -65 12 -94 73 -302
122 -415 34 -79 88 -186 102 -204 9 -10 15 -20 13 -23 -2 -2 18 -38 45 -79 26
-42 53 -83 58 -92 17 -29 97 -136 109 -147 6 -5 23 -26 37 -45 45 -60 273
-300 285 -300 2 0 16 -12 31 -28 27 -26 127 -111 189 -159 106 -83 263 -193
274 -193 6 0 10 -4 10 -8 0 -5 15 -16 33 -25 17 -10 46 -26 62 -37 17 -11 38
-23 48 -26 9 -4 17 -10 17 -14 0 -4 8 -10 18 -13 9 -4 44 -22 77 -42 33 -19
76 -43 95 -52 19 -9 42 -23 52 -30 9 -8 22 -16 30 -17 7 -2 84 -37 170 -80 87
-42 162 -76 167 -76 5 0 26 -9 48 -20 76 -38 420 -166 558 -206 28 -8 57 -18
65 -21 8 -3 20 -7 25 -9 6 -1 61 -16 124 -34 62 -17 122 -33 132 -35 11 -2 23
-6 27 -9 5 -3 19 -7 33 -9 13 -3 53 -12 89 -21 36 -9 75 -18 88 -21 12 -3 32
-7 45 -10 12 -3 45 -9 72 -15 47 -10 69 -14 113 -24 9 -2 37 -7 62 -12 25 -4
47 -8 50 -9 3 0 27 -4 53 -9 27 -4 59 -9 70 -12 12 -2 38 -6 57 -9 19 -3 49
-7 65 -11 17 -3 46 -7 65 -9 19 -2 46 -6 60 -9 14 -2 50 -7 80 -10 30 -3 80
-9 110 -12 30 -4 66 -8 80 -9 14 -2 25 -4 25 -4 0 -1 32 -4 70 -6 39 -3 97 -7
130 -10 188 -15 286 -18 635 -19 349 0 546 5 700 20 30 3 80 7 110 9 30 2 55
4 55 5 0 2 24 5 115 14 81 8 150 16 190 22 19 3 49 7 65 9 17 2 44 6 60 9 17
3 46 8 65 11 19 4 51 8 70 10 19 2 35 5 35 6 0 1 9 3 20 4 11 2 31 5 45 8 62
12 107 21 125 23 11 1 20 3 20 4 0 2 20 6 66 14 20 3 42 8 50 10 8 3 25 7 39
10 14 2 58 12 99 21 40 9 80 19 90 20 9 2 16 4 16 5 0 2 3 3 105 29 41 10 86
23 100 29 14 5 28 10 33 11 4 0 8 1 10 2 1 0 12 2 25 5 29 5 150 42 177 54 11
5 58 21 105 35 46 14 91 31 99 38 8 7 15 10 15 8 1 -5 74 18 91 28 6 3 15 6
20 7 16 3 165 63 223 89 29 14 54 25 57 25 16 0 359 169 441 218 28 16 61 33
72 37 12 3 22 11 22 16 0 5 4 9 10 9 10 0 191 109 200 121 3 3 15 11 27 18 23
12 155 104 213 149 213 165 425 366 545 517 22 27 47 58 57 68 23 26 151 214
178 262 52 91 108 204 134 270 47 115 86 237 80 246 -3 5 -1 9 4 9 5 0 9 6 9
13 0 6 8 46 16 87 9 41 19 93 23 115 7 44 18 1123 11 1115 -3 -3 -8 -39 -11
-79 -4 -41 -9 -77 -11 -80 -2 -4 -6 -23 -9 -43 -5 -35 -33 -143 -55 -213 -10
-36 -66 -175 -89 -225 -26 -56 -121 -220 -166 -285 -109 -159 -336 -410 -465
-515 -24 -19 -50 -41 -58 -49 -16 -15 -101 -81 -149 -116 -15 -11 -47 -35 -71
-52 -24 -18 -47 -33 -52 -33 -5 0 -11 -3 -13 -8 -4 -10 -139 -96 -275 -175
-232 -135 -654 -326 -875 -398 -32 -10 -66 -22 -76 -28 -10 -6 -30 -12 -43
-15 -13 -3 -67 -19 -119 -36 -52 -18 -102 -33 -110 -35 -8 -2 -62 -17 -120
-33 -126 -36 -162 -46 -175 -47 -5 -1 -20 -4 -32 -9 -12 -4 -32 -9 -45 -12
-13 -3 -32 -7 -43 -9 -11 -3 -29 -7 -40 -9 -11 -2 -38 -9 -60 -14 -22 -6 -53
-13 -70 -15 -16 -3 -48 -9 -70 -15 -22 -6 -56 -13 -75 -16 -19 -3 -45 -8 -56
-10 -12 -2 -39 -7 -60 -10 -22 -4 -46 -8 -54 -11 -8 -2 -35 -6 -60 -9 -25 -4
-56 -8 -70 -10 -98 -17 -153 -25 -200 -30 -19 -1 -57 -6 -85 -10 -88 -13 -116
-16 -174 -21 -31 -3 -82 -7 -113 -10 -32 -3 -84 -7 -115 -10 -391 -36 -1177
-35 -1513 1 -30 3 -82 8 -115 10 -33 3 -79 7 -102 9 -24 3 -62 7 -85 9 -24 2
-65 7 -93 11 -27 3 -68 8 -90 10 -22 3 -51 7 -65 11 -14 3 -41 8 -60 10 -19 2
-46 6 -60 8 -14 2 -47 7 -75 11 -27 3 -57 8 -65 10 -8 2 -31 7 -50 10 -19 4
-69 13 -110 21 -41 8 -93 17 -115 20 -22 4 -42 10 -43 15 -2 5 -7 7 -11 5 -4
-3 -35 1 -68 9 -33 8 -71 16 -84 19 -13 3 -44 10 -69 17 -25 6 -52 12 -60 14
-8 2 -15 4 -15 5 0 1 -9 3 -20 5 -11 2 -36 8 -55 14 -19 5 -60 17 -90 25 -85
22 -203 57 -225 67 -11 4 -36 13 -55 18 -88 25 -397 139 -462 171 -23 11 -45
20 -49 20 -11 0 -120 51 -304 142 -170 85 -231 118 -255 140 -8 7 -15 11 -15
9 -1 -22 -336 207 -530 361 -179 143 -411 396 -531 578 -27 41 -52 77 -56 78
-5 2 -8 8 -8 14 0 6 -13 32 -28 57 -64 107 -180 393 -187 461 -1 14 -5 35 -9
47 -15 48 -19 68 -32 193 -4 30 -8 57 -11 60 -3 3 -3 -240 0 -540z"/>
</g>
</svg>
